<svg xmlns="http://www.w3.org/2000/svg" width="40" height="40" viewBox="0 0 40 40">
    <g fill="none" fill-rule="evenodd">
        <g fill="#A1A1A1">
            <path d="M4.556 12.788c.479-.271 1.086-.103 1.358.376.27.479.103 1.086-.376 1.358-2.287 1.295-3.546 2.859-3.546 4.404 0 3.751 6.31 5.926 10.028 6.561V22.91c0-.367.202-.705.526-.878.323-.173.716-.154 1.022.05l5.977 3.984c.277.184.443.496.443.829 0 .333-.166.644-.443.828l-5.977 3.985c-.306.204-.7.222-1.022.05-.324-.174-.526-.512-.526-.88v-3.372C7.006 26.71 0 24.024 0 18.926c0-2.294 1.618-4.474 4.556-6.138zm9.456 11.983v4.247l3.184-2.123-3.184-2.124zm14.074-11.607c.272-.479.88-.647 1.358-.376C32.382 14.452 34 16.632 34 18.926c0 4.738-6.175 7.424-10.826 8.366-.539.109-1.065-.24-1.174-.78-.109-.538.24-1.064.779-1.173 3.48-.704 9.229-2.881 9.229-6.413 0-1.545-1.26-3.11-3.546-4.404-.478-.272-.647-.88-.376-1.358zM16.555.105c.28-.14.61-.14.89 0l7.97 3.984c.333.166.55.514.55.891v9.961c0 .378-.213.723-.55.891l-7.97 3.985c-.144.071-.297.105-.445.105-.148 0-.308-.036-.445-.105l-7.97-3.985c-.337-.168-.55-.513-.55-.89V4.98c0-.373.212-.721.55-.89zm-6.528 6.487v7.734l5.977 2.988V9.58l-5.977-2.988zm13.946 0L17.996 9.58v7.734l5.977-2.988V6.592zM17 2.11l-5.741 2.87L17 7.851l5.741-2.87L17 2.11z" transform="translate(3 4)"/>
        </g>
    </g>
</svg>
