<?xml version="1.0" encoding="UTF-8"?>
<svg width="41px" height="51px" viewBox="0 0 41 51" version="1.1" xmlns="http://www.w3.org/2000/svg" xmlns:xlink="http://www.w3.org/1999/xlink">
    <!-- Generator: Sketch 62 (91390) - https://sketch.com -->
    <title>icons / warranty</title>
    <desc>Created with Sketch.</desc>
    <g id="📱-mobile" stroke="none" stroke-width="1" fill="none" fill-rule="evenodd">
        <g id="03.1-about-company" transform="translate(-140.000000, -2234.000000)" stroke="#000000">
            <g id="adv1-copy-4" transform="translate(16.000000, 2197.000000)">
                <g id="icons-/-rating" transform="translate(107.000000, 25.000000)">
                    <g id="Group-3" transform="translate(17.000000, 12.000000)">
                        <g id="Group">
                            <polygon id="Combined-Shape" points="20.5 8.67456335 17.1008131 10.4616217 17.75 6.6765714 15 3.9959839 18.8004065 3.44375251 20.5 0 22.1995935 3.44375251 26 3.9959839 23.25 6.6765714 23.8991869 10.4616217"></polygon>
                            <polygon id="Combined-Shape-Copy" points="35.5 8.67456335 32.1008131 10.4616217 32.75 6.6765714 30 3.9959839 33.8004065 3.44375251 35.5 0 37.1995935 3.44375251 41 3.9959839 38.25 6.6765714 38.8991869 10.4616217"></polygon>
                            <polygon id="Combined-Shape-Copy-2" points="5.5 8.67456335 2.10081306 10.4616217 2.75 6.6765714 1.56763491e-13 3.9959839 3.80040653 3.44375251 5.5 0 7.19959347 3.44375251 11 3.9959839 8.25 6.6765714 8.89918694 10.4616217"></polygon>
                        </g>
                        <path d="M33,48.8863517 C28.8767595,49.5722948 24.6166568,50 21,50 C17.3827086,50 13.1260835,49.5730984 9.05014485,49.1129186 L9,42 C9,39.9444736 10.3350136,38.4899798 12.0394088,37.4411212 C14.9281759,35.6634185 18.9623371,35 21,35 C23.0376629,35 27.0718241,35.6634185 29.9605912,37.4411212 C31.6649864,38.4899798 33,39.9444736 33,42 L33,48.8863517 Z M27.3637876,25.364088 C27.3637876,27.118426 26.6495985,28.7089555 25.4973498,29.8610867 C24.3450038,31.0133152 22.754182,31.727425 20.9996996,31.727425 C19.2452171,31.727425 17.6543954,31.0133152 16.5020493,29.8610867 C15.3498007,28.7089555 14.6356115,27.118426 14.6356115,25.364088 C14.6356115,23.6094237 15.3497666,22.018715 16.5020024,20.8664792 C17.6543478,19.7141338 19.2451909,19 20.9996996,19 C22.7542083,19 24.3450513,19.7141338 25.4973968,20.8664792 C26.6496325,22.018715 27.3637876,23.6094237 27.3637876,25.364088 Z" id="Combined-Shape" stroke-width="2"></path>
                    </g>
                </g>
            </g>
        </g>
    </g>
</svg>