<svg xmlns="http://www.w3.org/2000/svg" width="75" height="75" viewBox="0 0 75 75">
    <path fill-rule="evenodd" d="M60.129 17c.48 0 .87.392.87.875v12.988c0 .168-.048.333-.14.475-.65 1.01-1.686 1.774-2.936 2.203.05.103.077.218.077.338V55h2c.608 0 1 .413 1 1v3c0 .587-.392 1-1 1H15c-.607 0-1-.413-1-1v-3c0-.587.393-1 1-1h2V33.879c0-.12.027-.234.077-.338-1.25-.427-2.285-1.19-2.937-2.203-.092-.142-.14-.307-.14-.475V17.875c0-.483.39-.875.87-.875H60.13zM59 57H16v1h43v-1zM42.034 32.326c-1.122 1.018-2.737 1.604-4.507 1.604-1.772 0-3.384-.586-4.505-1.603-1.123 1.017-2.736 1.603-4.506 1.603s-3.383-.586-4.507-1.603c-1.123 1.024-2.733 1.606-4.508 1.606-.072 0-.142 0-.215-.002-.096-.003-.191-.007-.286-.013V55h4V43.507c0-.28.226-.507.51-.507h7.98c.283 0 .51.227.51.507V55h24V33.918c-.08.005-.16.008-.241.011-1.852.054-3.562-.519-4.741-1.578-1.13 1.011-2.798 1.571-4.522 1.578-1.751-.009-3.35-.595-4.462-1.603zM30.98 44.014h-6.96L24 55h7l-.02-10.986zM51 37c.72 0 .967.187.997.037l.002-.035v11.995l-.002-.034c-.03-.15-.277.037-.997.037H35c-.72 0-.967-.187-.997-.037l-.003.034V37.002l.003.035c.03.15.277-.037.997-.037h16zm0 1H35v10h16V38zm8.032-18.997l-7.363-.001.001 11.482c.017.018.032.038.047.058.786 1.063 2.305 1.711 3.986 1.638 1.52-.049 2.603-.639 3.329-1.593V19.003zm-35.475-.001h-7.563v11.585c.733.963 1.801 1.554 3.337 1.594 1.7.046 3.2-.595 3.973-1.667.068-.095.155-.17.253-.226V19.002zm18.154 0h-8.073l.002 11.408c.031.032.06.067.087.104.739 1.027 2.195 1.666 3.8 1.666 1.604 0 3.061-.638 3.802-1.666.096-.135.231-.23.382-.285V19.002zm-9.073 0h-8.082v11.35c.06.046.113.1.158.162.74 1.028 2.197 1.666 3.802 1.666s3.06-.639 3.8-1.666c.085-.118.196-.211.322-.274V19.002zm18.03 0H42.71l.002 11.476.027.036c.745 1.033 2.152 1.656 3.766 1.665h.034c1.588 0 3.034-.625 3.78-1.637.09-.123.213-.213.35-.268V19.002z"/>
</svg>
