<?xml version="1.0" encoding="UTF-8"?>
<svg width="35px" height="44px" viewBox="0 0 35 44" version="1.1" xmlns="http://www.w3.org/2000/svg" xmlns:xlink="http://www.w3.org/1999/xlink">
    <!-- Generator: Sketch 62 (91390) - https://sketch.com -->
    <title>icons / warranty</title>
    <desc>Created with Sketch.</desc>
    <g id="📱-mobile" stroke="none" stroke-width="1" fill="none" fill-rule="evenodd">
        <g id="03.1-about-company" transform="translate(-143.000000, -1886.000000)" fill="#000000">
            <g id="adv1-copy-3" transform="translate(16.000000, 1845.000000)">
                <g id="icons-/-warranty" transform="translate(107.000000, 25.000000)">
                    <g id="Group-8" transform="translate(20.000000, 16.000000)">
                        <path d="M16.969697,0 C21.7593219,4.55363752 27.529541,7.15085985 34.4374067,7.48967834 L35,7.51219512 L35,23.310534 C35,33.3118919 28.0491886,41.9129253 18.4026443,43.9258397 L18.030303,44 C7.60212424,42.1379321 2.18278728e-09,32.9694473 2.18278728e-09,22.2546886 L2.18278728e-09,7.51219512 C6.7786017,6.9266536 12.4470339,4.31354124 16.969697,0 Z M16.9686364,2.86214634 L16.73046,3.06241091 C12.6749943,6.39233442 7.90779337,8.51908382 2.52483323,9.36625083 L2.12121212,9.42565854 L2.12121212,22.2546886 C2.12121212,31.6733947 8.62792942,39.7686328 17.6610645,41.7399927 L18.0175758,41.8139512 L18.3443829,41.742564 C26.700489,39.8211757 32.7027596,32.3738385 32.8749833,23.6942431 L32.8787879,23.310534 L32.8787879,9.52760976 L32.6260924,9.50455001 C26.806361,8.90826071 21.6636288,6.74194004 17.207726,3.06350864 L16.9686364,2.86214634 Z M17.5,12 C22.7467051,12 27,16.2532949 27,21.5 C27,26.7467051 22.7467051,31 17.5,31 C12.2532949,31 8,26.7467051 8,21.5 C8,16.2532949 12.2532949,12 17.5,12 Z M17.5,14 C13.3578644,14 10,17.3578644 10,21.5 C10,25.6421356 13.3578644,29 17.5,29 C21.6421356,29 25,25.6421356 25,21.5 C25,17.3578644 21.6421356,14 17.5,14 Z M20.8646497,19.1947105 C21.0617411,19.4342351 21.0412781,19.7998862 20.8183386,20.0116398 L16.7251944,23.8553595 C16.6228791,23.9514008 16.4957929,24 16.3676296,24 C16.2502363,24 16.1317661,23.9583435 16.0326818,23.8750306 L14.2039318,22.3186993 C13.9712993,22.119674 13.9314502,21.7563372 14.1166946,21.5052413 C14.301939,21.2564597 14.6401178,21.212489 14.8727503,21.4115143 L16.3482435,22.6669935 L20.104286,19.1449542 C20.3261485,18.9343577 20.6664813,18.9551859 20.8646497,19.1947105 Z" id="Combined-Shape"></path>
                    </g>
                </g>
            </g>
        </g>
    </g>
</svg>