<?xml version="1.0" encoding="UTF-8"?>
<svg width="14px" height="17px" viewBox="0 0 14 17" version="1.1" xmlns="http://www.w3.org/2000/svg" xmlns:xlink="http://www.w3.org/1999/xlink">
    <!-- Generator: Sketch 62 (91390) - https://sketch.com -->
    <title>Group</title>
    <desc>Created with Sketch.</desc>
    <g id="Page-1" stroke="none" stroke-width="1" fill="none" fill-rule="evenodd">
        <g id="Group" transform="translate(0.010740, 0.000000)" fill="#FFFFFF" fill-rule="nonzero">
            <path d="M10.0571142,0 C9.18463936,0.060347032 8.16487681,0.618812785 7.57061197,1.34604566 C7.02851151,2.00577169 6.58255717,2.98564384 6.75643845,3.93789954 C7.70971699,3.96756164 8.69470329,3.39579909 9.26544302,2.65629224 C9.79936082,1.96792694 10.2033791,0.994191781 10.0571142,0 Z" id="Path"></path>
            <path d="M13.5050777,5.49055708 C12.6673791,4.44010959 11.4901006,3.83050228 10.3782832,3.83050228 C8.91052064,3.83050228 8.28966219,4.53318721 7.26989964,4.53318721 C6.21842932,4.53318721 5.41959827,3.83254795 4.15026493,3.83254795 C2.90343388,3.83254795 1.57579918,4.59455708 0.734009226,5.89764384 C-0.449406299,7.73260274 -0.246885751,11.1826119 1.67092247,14.1212055 C2.3572421,15.1726758 3.27369872,16.3550685 4.47245672,16.3654087 C5.5392695,16.3755251 5.83998183,15.6810228 7.2852421,15.673863 C8.73050238,15.6656804 9.0046211,16.3745023 10.0693882,16.3632511 C11.269169,16.3540457 12.2357444,15.0437991 12.922064,13.9923288 C13.4140458,13.2385023 13.5971325,12.859032 13.9786485,12.0080365 C11.2037079,10.9514521 10.7587763,7.00536986 13.5050777,5.49055708 Z" id="Path"></path>
        </g>
    </g>
</svg>