<svg xmlns="http://www.w3.org/2000/svg" width="40" height="40" viewBox="0 0 40 40">
    <path fill="#7F7F7F" d="M28.476 5c.29 0 .524.239.524.533l.001 11.597c1.33.352 1.999 1.412 1.999 3.129v2.17c0 .316-.237.571-.53.571H29v11.491c0 .281-.221.509-.495.509h-4.011c-.273 0-.494-.228-.494-.509V23h-8v11.491c0 .281-.221.509-.495.509h-4.011c-.273 0-.494-.228-.494-.509V23H9.53c-.293 0-.53-.255-.53-.57v-2.171c0-1.499.727-2.672 2-3.092V5.533c0-.294.235-.533.524-.533h16.952zM14 23h-1v10h1V23zm13 0h-1v10h1V23zm.952-4H12.047C11.47 19 11 19.584 11 20.301V21h18v-.699c0-.717-.47-1.301-1.048-1.301zM27 7H13v10h14V7z"/>
</svg>
