<svg xmlns="http://www.w3.org/2000/svg" width="75" height="75" viewBox="0 0 75 75">
    <path fill-rule="evenodd" d="M59 53v2H15v-2h44zm0-4v2H15v-2h44zm-1-26c.61 0 1 .387 1 1v22c0 .613-.39 1-1 1H16c-.609 0-1-.387-1-1V24c0-.613.391-1 1-1h42zM17 39.492V45l5.946-.001c-.59-2.892-2.98-5.136-5.945-5.507zM51.404 45L57 45v-5.455c-2.802.496-5.03 2.676-5.597 5.454zm-1.06-20H24.007c-.508 3.574-3.398 6.389-7.006 6.782v6.705c3.517.383 6.353 3.068 6.963 6.513h26.421c.59-3.33 3.26-5.951 6.615-6.468v-6.796c-3.444-.53-6.166-3.278-6.657-6.735zM37 28c3.86 0 7 3.14 7 7s-3.14 7-7 7-7-3.14-7-7 3.14-7 7-7zm0 2c-2.757 0-5 2.243-5 5s2.243 5 5 5 5-2.243 5-5-2.243-5-5-5zm-10.5 4c.83 0 1.5.671 1.5 1.5 0 .828-.67 1.5-1.5 1.5-.828 0-1.5-.672-1.5-1.5 0-.829.672-1.5 1.5-1.5zm21 0c.83 0 1.5.671 1.5 1.5 0 .828-.67 1.5-1.5 1.5-.828 0-1.5-.672-1.5-1.5 0-.829.672-1.5 1.5-1.5zm-24.505-9H17v5.774c3.056-.382 5.502-2.754 5.995-5.774zM57 25h-5.646c.475 2.904 2.755 5.21 5.646 5.721V25z"/>
</svg>
