<svg xmlns="http://www.w3.org/2000/svg" width="75" height="75" viewBox="0 0 75 75">
    <g fill="none" fill-rule="evenodd">
        <path fill="#000" d="M40.21 2.103c1.755 1.223 2.575 3.556 2.575 7.345v.957c0 3.786-.82 6.121-2.576 7.342-1.172.817-2.601 1.03-4.145 1.085l-.047.067c-1.163 1.646-.705 3.866-.219 6.215l.11.539 3.02 8.778c.016.046.03.095.036.145.142.89-.088 1.789-.615 2.406-.393.462-.918.717-1.475.717h-9.872c-.95 0-1.612-.3-1.962-.891-.648-1.094.147-2.547.85-3.83.188-.345.441-.806.512-1.018l-1.598-6.997h-2.588c-.288 0-.557-.142-.72-.379-.164-.238-.199-.54-.097-.808.884-2.308.618-4.332.508-4.925h-3.3c-1.812-.003-4.514-1.658-5.79-2.754H7.897c-.188 0-.37-.06-.52-.172l-4.31-3.19c-.224-.166-.356-.426-.356-.704v-.06l-2.188-.957c-.283-.124-.477-.386-.517-.687l-.008-.115v-.574c0-.347.206-.662.525-.802l2.187-.958.001-.058c0-.278.132-.538.356-.702l4.31-3.192c.15-.11.332-.172.52-.172h4.918C14.093 2.66 16.796 1.002 18.603 1h15.841c2.157 0 4.192.01 5.765 1.103zm-6.165 16.749h-8.839l2.93 12.845c.12.604-.212 1.208-.713 2.12-.28.519-.937 1.715-.872 2.098l.01-.001c.042 0 .175.035.441.035h9.872c.034 0 .091-.04.145-.102.15-.175.271-.525.226-.928l-3.009-8.75c-.013-.036-.025-.072-.03-.111l-.122-.59c-.444-2.15-.939-4.545-.039-6.616zm-10.63 4.361h.99l-.622-2.73c-.01.778-.103 1.713-.368 2.73zM34.392 2.75H18.606c-1.228.001-3.813 1.522-4.85 2.513l-.047.038.002 9.248.045.04c1.037.99 3.622 2.51 4.851 2.512h16.564c1.677-.01 3.062-.11 4.04-.788.783-.546 1.824-1.752 1.824-5.908v-.957c0-4.158-1.043-5.364-1.826-5.909-1.135-.789-2.866-.774-4.817-.789zM12.71 5.503H8.68v8.844h4.03V5.503zm-5.029.374L4.462 8.26V11.59l3.218 2.383V5.877zm29.747 7.078c.275 0 .5.223.5.5 0 .275-.225.5-.5.5h-2.866c-.276 0-.5-.225-.5-.5 0-.277.224-.5.5-.5h2.866zm-7.1-5.417c.276 0 .5.225.5.5v3.775c0 .275-.224.5-.5.5H18.695c-.277 0-.5-.225-.5-.5V8.038c0-.275.223-.5.5-.5h11.632zm7.1 3.063c.275 0 .5.225.5.5 0 .276-.225.5-.5.5h-2.866c-.276 0-.5-.224-.5-.5 0-.275.224-.5.5-.5h2.866zm-7.6-2.062H19.195v2.774h10.632V8.54zm7.6-.288c.275 0 .5.223.5.5 0 .274-.225.5-.5.5h-2.866c-.276 0-.5-.226-.5-.5 0-.277.224-.5.5-.5h2.866zm0-2.353c.275 0 .5.224.5.5s-.225.5-.5.5h-2.866c-.276 0-.5-.224-.5-.5s.224-.5.5-.5h2.866z" transform="matrix(-1 0 0 1 59 19)"/>
    </g>
</svg>
