<svg xmlns="http://www.w3.org/2000/svg" width="75" height="75" viewBox="0 0 75 75">
    <g fill="none" fill-rule="evenodd">
        <g fill="#83C150" fill-rule="nonzero">
            <g>
                <g>
                    <path d="M46.129 0c.48 0 .87.392.87.875v12.988c0 .168-.048.333-.14.475-.65 1.01-1.686 1.774-2.936 2.203.05.103.077.218.077.338V38h2c.608 0 1 .413 1 1v3c0 .587-.392 1-1 1H1c-.607 0-1-.413-1-1v-3c0-.587.393-1 1-1h2V16.879c0-.12.027-.234.077-.338-1.25-.427-2.285-1.19-2.937-2.203-.092-.142-.14-.307-.14-.475V.875C0 .392.39 0 .87 0H46.13zM45 40H2v1h43v-1zM28.034 15.326c-1.122 1.018-2.737 1.604-4.507 1.604-1.772 0-3.384-.586-4.505-1.603-1.123 1.017-2.736 1.603-4.506 1.603s-3.383-.586-4.507-1.603c-1.123 1.024-2.733 1.606-4.508 1.606-.072 0-.142 0-.215-.002-.096-.003-.191-.007-.286-.013V38h4V26.507c0-.28.226-.507.51-.507h7.98c.283 0 .51.227.51.507V38h24V16.918c-.08.005-.16.008-.241.011-1.852.054-3.562-.519-4.741-1.578-1.13 1.011-2.798 1.571-4.522 1.578-1.751-.009-3.35-.595-4.462-1.603zM16.98 27.014h-6.96L10 38h7l-.02-10.986zM37 20c.72 0 .967.187.997.037l.002-.035v11.995l-.002-.034c-.03-.15-.277.037-.997.037H21c-.72 0-.967-.187-.997-.037l-.003.034V20.002l.003.035c.03.15.277-.037.997-.037h16zm0 1H21v10h16V21zm8.032-18.997l-7.363-.001.001 11.482c.017.018.032.038.047.058.786 1.063 2.305 1.711 3.986 1.638 1.52-.049 2.603-.639 3.329-1.593V2.003zM9.557 2.002H1.994v11.585c.733.963 1.801 1.554 3.337 1.594 1.7.046 3.2-.595 3.973-1.667.068-.095.155-.17.253-.226V2.002zm18.154 0h-8.072V13.41c.032.032.062.067.088.104.739 1.027 2.195 1.666 3.8 1.666 1.604 0 3.061-.638 3.802-1.666.096-.135.231-.23.382-.285V2.002zm-9.072 0h-8.082v11.35c.059.046.112.1.157.162.74 1.028 2.197 1.666 3.802 1.666s3.06-.639 3.8-1.666c.085-.118.196-.211.322-.274V2.002zm18.03 0H28.71v11.476l.028.036c.745 1.033 2.152 1.656 3.766 1.665h.034c1.588 0 3.034-.625 3.78-1.637.09-.123.213-.213.35-.268V2.002z" transform="translate(-122.000000, -2088.000000) translate(122.000000, 2088.000000) translate(14.000000, 17.000000)"/>
                </g>
            </g>
        </g>
    </g>
</svg>
