<?xml version="1.0" encoding="UTF-8"?>
<svg width="22px" height="19px" viewBox="0 0 22 19" version="1.1" xmlns="http://www.w3.org/2000/svg" xmlns:xlink="http://www.w3.org/1999/xlink">
    <!-- Generator: Sketch 62 (91390) - https://sketch.com -->
    <title>Combined Shape</title>
    <desc>Created with Sketch.</desc>
    <g id="Symbols" stroke="none" stroke-width="1" fill="none" fill-rule="evenodd">
        <g id="badges/alert" transform="translate(-9.000000, -9.000000)" fill="#83C150" fill-rule="nonzero">
            <g id="alert-triangle" transform="translate(9.000000, 9.000000)">
                <path d="M10.9995228,5.25801624e-13 C12.0071576,5.25801624e-13 12.9416607,0.517502574 13.4670036,1.36939443 L13.4670036,1.36939443 L21.6136882,14.7467922 C22.1258875,15.6192547 22.1289457,16.6935258 21.6217216,17.5687958 C21.1144976,18.4440658 20.1731758,18.9888702 19.1384019,19 L19.1384019,19 L2.85008284,19 C1.82586979,18.9888702 0.88454802,18.4440658 0.377323967,17.5687958 C-0.129900086,16.6935258 -0.126841961,15.6192547 0.393162906,14.7337391 L0.393162906,14.7337391 L8.53479731,1.36489845 C9.05738493,0.517502574 9.99188799,5.25801624e-13 10.9995228,5.25801624e-13 Z M10.9995159,2 C10.6665658,2 10.3577805,2.17001324 10.1878346,2.44397399 L10.1878346,2.44397399 L2.12764797,15.6027279 C1.95840332,15.8893548 1.95739283,16.2422812 2.12499351,16.5298304 C2.2925942,16.8173797 2.60363264,16.9963623 2.93159181,17 L2.93159181,17 L19.0569712,17 C19.3953992,16.9963623 19.7064376,16.8173797 19.8740383,16.5298304 C20.041639,16.2422812 20.0406285,15.8893548 19.8791214,15.6155927 L19.8791214,15.6155927 L11.8139286,2.44840513 C11.6412513,2.17001324 11.332466,2 10.9995159,2 Z M11.0049751,13 C11.5545122,13 12,13.4477153 12,14 C12,14.5128358 11.6158804,14.9355072 11.121016,14.9932723 L10.9950249,15 C10.4454878,15 10,14.5522847 10,14 C10,13.4871642 10.3841196,13.0644928 10.878984,13.0067277 L11.0049751,13 Z M11,6 C11.5128358,6 11.9355072,6.38604019 11.9932723,6.88337887 L12,7 L12,11 C12,11.5522847 11.5522847,12 11,12 C10.4871642,12 10.0644928,11.6139598 10.0067277,11.1166211 L10,11 L10,7 C10,6.44771525 10.4477153,6 11,6 Z" id="Combined-Shape"></path>
            </g>
        </g>
    </g>
</svg>