<?xml version="1.0" encoding="UTF-8"?>
<svg width="13px" height="13px" viewBox="0 0 13 13" version="1.1" xmlns="http://www.w3.org/2000/svg" xmlns:xlink="http://www.w3.org/1999/xlink">
    <!-- Generator: Sketch 62 (91390) - https://sketch.com -->
    <title>Group 5</title>
    <desc>Created with Sketch.</desc>
    <g id="📱-mobile" stroke="none" stroke-width="1" fill="none" fill-rule="evenodd">
        <g id="04.1-Mobile-price-units" transform="translate(-657.000000, -444.000000)">
            <g id="Group-Copy" transform="translate(545.000000, 100.000000)">
                <g id="price-unit" transform="translate(0.000000, 325.000000)">
                    <g id="title" transform="translate(16.000000, 17.000000)">
                        <g id="in-stock" transform="translate(96.000000, 0.000000)">
                            <g id="Group-5" transform="translate(0.000000, 2.000000)">
                                <circle id="Oval" fill="#83C150" cx="6.5" cy="6.5" r="6.5"></circle>
                                <path d="M8.50262652,4.24757945 C8.84230463,3.92022005 9.39631422,3.9170938 9.74004158,4.24059676 C10.0573284,4.53921488 10.084532,5.01176219 9.81967375,5.34017183 L9.74737341,5.41908731 L6.28860512,8.75242045 C5.97632303,9.05337736 5.48257701,9.08045752 5.13768842,8.83089752 L5.05475863,8.76274259 L3.26352727,7.09607602 C2.91786336,6.77445007 2.91141321,6.24684838 3.24912044,5.91764466 C3.5608502,5.6137643 4.05686122,5.58515461 4.40320008,5.83551874 L4.48647336,5.90392388 L5.65475019,6.99166658 L8.50262652,4.24757945 Z" id="Path" fill="#FFFFFF" fill-rule="nonzero"></path>
                            </g>
                        </g>
                    </g>
                </g>
            </g>
        </g>
    </g>
</svg>