<svg xmlns="http://www.w3.org/2000/svg" width="75" height="75" viewBox="0 0 75 75">
    <g fill="none" fill-rule="evenodd">
        <path fill="#83C150" fill-rule="nonzero" d="M38.265 13.354l3.214 4.133 4.55-2.593c.261-.148.575-.168.85-.053.277.114.484.35.564.64l1.382 5.052 5.194-.65c.295-.037.594.065.806.276.211.212.313.509.276.806l-.65 5.196 5.048 1.383c.29.079.525.286.64.563.114.277.096.591-.053.852l-2.591 4.55 4.13 3.215c.237.184.375.467.375.766 0 .3-.138.582-.374.764l-4.131 3.217 2.591 4.551c.149.26.167.574.053.851-.115.277-.35.484-.64.564L54.45 48.82l.65 5.197c.037.296-.065.594-.277.806-.212.211-.505.31-.806.275l-5.193-.65-1.382 5.051c-.08.29-.287.527-.564.64-.276.116-.59.096-.85-.053l-4.549-2.593-3.214 4.134c-.184.236-.466.374-.765.374s-.581-.138-.764-.374l-3.216-4.134-4.549 2.593c-.26.149-.575.169-.85.054-.277-.116-.484-.352-.563-.64l-1.382-5.052-5.195.65c-.294.036-.594-.066-.806-.277-.211-.211-.314-.51-.275-.806l.65-5.195-5.05-1.383c-.29-.08-.525-.287-.64-.564-.115-.277-.095-.59.054-.85l2.591-4.551-4.13-3.217c-.237-.182-.375-.465-.375-.764 0-.3.138-.582.374-.766l4.131-3.216-2.591-4.55c-.149-.26-.169-.575-.053-.851.114-.277.35-.486.639-.564l5.05-1.383-.65-5.196c-.038-.297.065-.594.277-.806.211-.211.506-.312.805-.277l5.194.65 1.382-5.05c.079-.29.286-.526.563-.64.275-.115.591-.095.851.053l4.549 2.593 3.215-4.133c.366-.473 1.163-.472 1.53 0zm2.7 6.729L37.5 15.628l-3.464 4.455-4.9-2.794-1.489 5.443-5.598-.702.7 5.602-5.441 1.489 2.792 4.902-4.453 3.466 4.453 3.467-2.792 4.902 5.442 1.49-.702 5.599 5.6-.7 1.488 5.442 4.898-2.793 3.466 4.455 3.464-4.455 4.899 2.793 1.49-5.442 5.597.701-.7-5.6 5.441-1.49-2.79-4.902 4.451-3.467-4.452-3.465 2.791-4.902-5.44-1.49.701-5.601-5.598.702-1.489-5.443-4.9 2.793z"/>
        <g stroke="#83C150" stroke-width="2">
            <path d="M18.79 10.829s1.47-3.596-3.362-2.702c0 0-2.985.633-3.329-.29 0 0-.236-.701.862-2.035 0 0 2.433-2.735-.32-5.402 0 0-1.403-1.196-1.623.548-.22 1.743.034 1.846-.913 3.197 0 0-2.662 2.598-3.214 4.598 0 0-.661 1.22-1.891 1.257v8.948c.41-.007 1.657-.06 3.056.434 0 0 2.56.616 4.227.616 0 0 3.38.08 4.41-.73 0 0 .904-.678.719-1.567 0 0-.169-.585.275-.923 0 0 1.292-.827.661-2.137 0 0-.331-.598.199-1.11 0 0 .778-.608.242-1.352 0 0-.358-.636 0-1.35z" transform="translate(28 26)"/>
            <path d="M0 19h5v-9H0v9z" transform="translate(28 26)"/>
        </g>
    </g>
</svg>
