<svg xmlns="http://www.w3.org/2000/svg" width="75" height="75" viewBox="0 0 75 75">
    <g fill="none" fill-rule="evenodd" opacity=".5">
        <g fill="#B4B4B4">
            <g>
                <g>
                    <path d="M30.616 50.912c1.415 0 2.567 1.15 2.567 2.565s-1.152 2.567-2.567 2.567c-1.415 0-2.566-1.152-2.566-2.567 0-1.415 1.151-2.565 2.566-2.565zm17.527 0c1.415 0 2.566 1.15 2.566 2.565s-1.151 2.567-2.566 2.567c-1.416 0-2.567-1.152-2.567-2.567 0-1.415 1.151-2.565 2.567-2.565zM30.616 52.7c-.429 0-.778.348-.778.777 0 .43.35.779.778.779.43 0 .779-.35.779-.779 0-.429-.35-.777-.779-.777zm17.527 0c-.43 0-.779.348-.779.777 0 .43.35.779.779.779.429 0 .778-.35.778-.779 0-.429-.35-.777-.778-.777zM15.025 20.01l6.194 1.018c.355.059.639.324.715.67L22.891 26l.069.003 31.226 2.515c.25.02.477.14.629.33.152.19.215.433.172.67l-2.797 15.77c-.074.41-.443.712-.875.712H27.338l.505 2.266H50.12c.487 0 .88.387.88.867 0 .479-.393.867-.88.867H27.135c-.414 0-.772-.283-.86-.682l-5.932-26.675-5.607-.921c-.48-.08-.803-.526-.724-.998.08-.472.535-.786 1.013-.714zm8.255 7.739l3.677 16.536h23.612l2.508-14.136-29.797-2.4z" transform="translate(-123 -408) translate(108 393) translate(15 15)"/>
                </g>
            </g>
        </g>
    </g>
</svg>
