<svg xmlns="http://www.w3.org/2000/svg" width="40" height="40" viewBox="0 0 40 40">
    <g fill="none" fill-rule="evenodd">
        <g fill="#B4B4B4">
            <g>
                <g>
                    <g>
                        <g>
                            <path d="M10.278.464c1.065-.615 2.379-.615 3.44-.002l8.56 4.89c.438.254.807.595 1.09.995l.03.03c.052.054.098.116.138.184.042.074.075.152.097.23l.05.1c.205.445.316.936.317 1.442v9.78c-.001 1.228-.658 2.364-1.726 2.98l-8.552 4.887c-.38.22-.792.361-1.213.424-.15.088-.323.138-.509.138-.185 0-.358-.05-.507-.138-.42-.061-.832-.202-1.211-.421l-8.56-4.891C.658 20.477.002 19.342 0 18.112v-9.78c0-.545.13-1.071.366-1.542.023-.078.056-.155.098-.229.04-.068.086-.13.138-.185l.03-.029c.283-.4.652-.741 1.09-.994l4.011-2.294c.157-.188.374-.307.606-.345zm-8.279 8.14L2 18.11c0 .516.276.992.718 1.247L11 24.09V13.81L1.999 8.604zm20 0L13 13.81v10.278l8.278-4.728c.402-.232.665-.641.714-1.096l.008-.153-.001-9.507zM6.561 4.89L3.045 6.9 12 12.077l3.507-2.029L6.561 4.89zm6.161-2.694c-.447-.258-.997-.258-1.448.002L8.572 3.741l8.934 5.152L20.954 6.9z" transform="translate(-270 -144) translate(-1 132) translate(249) translate(22 12) translate(8 6)"/>
                        </g>
                    </g>
                </g>
            </g>
        </g>
    </g>
</svg>
