<svg xmlns="http://www.w3.org/2000/svg" width="75" height="75" viewBox="0 0 75 75">
    <g fill="none" fill-rule="evenodd" opacity=".5">
        <g fill="#B4B4B4">
            <g>
                <g>
                    <g>
                        <g>
                            <path d="M20.955.117l19.599 11.315c.327.19.49.555.435.907.008.045.01.09.01.135v22.901c0 .319-.17.613-.445.772l-19.6 11.315c-.134.078-.289.119-.444.119-.156 0-.33-.04-.465-.12L.445 36.148C.17 35.988 0 35.694 0 35.375V12.203c0-.317.17-.611.445-.771L20.045.117c.27-.156.64-.156.91 0zm18.263 13.9L21.36 24.325v20.845l17.858-10.31V14.016zm-37.437 0V34.86l17.798 10.276V24.291l-5.616-3.242v4.988c0 .181-.095.348-.251.44-.08.046-.169.07-.258.07-.085 0-.172-.022-.249-.066l-5.372-3.02c-.16-.09-.26-.26-.26-.444V17.36L1.78 14.016zm6.81 3.93v4.772l4.354 2.449v-4.707L8.59 17.947zM32.32 8.735L14.859 19.51l5.64 3.256L38.563 12.34 32.32 8.735zm-5.305-3.063L9.555 16.448l4.304 2.484 17.46-10.775-4.304-2.485zM20.5 1.912L2.437 12.338l6.118 3.531L26.014 5.094 20.5 1.911z" transform="translate(-123 -408) translate(89.5 393) translate(18.5) translate(15 15) translate(17 15)"/>
                        </g>
                    </g>
                </g>
            </g>
        </g>
    </g>
</svg>
