<svg xmlns="http://www.w3.org/2000/svg" width="40" height="40" viewBox="0 0 40 40">
    <g fill="none" fill-rule="evenodd">
        <g fill="#B4B4B4">
            <g>
                <g>
                    <g>
                        <path d="M17 26c1.656 0 3 1.342 3 3 0 1.656-1.344 3-3 3-1.657 0-3-1.344-3-3 0-1.658 1.343-3 3-3zm9 0c1.656 0 3 1.342 3 3 0 1.656-1.344 3-3 3-1.657 0-3-1.344-3-3 0-1.658 1.343-3 3-3zm-9 2c-.553 0-1 .447-1 1 0 .552.447 1 1 1 .552 0 1-.448 1-1 0-.553-.448-1-1-1zm9 0c-.553 0-1 .447-1 1 0 .552.447 1 1 1 .552 0 1-.448 1-1 0-.553-.448-1-1-1zM9 8c1.621-.01 3.072 1.004 3.62 2.53L13.5 13H31c.32 0 .622.154.81.414.189.26.24.596.14.9l-2.546 7.636C28.996 23.174 27.85 24 26.56 24h-9.15c-1.27-.002-2.4-.803-2.824-2l-3.88-10.795C10.448 10.484 9.765 10.002 9 10H8c-.552 0-1-.448-1-1s.448-1 1-1zm20.614 7h-15.41l2.266 6.335c.141.397.517.664.94.665h9.15c.427-.004.805-.28.94-.685L29.613 15z" transform="translate(-104 -144) translate(-1 132) translate(83) translate(22 12)"/>
                    </g>
                </g>
            </g>
        </g>
    </g>
</svg>
