<?xml version="1.0" encoding="UTF-8"?>
<svg width="18px" height="20px" viewBox="0 0 18 20" version="1.1" xmlns="http://www.w3.org/2000/svg" xmlns:xlink="http://www.w3.org/1999/xlink">
    <title>Shape</title>
    <g id="Page-1" stroke="none" stroke-width="1" fill="none" fill-rule="evenodd">
        <g id="group-3" transform="translate(-14.000000, -13.000000)" fill="#83C150" fill-rule="nonzero">
            <path d="M30.989,27 C31.284,27.004 31.565,26.877 31.758,26.653 C31.95,26.429 32.034,26.132 31.988,25.84 L28.99,13.84 C28.911,13.351 28.487,12.994 27.992,12.9999255 L18.008,12.9999255 C17.513,12.994 17.088,13.351 17.01,13.84 L14.013,25.84 C13.966,26.132 14.05,26.43 14.243,26.653 C14.435,26.877 14.716,27.003 15.011,27 L22.001,27 L22.001,31 L20.006,31 C19.454,31 19.006,31.448 19.006,32 C19.006,32.552 19.454,33 20.006,33 L25.994,33 C26.546,33 26.994,32.552 26.994,32 C26.994,31.448 26.546,31 25.994,31 L23.998,31 L23.998,27 L30.988,27 L30.989,27 Z M18.85,15 L27.16,15 L29.83,25 L16.18,25 L18.85,15 Z" id="Shape"></path>
        </g>
    </g>
</svg>