<svg xmlns="http://www.w3.org/2000/svg" width="75" height="75" viewBox="0 0 75 75">
    <g fill="none" fill-rule="evenodd" opacity=".5">
        <g fill="#B4B4B4">
            <g>
                <g>
                    <g>
                        <g>
                            <path d="M23 5v2h8.187L31 46H2V7h9V5H.907C.407 5 0 5.407 0 5.907v41.186c0 .5.406.907.907.907h31.186c.5 0 .907-.407.907-.907V5.907c0-.5-.406-.907-.907-.907H23z" transform="translate(-123 -378) translate(95 363) translate(13) translate(15 15) translate(21 13)"/>
                            <path d="M12.772 14.262c.313.341.303.882-.024 1.21l-3.423 3.29c-.152.153-.355.238-.566.238h-.033c-.223-.01-.433-.114-.58-.288l-1.94-1.662c-.3-.352-.268-.893.07-1.206.339-.311.857-.28 1.156.073L8.76 17.05l2.855-2.812c.325-.326.844-.316 1.158.024zM26 16c.552 0 1 .448 1 1s-.448 1-1 1H16c-.552 0-1-.448-1-1s.448-1 1-1zM12.772 23.262c.313.341.303.882-.024 1.21l-3.423 3.29c-.152.153-.355.238-.566.238h-.033c-.223-.01-.433-.114-.58-.288l-1.94-1.662c-.3-.352-.268-.893.07-1.206.339-.311.857-.28 1.156.073L8.76 26.05l2.855-2.812c.325-.326.844-.316 1.158.024zM26 25c.552 0 1 .448 1 1s-.448 1-1 1H16c-.552 0-1-.448-1-1s.448-1 1-1zM12.772 32.262c.313.341.303.882-.024 1.21l-3.423 3.29c-.152.153-.355.238-.566.238h-.033c-.223-.01-.433-.114-.58-.288l-1.94-1.662c-.3-.352-.268-.893.07-1.206.339-.311.857-.28 1.156.073L8.76 35.05l2.855-2.812c.325-.326.844-.316 1.158.024zM26 34c.552 0 1 .448 1 1s-.448 1-1 1H16c-.552 0-1-.448-1-1s.448-1 1-1zM16.5 0c1.776 0 3.266 1.183 3.214 3C22.336 3.138 24 4.965 24 7v1c0 .608-.412 1-1.071 1H10.07C9.411 9 9 8.608 9 8V7c0-2.035 1.663-3.862 4.286-4-.052-1.817 1.438-3 3.214-3zM15 3v2.012l-1.61-.015c-1.419.075-2.31.89-2.385 1.869L11 7h11c0-.991-.83-1.847-2.2-1.988l-.19-.015L18 5V3c-.371-.828-1.344-1.2-2.172-.828-.368.165-.663.46-.828.828z" transform="translate(-123 -378) translate(95 363) translate(13) translate(15 15) translate(21 13)"/>
                        </g>
                    </g>
                </g>
            </g>
        </g>
    </g>
</svg>
