<?xml version="1.0" encoding="UTF-8"?>
<svg width="40px" height="40px" viewBox="0 0 40 40" version="1.1" xmlns="http://www.w3.org/2000/svg" xmlns:xlink="http://www.w3.org/1999/xlink">
    <title>1BE84DBD-F4D3-4183-BDB7-645C55D561B8</title>
    <g id="👨-Личный-кабинет" stroke="none" stroke-width="1" fill="none" fill-rule="evenodd">
        <g id="05.0.1-Personal-profile-Goods-Empty" transform="translate(-259.000000, -144.000000)" fill="#B4B4B4">
            <g id="menu" transform="translate(-12.000000, 132.000000)">
                <g id="profile-menu-item2-/-default" transform="translate(249.000000, 0.000000)">
                    <g id="icons-/-checklist" transform="translate(22.000000, 12.000000)">
                        <g id="Group" transform="translate(10.000000, 7.000000)">
                            <path d="M13,0 C14.0543618,0 14.9181651,0.815877791 14.9945143,1.85073766 L15,2 L16.625,2 C18.4331631,2 19.8992942,3.44696596 19.9950272,5.25605051 L20,5.44444444 L20,22.5555556 C20,24.3883238 18.594141,25.8963821 16.8107891,25.9948829 L16.625,26 L3.375,26 C1.56683687,26 0.100705791,24.553034 0.00497278957,22.7439495 L0,22.5555556 L0,5.44444444 C0,3.61167615 1.40585897,2.10361792 3.1892109,2.00511711 L3.375,2 L5,2 C5,0.945638205 5.81587779,0.0818348781 6.85073766,0.00548573643 L7,0 L13,0 Z M5,4 L3.375,4 C2.66644567,4 2.07364759,4.56723299 2.00635838,5.30434265 L2,5.44444444 L2,22.5555556 C2,23.3123476 2.55111841,23.9240978 3.24360262,23.9934497 L3.375,24 L16.625,24 C17.3335543,24 17.9263524,23.432767 17.9936416,22.6956573 L18,22.5555556 L18,5.44444444 C18,4.68765237 17.4488816,4.0759022 16.7563974,4.00655025 L16.625,4 L15,4 C15,5.0543618 14.1841222,5.91816512 13.1492623,5.99451426 L13,6 L7,6 C5.9456382,6 5.08183488,5.18412221 5.00548574,4.14926234 L5,4 Z M10,18 C10.5522847,18 11,18.4477153 11,19 C11,19.5522847 10.5522847,20 10,20 C9.44771525,20 9,19.5522847 9,19 C9,18.4477153 9.44771525,18 10,18 Z M10,9 C10.5522847,9 11,9.44771525 11,10 L11,16 C11,16.5522847 10.5522847,17 10,17 C9.44771525,17 9,16.5522847 9,16 L9,10 C9,9.44771525 9.44771525,9 10,9 Z M13,2 L7,2 L7,4 L13,4 L13,2 Z" id="Combined-Shape"></path>
                        </g>
                    </g>
                </g>
            </g>
        </g>
    </g>
</svg>