<svg width="38" height="38" viewBox="0 0 38 38" fill="none" xmlns="http://www.w3.org/2000/svg">
    <path fill-rule="evenodd" clip-rule="evenodd" d="M19 1.817c9.876 0 17.882 8.1 17.882 18.091C36.882 29.9 28.876 38 19 38 9.124 38 1.117 29.9 1.117 19.909 1.117 9.916 9.124 1.817 19 1.817z" fill="#587CB9"/>
    <path fill-rule="evenodd" clip-rule="evenodd" d="M19 0c9.876 0 17.882 8.1 17.882 18.092 0 9.992-8.006 18.092-17.882 18.092-9.876 0-17.883-8.1-17.883-18.092C1.117 8.1 9.124 0 19 0z" fill="#93B7F4"/>
    <mask id="a" style="mask-type:alpha" maskUnits="userSpaceOnUse" x="1" y="0" width="36" height="37">
        <path fill-rule="evenodd" clip-rule="evenodd" d="M19 0c9.876 0 17.882 8.1 17.882 18.092 0 9.992-8.006 18.092-17.882 18.092-9.876 0-17.883-8.1-17.883-18.092C1.117 8.1 9.124 0 19 0z" fill="#A8C2EC"/>
    </mask>
    <g mask="url(#a)">
        <path fill-rule="evenodd" clip-rule="evenodd" d="M28.945 2.235a18.766 18.766 0 0 1 5.032 4.401L7.753 32.861a18.76 18.76 0 0 1-4.401-5.033L28.945 2.235zm5.604 5.156c.443.616.848 1.26 1.214 1.93L10.437 34.647a18.626 18.626 0 0 1-1.93-1.215L34.55 7.39z" fill="#fff" fill-opacity=".5"/>
    </g>
    <path fill-rule="evenodd" clip-rule="evenodd" d="M19 3.838c7.78 0 14.089 6.382 14.089 14.254s-6.308 14.254-14.09 14.254c-7.78 0-14.089-6.382-14.089-14.254S11.218 3.838 19 3.838z" fill="#7396D1"/>
    <path fill-rule="evenodd" clip-rule="evenodd" d="M19 3.836c7.78 0 14.089 6.382 14.089 14.255 0 .157-.003.313-.009.47C32.835 10.905 26.625 4.776 19 4.776c-7.626 0-13.836 6.13-14.081 13.785a14.956 14.956 0 0 1-.009-.47c0-7.873 6.308-14.255 14.09-14.255z" fill="#587CB9"/>
    <path d="M12.124 22.454h1.98l3.124-7.755h-2.343l-1.749 4.873-1.749-4.873H9l3.124 7.755zM18.017 22.4h2.145v-7.7h-2.145v7.7zM21.572 22.4h2.134v-2.2h1.056c1.914 0 3.311-.958 3.311-2.773 0-1.727-1.254-2.728-3.2-2.728h-3.3v7.7zm2.134-3.873v-2.035h1.001c.77 0 1.232.352 1.232 1.012 0 .627-.462 1.023-1.22 1.023h-1.013z" fill="#587CB9"/>
    <path d="M12.19 21.755h1.98L17.294 14h-2.343l-1.749 4.873L11.453 14H9.066l3.124 7.755zM18.084 21.7h2.145V14h-2.145v7.7zM21.639 21.7h2.134v-2.2h1.055c1.915 0 3.312-.957 3.312-2.772 0-1.727-1.255-2.728-3.201-2.728h-3.3v7.7zm2.134-3.872v-2.035h1c.77 0 1.233.352 1.233 1.012 0 .627-.462 1.023-1.221 1.023h-1.012z" fill="#fff"/>
</svg>
