<svg width="58" height="58" viewBox="0 0 58 58" fill="none" xmlns="http://www.w3.org/2000/svg">
    <path d="M43 18c1.122 0 2 .878 2 2v18c0 1.122-.878 2-2 2H15c-1.122 0-2-.878-2-2v-5a1 1 0 0 1 1-1c1.654 0 3-1.346 3-3s-1.346-3-3-3a1 1 0 0 1-1-1v-5c0-1.102.898-2 2-2h28zm0 2H15v4.1c2.28.466 4 2.484 4 4.9a5.009 5.009 0 0 1-4 4.9V38h28V20zm-7 10c1.654 0 3 1.346 3 3s-1.346 3-3 3-3-1.346-3-3 1.346-3 3-3zm2.64-7.768c.424.354.48.984.126 1.41l-10 12a1 1 0 0 1-1.534-1.282l10-12a1.005 1.005 0 0 1 1.408-.128zM23 34v2h-2v-2h2zm13-2c-.55 0-1 .45-1 1s.45 1 1 1 1-.45 1-1-.45-1-1-1zm-13-2v2h-2v-2h2zm7-8c1.654 0 3 1.346 3 3s-1.346 3-3 3-3-1.346-3-3 1.346-3 3-3zm-7 4v2h-2v-2h2zm7-2c-.55 0-1 .448-1 1s.45 1 1 1 1-.448 1-1-.45-1-1-1zm-7-2v2h-2v-2h2z" fill="#83C150"/>
</svg>
