<svg width="38" height="38" viewBox="0 0 38 38" fill="none" xmlns="http://www.w3.org/2000/svg">
    <path fill-rule="evenodd" clip-rule="evenodd" d="M19 1.817c9.876 0 17.882 8.1 17.882 18.091C36.882 29.9 28.876 38 19 38 9.124 38 1.117 29.9 1.117 19.909 1.117 9.916 9.124 1.817 19 1.817z" fill="#898989"/>
    <path fill-rule="evenodd" clip-rule="evenodd" d="M19 0c9.876 0 17.882 8.1 17.882 18.092 0 9.992-8.006 18.092-17.882 18.092-9.876 0-17.883-8.1-17.883-18.092C1.117 8.1 9.124 0 19 0z" fill="#CECBCC"/>
    <mask id="a" style="mask-type:alpha" maskUnits="userSpaceOnUse" x="1" y="0" width="36" height="37">
        <path fill-rule="evenodd" clip-rule="evenodd" d="M19 0c9.876 0 17.882 8.1 17.882 18.092 0 9.992-8.006 18.092-17.882 18.092-9.876 0-17.883-8.1-17.883-18.092C1.117 8.1 9.124 0 19 0z" fill="#CECBCC"/>
    </mask>
    <g mask="url(#a)">
        <path fill-rule="evenodd" clip-rule="evenodd" d="M28.945 2.235a18.766 18.766 0 0 1 5.032 4.401L7.753 32.861a18.76 18.76 0 0 1-4.401-5.033L28.945 2.235zm5.604 5.156c.443.616.848 1.26 1.214 1.93L10.437 34.647a18.626 18.626 0 0 1-1.93-1.215L34.55 7.39z" fill="#EBEBEB"/>
    </g>
    <path fill-rule="evenodd" clip-rule="evenodd" d="M19 3.838c7.78 0 14.089 6.382 14.089 14.254s-6.308 14.254-14.09 14.254c-7.78 0-14.089-6.382-14.089-14.254S11.218 3.838 19 3.838z" fill="#B3AEB2"/>
    <path fill-rule="evenodd" clip-rule="evenodd" d="M19 3.836c7.78 0 14.089 6.382 14.089 14.255 0 .157-.003.313-.009.47C32.835 10.905 26.625 4.776 19 4.776c-7.626 0-13.836 6.13-14.081 13.785a14.956 14.956 0 0 1-.009-.47c0-7.873 6.308-14.255 14.09-14.255z" fill="#898989"/>
    <path d="M10.059 23.471h6.552v-2.09h-4.167v-6.516h-2.385v8.606zM17.634 23.471h2.336v-4.918l2.189 3.345h.049l2.2-3.37v4.943h2.373v-8.606h-2.52l-2.053 3.332-2.053-3.332h-2.52v8.606z" fill="#898989"/>
    <path d="M10.414 23.135h6.553v-2.09h-4.168V14.53h-2.385v8.606zM17.99 23.135h2.336v-4.918l2.188 3.345h.05l2.2-3.37v4.943h2.373V14.53h-2.52l-2.054 3.332-2.053-3.332h-2.52v8.606z" fill="#fff"/>
</svg>
