<svg xmlns="http://www.w3.org/2000/svg" width="40" height="40" viewBox="0 0 40 40">
    <g fill="none" fill-rule="evenodd">
        <g fill="#B4B4B4">
            <g>
                <g>
                    <g>
                        <path d="M20 8c6.627 0 12 5.373 12 12s-5.373 12-12 12c-2.62 0-5.043-.84-7.017-2.264l-3.452 2.108c-.471.287-1.086.139-1.374-.333-.196-.32-.196-.722 0-1.042l2.108-3.451C8.84 25.044 8 22.62 8 20c0-6.627 5.373-12 12-12zm0 2c-5.523 0-10 4.477-10 10 0 2.006.59 3.918 1.677 5.545l.21.302.68.941-.54 1.184 1.186-.537.941.68C15.844 29.334 17.869 30 20 30c5.523 0 10-4.477 10-10s-4.477-10-10-10zm-4.853 5.9c1.363-1.25 3.464-1.198 4.764.153l.09.094.078-.08.143-.142c.635-.59 1.463-.92 2.325-.92.925 0 1.81.38 2.457 1.05.639.661.996 1.553.996 2.506l-.005.159c-.044.862-.396 1.68-.973 2.276l-3.546 3.873c-.04.044-.081.086-.125.125-.814.746-2.08.69-2.825-.125l-3.64-3.976c-1.222-1.403-1.176-3.52.112-4.848zm3.324 1.541c-.564-.586-1.47-.588-2.037-.004-.562.58-.582 1.52-.056 2.124l3.623 3.957 3.565-3.892c.22-.229.366-.526.415-.83l.016-.153.003-.108c0-.41-.157-.804-.435-1.09-.272-.283-.638-.44-1.018-.44-.353 0-.696.136-.939.362l-.105.104-1.502 1.555z" transform="translate(-187 -144) translate(-1 132) translate(166) translate(22 12)"/>
                    </g>
                </g>
            </g>
        </g>
    </g>
</svg>
