<?xml version="1.0" encoding="UTF-8"?>
<svg width="25px" height="24px" viewBox="0 0 25 24" version="1.1" xmlns="http://www.w3.org/2000/svg" xmlns:xlink="http://www.w3.org/1999/xlink">
    <!-- Generator: Sketch 63.1 (92452) - https://sketch.com -->
    <title>Combined Shape</title>
    <desc>Created with Sketch.</desc>
    <defs>
        <path d="M16.9996184,25.9993915 C18.6564094,25.9993915 19.9995039,27.342486 19.9995039,28.9992771 C19.9995039,30.6560681 18.6564094,31.9991626 16.9996184,31.9991626 C15.3428274,31.9991626 13.9997329,30.6560681 13.9997329,28.9992771 C13.9997329,27.342486 15.3428274,25.9993915 16.9996184,25.9993915 Z M25.9993131,25.9993915 C27.6561041,25.9993915 28.9991986,27.342486 28.9991986,28.9992771 C28.9991986,30.6560681 27.6561041,31.9991626 25.9993131,31.9991626 C24.3425221,31.9991626 22.9994276,30.6560681 22.9994276,28.9992771 C22.9994276,27.342486 24.3425221,25.9993915 25.9993131,25.9993915 Z M16.9996184,27.9993152 C16.4473547,27.9993152 15.9996566,28.4470134 15.9996566,28.9992771 C15.9996566,29.5515407 16.4473547,29.9992389 16.9996184,29.9992389 C17.5518821,29.9992389 17.9995802,29.5515407 17.9995802,28.9992771 C17.9995802,28.4470134 17.5518821,27.9993152 16.9996184,27.9993152 Z M25.9993131,27.9993152 C25.4470494,27.9993152 24.9993513,28.4470134 24.9993513,28.9992771 C24.9993513,29.5515407 25.4470494,29.9992389 25.9993131,29.9992389 C26.5515768,29.9992389 26.999275,29.5515407 26.999275,28.9992771 C26.999275,28.4470134 26.5515768,27.9993152 25.9993131,27.9993152 Z M8.99992368,8 C10.6211641,7.98973217 12.0723204,9.00393809 12.6197855,10.5299819 L12.6197855,10.5299819 L13.499752,12.9998876 L30.9991223,12.9998876 C31.3204855,12.9995957 31.6224064,13.1537719 31.8105978,13.4142683 C31.9987891,13.6747647 32.0503156,14.0098343 31.9490861,14.3148374 L31.9490861,14.3148374 L29.4041832,21.9495461 C28.9955229,23.173639 27.8497981,23.9992052 26.5592918,23.9994679 L26.5592918,23.9994679 L17.4096028,23.9994679 C16.1395602,23.9980167 15.0080575,23.1969528 14.5847106,21.9995442 L14.5847106,21.9995442 L10.7048586,11.2049561 C10.4475621,10.4839187 9.76549082,10.0018683 8.99992368,10 L8.99992368,10 L7.99996184,10 C7.44769817,10 7,9.55230394 7,9.00004027 C7,8.44777659 7.44769817,8 7.99996184,8 L7.99996184,8 Z M29.6141752,14.9998113 L14.2047251,14.9998113 L16.4696386,21.3345696 C16.6111097,21.7324733 16.9872989,21.9986071 17.4096028,21.9995442 L17.4096028,21.9995442 L26.5592918,21.9995442 C26.9868307,21.9956511 27.3645932,21.7203667 27.4992559,21.3145703 L27.4992559,21.3145703 L29.6141752,14.9998113 Z" id="path-1"></path>
    </defs>
    <g id="Symbols" stroke="none" stroke-width="1" fill="none" fill-rule="evenodd">
        <g id="icons-/-cart" transform="translate(-7.000000, -8.000000)">
            <mask id="mask-2" fill="white">
                <use xlink:href="#path-1"></use>
            </mask>
            <use id="Combined-Shape" fill="#7F7F7F" fill-rule="nonzero" xlink:href="#path-1"></use>
        </g>
    </g>
</svg>