<svg xmlns="http://www.w3.org/2000/svg" width="75" height="75" viewBox="0 0 75 75">
    <g fill="none" fill-rule="evenodd">
        <path fill="#000" d="M16.616 33.912c1.415 0 2.567 1.15 2.567 2.565s-1.152 2.567-2.567 2.567c-1.415 0-2.566-1.152-2.566-2.567 0-1.415 1.151-2.565 2.566-2.565zm17.527 0c1.415 0 2.566 1.15 2.566 2.565s-1.151 2.567-2.566 2.567c-1.416 0-2.567-1.152-2.567-2.567 0-1.415 1.151-2.565 2.567-2.565zM16.616 35.7c-.429 0-.778.348-.778.777 0 .43.35.779.778.779.43 0 .779-.35.779-.779 0-.429-.35-.777-.779-.777zm17.527 0c-.43 0-.779.348-.779.777 0 .43.35.779.779.779.429 0 .778-.35.778-.779 0-.429-.35-.777-.778-.777zM1.04 2.01l6.293 1.05c.36.06.648.333.727.69l.982 4.484 22.123 1.844c.493.04.858.473.817.965-.039.466-.43.82-.89.82-.024 0-.05-.001-.074-.003L9.442 10.062l3.771 17.207h23.314l1.367-7.971c.083-.487.545-.815 1.03-.73.488.083.815.545.731 1.032l-1.495 8.715c-.073.429-.445.742-.88.742H13.605l.456 2.083H36.69c.493 0 .894.4.894.894 0 .493-.4.894-.894.894H13.34c-.42 0-.783-.292-.873-.702l-.825-3.761c-.025-.071-.042-.146-.049-.224L6.442 4.724l-5.695-.95c-.486-.08-.816-.541-.735-1.028.081-.487.543-.81 1.028-.735z" transform="translate(12 18)"/>
        <path fill="#F30000" d="M41.5 0C46.188 0 50 3.813 50 8.5c0 4.687-3.813 8.5-8.5 8.5-4.686 0-8.5-3.813-8.5-8.5C33 3.814 36.814 0 41.5 0zm0 1.81c-3.687 0-6.69 3.002-6.69 6.69 0 3.688 3.003 6.69 6.69 6.69 3.688 0 6.69-3.002 6.69-6.69 0-3.688-3.002-6.69-6.69-6.69zm3.172 3.518c.437.438.437 1.148 0 1.586L43.086 8.5l1.586 1.586c.437.438.437 1.148 0 1.586-.438.437-1.148.437-1.586 0L41.5 10.086l-1.586 1.586c-.438.437-1.148.437-1.586 0-.437-.438-.437-1.148 0-1.586L39.914 8.5l-1.586-1.586c-.437-.438-.437-1.148 0-1.586.438-.437 1.148-.437 1.586 0L41.5 6.914l1.586-1.586c.438-.437 1.148-.437 1.586 0z" transform="translate(12 18)"/>
    </g>
</svg>
