<svg xmlns="http://www.w3.org/2000/svg" width="75" height="75" viewBox="0 0 75 75">
    <g fill="none" fill-rule="evenodd">
        <path fill="#000" d="M22.5 2C11.196 2 2 11.197 2 22.5 2 33.805 11.196 43 22.5 43S43 33.804 43 22.5C43 11.198 33.804 2 22.5 2m0 43C10.094 45 0 34.907 0 22.5S10.094 0 22.5 0C34.907 0 45 10.093 45 22.5S34.907 45 22.5 45" transform="translate(15 15)"/>
        <path fill="#83C150" fill-rule="nonzero" d="M31.29 17.755c.392.417.372 1.072-.045 1.465L20.274 29.54l-5.52-5.191c-.416-.392-.436-1.048-.044-1.465.392-.417 1.048-.437 1.465-.045l4.098 3.854 9.552-8.983c.417-.392 1.073-.372 1.465.045z" transform="translate(15 15)"/>
    </g>
</svg>
