<?xml version="1.0" encoding="UTF-8"?>
<svg width="30px" height="22px" viewBox="0 0 30 22" version="1.1" xmlns="http://www.w3.org/2000/svg" xmlns:xlink="http://www.w3.org/1999/xlink">
    <!-- Generator: Sketch 62 (91390) - https://sketch.com -->
    <title>category-icon2</title>
    <desc>Created with Sketch.</desc>
    <g id="Page-1" stroke="none" stroke-width="1" fill="none" fill-rule="evenodd">
        <g id="category-icon2" fill="#7F7F7F" fill-rule="nonzero">
            <path d="M2,0 L2,11 L7,11 L7,7 L5,7 C4.38,7 4,6.623 4,6 L4,3 C4,2.377 4.38,2 5,2 L25,2 C25.62,2 26,2.377 26,3 L26,6 C26,6.623 25.62,7 25,7 L23,7 L23,11 L28,11 L28,0 L30,0 L30,22 L28,22 L28,13 L23,13 L23,22 L21,22 L21,13 L19,13 L19,22 L17,22 L17,12 C17,11.376 17.376,11 18,11 L21,11 L21,9 L9,9 L9,11 L12,11 C12.571,11 12.944,11.67 12.994,11.944 L13,12 L13,22 L11,22 L11,13 L9,13 L9,22 L7,22 L7,13 L2,13 L2,22 L0,22 L0,0 L2,0 Z M21,7 L9,7 L9,8 L21,8 L21,7 Z M24,4 L6,4 L6,5 L24,5 L24,4 Z" id="Shape"></path>
        </g>
    </g>
</svg>