<svg xmlns="http://www.w3.org/2000/svg" width="40" height="40" viewBox="0 0 40 40">
    <path fill="#7F7F7F" d="M30 8H10c-3.86 0-5 1.14-5 5 0 .552.448 1 1 1h10l1 10c-.805.628-1.472 1.628-2 3-2.756 0-4 1.244-4 4 0 .552.448 1 1 1h16c.552 0 1-.448 1-1 0-2.756-1.244-4-4-4-.528-1.372-1.195-2.372-2-3l1-10h10c.552 0 1-.448 1-1 0-3.86-1.14-5-5-5zm-5 21c1.454 0 1.58-.164 2 1H13c.42-1.164.546-1 2-1h10zm-5-4c1.102 0 2.102.667 3 2h-6c.897-1.333 1.897-2 3-2zm-2-11h4l-1 9c-.231-.08-.61-.127-1 0-.391-.127-.768-.078-1 0l-1-9zM7 12c.468-2.28.496-2 3-2h20c2.504 0 2.534-.28 3 2H7z"/>
</svg>
