<?xml version="1.0" encoding="UTF-8"?>
<svg width="30px" height="22px" viewBox="0 0 30 22" version="1.1" xmlns="http://www.w3.org/2000/svg" xmlns:xlink="http://www.w3.org/1999/xlink">
    <!-- Generator: Sketch 62 (91390) - https://sketch.com -->
    <title>category-icon1</title>
    <desc>Created with Sketch.</desc>
    <g id="Page-1" stroke="none" stroke-width="1" fill="none" fill-rule="evenodd">
        <g id="category-icon1" fill="#7F7F7F" fill-rule="nonzero">
            <path d="M29.176,0 C29.632,0 30,0.363 30,0.81 L30,4.19 C30,4.637 29.632,5 29.176,5 L27,5 L27,22 L22,22 L22,8.973 L8,8.972 L8,22 L3,22 L3,5 L0.824,5 C0.368,5 0,4.637 0,4.19 L0,0.81 C0,0.363 0.368,0 0.824,0 L29.176,0 Z M6,5 L5,5 L5,20 L6,20 L6,5 Z M25,5 L24,5 L24,20 L25,20 L25,5 Z M22,5 L8,5 L8,8.027 L22,8.027 L22,5 Z M28,2 L2,2 L2,3 L28,3 L28,2 Z" id="Shape"></path>
        </g>
    </g>
</svg>