<svg xmlns="http://www.w3.org/2000/svg" width="40" height="40" viewBox="0 0 40 40">
    <path fill="#7F7F7F" d="M22 7c.611 0 .99.379 1 .998v5.989c-.01.554-.389.971-1 .998h-3v1.997h15c.62-.032 1 .376 1 .998v2.995c0 .548-.38.956-1 .998h-1v9.98c0 .543-.379.92-1 .998h-8c-.549.24-.962-.455-1-.998v-9.98H9v10.978H7V21.973H6c-.62-.042-1-.45-1-.998V17.98c0-.622.38-1.03 1-.998h8v-1.997h-3c-.616-.027-.996-.444-1-.998V7.998c.004-.62.384-.998 1-.998h11zm9 20h-6v4h6v-4zm-2 1v1h-2v-1h2zm2-6h-6v4h6v-4zm-2 1v1h-2v-1h2zm4-4H7v1h26v-1zm-16-4h-1v2h1v-2zm4-6h-9v4h9V9z"/>
</svg>
