<?xml version="1.0" encoding="UTF-8"?>
<svg width="8px" height="8px" viewBox="0 0 8 8" version="1.1" xmlns="http://www.w3.org/2000/svg" xmlns:xlink="http://www.w3.org/1999/xlink">
    <!-- Generator: Sketch 62 (91390) - https://sketch.com -->
    <title>Path</title>
    <desc>Created with Sketch.</desc>
    <g id="Page-1" stroke="none" stroke-width="1" fill="none" fill-rule="evenodd">
        <g id="icon" fill="#FFFFFF" fill-rule="nonzero">
            <path d="M1.752,0.715 C1.466,0.428 1.002,0.428 0.715,0.715 C0.428,1.001 0.428,1.465 0.715,1.752 L2.962,4 L0.715,6.248 C0.455,6.508 0.431,6.916 0.644,7.203 L0.714,7.285 C1.001,7.572 1.466,7.572 1.752,7.285 L4,5.038 L6.248,7.285 C6.508,7.545 6.916,7.569 7.203,7.356 L7.285,7.286 C7.572,6.999 7.572,6.534 7.285,6.248 L5.038,4 L7.285,1.752 C7.545,1.492 7.569,1.084 7.356,0.797 L7.286,0.715 C6.999,0.428 6.534,0.428 6.248,0.715 L4,2.962 L1.752,0.715 Z" id="Path"></path>
        </g>
    </g>
</svg>