<svg xmlns="http://www.w3.org/2000/svg" width="75" height="75" viewBox="0 0 75 75">
    <path fill-rule="evenodd" d="M37.476 24c3.59 0 6.512 2.975 6.512 6.631 0 2.708-1.604 5.043-3.895 6.071 3.51.668 8.661 2.773 8.661 7.31v6.84c0 .398-.263.746-.642.846-3.33.886-6.983 1.329-10.636 1.329-3.654 0-7.307-.443-10.636-1.33-.378-.1-.643-.447-.643-.845v-6.84c0-4.538 5.152-6.642 8.662-7.31-2.292-1.028-3.895-3.362-3.895-6.071 0-3.656 2.921-6.631 6.512-6.631zm.361 14.204h-.723c-2.618 0-9.198 1.728-9.198 5.809v6.156c6.038 1.482 13.082 1.482 19.12 0v-6.156c0-4.081-6.58-5.81-9.199-5.81zM53.8 25.172c2.97 0 5.385 2.459 5.385 5.482 0 1.95-1.005 3.666-2.515 4.638C59.48 35.96 63 37.682 63 41.17v5.674c0 .4-.263.746-.642.847-2.68.713-5.619 1.07-8.558 1.07-1.15 0-2.295-.072-3.43-.18v-1.748c3.652.371 7.48.152 10.911-.673v-4.99c0-3.145-5.146-4.476-7.192-4.476h-.579c-1.4 0-4.244.623-5.907 2.021-.414-.414-.827-.828-1.238-1.245 1.272-1.12 3.027-1.807 4.57-2.176-1.514-.97-2.52-2.687-2.52-4.64 0-3.022 2.416-5.481 5.384-5.481zm-32.598 0c2.969 0 5.385 2.459 5.385 5.482 0 1.952-1.007 3.67-2.52 4.641 1.506.36 3.217 1.025 4.48 2.1-.407.421-.82.838-1.232 1.255-1.673-1.352-4.447-1.957-5.824-1.957h-.579c-2.046 0-7.192 1.331-7.192 4.476v4.99c3.333.802 7.04 1.026 10.595.7v1.75c-1.03.09-2.07.15-3.113.15-2.94 0-5.88-.356-8.559-1.069-.379-.1-.642-.448-.642-.847V41.17c0-3.486 3.519-5.209 6.332-5.878-1.511-.971-2.516-2.687-2.516-4.637 0-3.023 2.416-5.482 5.385-5.482zm16.275.578c-2.643 0-4.793 2.189-4.793 4.881 0 2.691 2.15 4.881 4.793 4.881 2.642 0 4.793-2.19 4.793-4.881 0-2.692-2.15-4.881-4.793-4.881zm16.323 1.172c-2.02 0-3.666 1.675-3.666 3.732 0 2.059 1.645 3.734 3.666 3.734s3.666-1.675 3.666-3.734c0-2.057-1.645-3.732-3.666-3.732zm-32.598 0c-2.021 0-3.666 1.675-3.666 3.732 0 2.059 1.645 3.734 3.666 3.734 2.022 0 3.666-1.675 3.666-3.734 0-2.057-1.644-3.732-3.666-3.732z"/>
</svg>
