<?xml version="1.0" encoding="UTF-8"?>
<svg width="40px" height="41px" viewBox="0 0 40 41" version="1.1" xmlns="http://www.w3.org/2000/svg" xmlns:xlink="http://www.w3.org/1999/xlink">
    <!-- Generator: Sketch 62 (91390) - https://sketch.com -->
    <title>Combined Shape</title>
    <desc>Created with Sketch.</desc>
    <g id="Symbols" stroke="none" stroke-width="1" fill="none" fill-rule="evenodd">
        <g id="icons-/-world" transform="translate(-17.000000, -17.000000)" fill="#000000">
            <g id="Group-16" transform="translate(17.000000, 17.000000)">
                <path d="M20.5128205,0 C31.0281858,0 40,9.19590676 40,20.5 C40,31.803189 31.0281858,41 20.5128205,41 L20.4240767,40.9999336 C20.4217238,40.9999779 20.4193702,41 20.4170162,41 L20.408,40.999 L20.1603337,40.9971347 C20.0017965,40.9945547 19.8437609,40.990237 19.686244,40.9842001 C19.652997,40.9950314 19.6180273,41 19.5829779,41 C19.5373709,41 19.4919343,40.991691 19.4484397,40.9748983 C8.42480769,40.4284383 0,31.4531958 0,20.5 C0,9.5446021 8.42684723,0.569334983 19.4523323,0.0260424084 C19.5299577,-0.00530868842 19.6122481,-0.00726950198 19.6891375,0.015560427 C19.9622439,0.00526015039 20.2367974,0 20.5128205,0 Z M13.0782478,28.5529731 L12.5366493,28.6538772 C13.8724441,32.3021134 15.9687886,35.8103643 18.735288,38.9545 C18.8242642,38.9611675 18.9123297,38.9668167 19.0005626,38.9718083 L19.0004916,27.9392946 C17.0299931,27.9945675 15.0552416,28.1991226 13.0782478,28.5529731 Z M21.0002562,27.9344859 L21.0004401,38.9717516 C21.0883374,38.9667739 21.1760688,38.9611437 21.2636296,38.9548653 C24.0377178,35.8034041 26.1374124,32.2859179 27.4727397,28.6282336 C25.3230177,28.2159299 23.1646225,27.9848748 21.0002562,27.9344859 Z M11.6981774,28.8257939 L11.3912152,28.8910527 C9.30242492,29.354362 7.211772,29.9841456 5.12162393,30.7804189 C7.91129718,35.0873291 12.3416403,38.0671201 17.4573752,38.8157014 C14.9053484,35.7387259 12.9608361,32.3461194 11.6981774,28.8257939 Z M28.3123285,28.7977003 L28.1620958,29.2084353 C26.897601,32.5920413 25.0022193,35.8507191 22.543373,38.8161608 C27.6599509,38.0668873 32.0914587,35.0854753 34.8814947,30.7768017 L35.3590896,30.9658908 C33.0234163,30.0248179 30.67331,29.3020801 28.3123285,28.7977003 Z M4.63079398,29.9811698 L4.29327144,30.1103941 C6.66125165,29.1794352 9.03031075,28.4574418 11.3971004,27.9444348 C10.7621491,25.987424 10.3372927,23.9952602 10.1355882,22.0005516 L2.09538593,22.000768 C2.37643377,24.9255922 3.26806976,27.6297778 4.63079398,29.9811698 Z M37.9046141,22.000768 L29.8646489,22.0003668 C29.6639944,23.9859974 29.2421208,25.9691836 28.6115961,27.9185523 C30.8753257,28.4076838 33.1292059,29.0940866 35.370244,29.9768283 C36.7326883,27.6274782 37.6236857,24.9243486 37.9046141,22.000768 Z M19,22 L10.9748149,22.0002765 C11.1784653,23.9363978 11.6009619,25.8709537 12.2297187,27.7727376 C14.4901059,27.3293332 16.7479726,27.0768178 19.0004917,27.0150188 L19,22 Z M29.0250577,22.0003499 L21,22 L21.0008665,27.010308 C23.2675448,27.0619064 25.5279134,27.3072206 27.7789847,27.7462689 C28.4027647,25.8535466 28.8223379,23.9277105 29.0250577,22.0003499 Z M35.0043801,10.1650505 L34.3651115,10.4056746 C32.5578897,11.0689807 30.7424242,11.6051622 28.9204752,12.0141398 C29.4820416,13.8497213 29.8302675,15.7749826 29.9520678,17.7633028 C29.997651,18.5066794 30.010565,19.252882 29.9914817,20.0002331 L38,20 L38,20 C38,16.4139384 36.8966703,13.0195131 35.0043801,10.1650505 Z M4.99986193,10.1604689 L4.94996084,10.2342638 C3.08559342,13.0743128 2,16.4428785 2,20 L10.008589,20.0003739 C9.98942276,19.2526738 10.0022667,18.5061094 10.0477917,17.7623572 C10.1701679,15.7649293 10.5211132,13.8310811 11.0869408,11.9868167 C9.05929674,11.5316111 7.02948022,10.922786 4.99986193,10.1604689 Z M11.9178776,12.1648207 C11.3501461,13.9728947 10.9998651,15.8691158 10.8799109,17.8285479 C10.8356396,18.5501672 10.823488,19.2747318 10.8427902,20.0005904 L19,20 L19.0005329,12.9849727 C16.6442077,12.9203048 14.2823417,12.6469208 11.9178776,12.1648207 Z M28.0908863,12.1905299 L27.6003696,12.287995 C25.4081917,12.7055117 23.2072719,12.9394579 21.000661,12.9896964 L21,20 L29.1570805,20.0006124 C29.1763824,19.2747399 29.164231,18.5501672 29.1199603,17.8285479 C29.0005363,15.8777492 28.6528829,13.9896058 28.0908863,12.1905299 Z M21.0001976,2.02819607 L21.0002808,12.0656295 C23.272936,12.0127283 25.5390055,11.7606716 27.79537,11.3094795 C26.5387425,7.7918472 24.4439049,4.64446301 21.6201856,2.0737207 C21.4137643,2.05522697 21.2074425,2.03990544 21.0001976,2.02819607 Z M18.688135,2.0485724 L18.3799833,2.0737207 C15.5637799,4.63786694 13.4722664,7.77569976 12.2141527,11.2813342 C14.4800428,11.7383232 16.7430264,11.9975112 19.000432,12.0608214 L19.0008068,2.02813935 C18.8963458,2.03403544 18.7921194,2.04084925 18.688135,2.0485724 Z M23.1217472,2.27782933 L23.3470809,2.51017939 C25.7257482,4.99417373 27.5131071,7.91637534 28.6331234,11.1324369 C30.5823732,10.6998797 32.524583,10.1179224 34.4572223,9.38696272 C31.7653036,5.74662439 27.7443686,3.10913484 23.1217472,2.27782933 Z M16.8782027,2.27798165 L16.7686352,2.29790155 C12.1946193,3.15046346 8.21780435,5.77250304 5.54683236,9.37883313 C7.49066099,10.0992656 9.43455644,10.6746268 11.3768647,11.1060707 C12.5316671,7.79978474 14.3933667,4.80468228 16.8782027,2.27798165 Z" id="Combined-Shape"></path>
            </g>
        </g>
    </g>
</svg>