<?xml version="1.0" encoding="UTF-8"?>
<svg width="51px" height="35px" viewBox="0 0 51 35" version="1.1" xmlns="http://www.w3.org/2000/svg" xmlns:xlink="http://www.w3.org/1999/xlink">
    <!-- Generator: Sketch 62 (91390) - https://sketch.com -->
    <title>Group 22</title>
    <desc>Created with Sketch.</desc>
    <g id="Symbols" stroke="none" stroke-width="1" fill="none" fill-rule="evenodd">
        <g id="icons-/-delivery" transform="translate(-12.000000, -21.000000)" fill="#000000">
            <g id="Group-22" transform="translate(12.000000, 21.000000)">
                <path d="M32.129878,0.000200000006 C32.6101853,0.000200000006 33,0.386884106 33,0.86554167 L33,3.9992 L41.0033187,4 C44.5150107,4 45.6558256,6.20254003 46.9751353,8.75295417 L50.891351,16.8663722 C50.9611968,16.9975704 51,17.1446715 51,17.2937604 L51,30.1303147 C51,30.610381 50.6197284,31 50.1511794,31 L44.9724017,30.9999021 C44.7228697,33.2464003 42.8120581,35 40.500522,35 C38.1889859,35 36.2772677,33.2464003 36.0276122,30.9999021 L32.146113,31.0000521 C32.1407132,31.0001506 32.1353013,31.0002 32.129878,31.0002 L15.972287,31.0009052 C15.7222687,33.2469222 13.8114602,35 11.5,35 C9.18853983,35 7.27773135,33.2469222 7.02771304,31.0009052 L0.870122043,31.0002 C0.389814675,31.0002 0,30.6125269 0,30.1348583 L0,0.86554167 C0,0.386884106 0.389814675,0.000200000006 0.870122043,0.000200000006 L32.129878,0.000200000006 Z M40.5004882,28 C39.1228276,28 38,29.1220703 38,30.5 C38,31.8789062 39.1228276,33 40.5004882,33 C41.8771724,33 43,31.8789062 43,30.5 C43,29.1220703 41.8771724,28 40.5004882,28 Z M11.5,28 C10.1210938,28 9,29.1220703 9,30.5 C9,31.8789062 10.1210938,33 11.5,33 C12.8789062,33 14,31.8789062 14,30.5 C14,29.1220703 12.8789062,28 11.5,28 Z M31.259,28.1312 L15.3247124,28.1311424 C15.5425031,28.4814952 15.7135224,28.8638224 15.8289656,29.269337 L31.2597559,29.2695167 L31.259,28.1312 Z M7.67528765,28.1311424 L1.74,28.1312 L1.74024409,29.2695167 L7.17103443,29.269337 C7.28647764,28.8638224 7.45749693,28.4814952 7.67528765,28.1311424 Z M37,5.7392 L33,5.7392 L33,29.2602 L36.1736837,29.2602884 C36.6948891,27.4446488 38.3311115,26.0959506 40.2890754,26.0049063 L40.500522,26 C42.5513722,26 44.2867855,27.3796609 44.8263994,29.2602884 L49.3023588,29.2606295 L49.3023588,17.5213694 L48.5676979,15.996406 C48.5482391,15.9987846 48.5285135,16 48.5086079,16 L37.4917788,16 C37.2203169,16 37,15.7760814 37,15.5001818 L37,5.7392 Z M31.2597559,1.73088334 L1.74024409,1.73088334 L1.74,27.1312 L8.51962276,27.1311945 C9.26471608,26.4712762 10.2294688,26.0541476 11.2885314,26.0049063 L11.5,26 C12.6418748,26 13.6859738,26.4276029 14.4803772,27.1311945 L31.259,27.1312 L31.2597559,1.73088334 Z M39.5501574,17 C39.7984705,17 40,17.224 40,17.5 C40,17.776 39.7984705,18 39.5501574,18 L38.4498426,18 C38.2024291,18 38,17.776 38,17.5 C38,17.224 38.2024291,17 38.4498426,17 L39.5501574,17 Z M42.3924949,6 L38,6 L38,15 L48,15 L44.8447869,8.38481368 C44.1588107,7.15915229 43.5626114,6.38742754 42.6419359,6.01217469 C42.5621224,6.00373233 42.4788382,6 42.3924949,6 Z" id="Combined-Shape"></path>
            </g>
        </g>
    </g>
</svg>