<?xml version="1.0" encoding="UTF-8"?>
<svg width="33px" height="48px" viewBox="0 0 33 48" version="1.1" xmlns="http://www.w3.org/2000/svg" xmlns:xlink="http://www.w3.org/1999/xlink">
    <!-- Generator: Sketch 62 (91390) - https://sketch.com -->
    <title>Group 13</title>
    <desc>Created with Sketch.</desc>
    <g id="Symbols" stroke="none" stroke-width="1" fill="none" fill-rule="evenodd">
        <g id="icons-/-checklist" transform="translate(-21.000000, -13.000000)">
            <g id="Group-13" transform="translate(21.000000, 13.000000)">
                <path d="M23,5 L23,7 L31.1868808,7 L31,46 L2,46 L2,7 L11,7 L11,5 L0.906559606,5 C0.406138704,5 0,5.40652132 0,5.90741366 L0,47.0925863 C0,47.5934787 0.406138704,48 0.906559606,48 L32.0934404,48 C32.5938613,48 33,47.5934787 33,47.0925863 L33,5.90741366 C33,5.40652132 32.5938613,5 32.0934404,5 L23,5 Z" id="Combined-Shape" fill="#000000"></path>
                <path d="M12.7721616,14.2621844 C13.0849195,14.6030664 13.0746191,15.1441801 12.7478151,15.4713878 L9.32526588,18.7616756 C9.17263251,18.9150237 8.97036989,19 8.75874325,19 L8.72596921,19 L8.72596921,19 C8.50310576,18.9902326 8.29335193,18.8857215 8.14540057,18.7118619 L6.20554834,17.050428 C5.90590001,16.6978251 5.93773764,16.1567114 6.27577842,15.8441548 C6.6147556,15.5325749 7.13258537,15.5648073 7.43223371,15.9174103 L8.75874325,17.050428 L11.6138335,14.2377659 C11.9387646,13.9115349 12.4584672,13.922279 12.7721616,14.2621844 Z M26,16 C26.5522847,16 27,16.4477153 27,17 C27,17.5522847 26.5522847,18 26,18 L26,18 L16,18 C15.4477153,18 15,17.5522847 15,17 C15,16.4477153 15.4477153,16 16,16 L16,16 Z" id="Combined-Shape" fill="#83C150" fill-rule="nonzero"></path>
                <path d="M12.7721616,23.2621844 C13.0849195,23.6030664 13.0746191,24.1441801 12.7478151,24.4713878 L9.32526588,27.7616756 C9.17263251,27.9150237 8.97036989,28 8.75874325,28 L8.72596921,28 L8.72596921,28 C8.50310576,27.9902326 8.29335193,27.8857215 8.14540057,27.7118619 L6.20554834,26.050428 C5.90590001,25.6978251 5.93773764,25.1567114 6.27577842,24.8441548 C6.6147556,24.5325749 7.13258537,24.5648073 7.43223371,24.9174103 L8.75874325,26.050428 L11.6138335,23.2377659 C11.9387646,22.9115349 12.4584672,22.922279 12.7721616,23.2621844 Z M26,25 C26.5522847,25 27,25.4477153 27,26 C27,26.5522847 26.5522847,27 26,27 L26,27 L16,27 C15.4477153,27 15,26.5522847 15,26 C15,25.4477153 15.4477153,25 16,25 L16,25 Z" id="Combined-Shape-Copy" fill="#83C150" fill-rule="nonzero"></path>
                <path d="M12.7721616,32.2621844 C13.0849195,32.6030664 13.0746191,33.1441801 12.7478151,33.4713878 L9.32526588,36.7616756 C9.17263251,36.9150237 8.97036989,37 8.75874325,37 L8.72596921,37 L8.72596921,37 C8.50310576,36.9902326 8.29335193,36.8857215 8.14540057,36.7118619 L6.20554834,35.050428 C5.90590001,34.6978251 5.93773764,34.1567114 6.27577842,33.8441548 C6.6147556,33.5325749 7.13258537,33.5648073 7.43223371,33.9174103 L8.75874325,35.050428 L11.6138335,32.2377659 C11.9387646,31.9115349 12.4584672,31.922279 12.7721616,32.2621844 Z M26,34 C26.5522847,34 27,34.4477153 27,35 C27,35.5522847 26.5522847,36 26,36 L26,36 L16,36 C15.4477153,36 15,35.5522847 15,35 C15,34.4477153 15.4477153,34 16,34 L16,34 Z" id="Combined-Shape-Copy-2" fill="#83C150" fill-rule="nonzero"></path>
                <path d="M16.5,0 C18.2755961,0 19.766129,1.18307504 19.7142857,3 C22.3359046,3.13780801 24,4.96510202 24,7 L24,8 C24,8.60764857 23.5876578,9 22.9285714,9 L10.0714286,9 C9.41129032,9 9,8.60764857 9,8 L9,7 C9,4.96510202 10.6630435,3.13780801 13.2857143,3 C13.233871,1.18307504 14.7244039,0 16.5,0 Z M15,3 L15,3 L15,3 L15,5.01195629 L13.3906593,4.99724474 C11.9710422,5.07183839 11.0799192,5.88754706 11.0051139,6.86566759 L11,7 L22,7 C22,6.0087395 21.1700326,5.15276416 19.7995113,5.01195629 L19.6092987,4.99724253 L18,5 L18,3 C17.628894,2.17157288 16.6564802,1.80084086 15.8280531,2.17194688 C15.4597339,2.33694087 15.164994,2.63168073 15,3 Z" id="Fill-11" fill="#000000" fill-rule="nonzero"></path>
            </g>
        </g>
    </g>
</svg>