<?xml version="1.0" encoding="UTF-8"?>
<svg width="50px" height="40px" viewBox="0 0 50 40" version="1.1" xmlns="http://www.w3.org/2000/svg" xmlns:xlink="http://www.w3.org/1999/xlink">
    <!-- Generator: Sketch 62 (91390) - https://sketch.com -->
    <title>Group 15</title>
    <desc>Created with Sketch.</desc>
    <g id="Symbols" stroke="none" stroke-width="1" fill="none" fill-rule="evenodd">
        <g id="icons-/-cart" transform="translate(-12.000000, -18.000000)">
            <g id="Group-15" transform="translate(12.000000, 18.000000)">
                <path d="M16.6163391,33.9115696 C18.0314478,33.9115696 19.1829478,35.0620478 19.1829478,36.4771565 C19.1829478,37.8922652 18.0314478,39.0437652 16.6163391,39.0437652 C15.2012304,39.0437652 14.0497304,37.8922652 14.0497304,36.4771565 C14.0497304,35.0620478 15.2012304,33.9115696 16.6163391,33.9115696 Z M34.142537,33.9115696 C35.5576457,33.9115696 36.7091457,35.0620478 36.7091457,36.4771565 C36.7091457,37.8922652 35.5576457,39.0437652 34.142537,39.0437652 C32.7274283,39.0437652 31.5759283,37.8922652 31.5759283,36.4771565 C31.5759283,35.0620478 32.7274283,33.9115696 34.142537,33.9115696 Z M16.6163391,35.699613 C16.1872087,35.699613 15.8377739,36.0480261 15.8377739,36.4771565 C15.8377739,36.906287 16.1872087,37.2557217 16.6163391,37.2557217 C17.0454696,37.2557217 17.3949043,36.906287 17.3949043,36.4771565 C17.3949043,36.0480261 17.0454696,35.699613 16.6163391,35.699613 Z M34.142537,35.699613 C33.7134065,35.699613 33.3639717,36.0480261 33.3639717,36.4771565 C33.3639717,36.906287 33.7134065,37.2557217 34.142537,37.2557217 C34.5716674,37.2557217 34.9211022,36.906287 34.9211022,36.4771565 C34.9211022,36.0480261 34.5716674,35.699613 34.142537,35.699613 Z M1.04033478,2.01093261 L7.33322609,3.0602587 C7.6939,3.1205413 7.9810087,3.39334565 8.05968261,3.74993261 L9.04203355,8.2339906 L31.1647804,10.0778696 C31.6582804,10.1187391 32.0230413,10.5509348 31.9821717,11.043413 C31.9433457,11.5093261 31.5520196,11.8628478 31.092237,11.8628478 C31.0677152,11.8628478 31.0421717,11.8618261 31.01765,11.8597826 L9.44203355,10.0619906 L13.2130335,27.2689906 L36.5265609,27.2693457 L37.8936478,19.297737 C37.9774304,18.8113891 38.4392565,18.4834109 38.9245826,18.5671935 C39.4119522,18.6509761 39.7389087,19.1128022 39.6551261,19.6001717 L38.1603217,28.3145848 C38.0867565,28.7437152 37.7148435,29.0573891 37.2795826,29.0573891 L13.6050335,29.0569906 L14.0613783,31.1396935 L36.6898348,31.1396935 C37.1833348,31.1396935 37.5838565,31.5402152 37.5838565,32.0337152 C37.5838565,32.5272152 37.1833348,32.927737 36.6898348,32.927737 L13.3410522,32.927737 C12.9211174,32.927737 12.5584,32.6355196 12.468487,32.2258022 L11.6431904,28.4648534 C11.6177507,28.393892 11.6010332,28.3187886 11.5943324,28.2408375 L6.44226957,4.72365 L0.747095652,3.77445435 C0.260747826,3.69373696 -0.0692739131,3.23293261 0.0124652173,2.74556304 C0.0931826086,2.25921522 0.555008696,1.93532391 1.04033478,2.01093261 Z" id="Combined-Shape" fill="#000000"></path>
                <path d="M41.5906783,0.556313043 C46.2181348,0.556313043 49.9832435,4.32142174 49.9832435,8.9499 C49.9832435,13.5773565 46.2181348,17.3424652 41.5906783,17.3424652 C36.9632217,17.3424652 33.1970913,13.5773565 33.1970913,8.9499 C33.1970913,4.32142174 36.9632217,0.556313043 41.5906783,0.556313043 Z M41.5906783,2.34435652 C37.9492,2.34435652 34.9851348,5.3074 34.9851348,8.9499 C34.9851348,12.5913783 37.9492,15.5544217 41.5906783,15.5544217 C45.2321565,15.5544217 48.1952,12.5913783 48.1952,8.9499 C48.1952,5.3074 45.2321565,2.34435652 41.5906783,2.34435652 Z M45.1884934,6.90055086 C45.5204788,7.26745217 45.5095451,7.84986859 45.1626502,8.2020518 L41.5296931,11.7434845 C41.3676763,11.9085375 41.1529792,12 40.9283424,12 L40.8935535,12 L40.8935535,12 C40.6569891,11.9894871 40.4343402,11.8769987 40.2772933,11.6898685 L38.2181848,9.90161884 C37.900115,9.52210201 37.9339099,8.93968559 38.2927324,8.60327178 C38.6525489,8.26790926 39.2022133,8.30260193 39.5202831,8.68211877 L40.9283424,9.90161884 L43.9589548,6.87426853 C44.3038618,6.52313661 44.8555141,6.53470084 45.1884934,6.90055086 Z" id="Combined-Shape" fill="#83C150" fill-rule="nonzero"></path>
            </g>
        </g>
    </g>
</svg>