<?xml version="1.0" encoding="UTF-8"?>
<svg width="45px" height="45px" viewBox="0 0 45 45" version="1.1" xmlns="http://www.w3.org/2000/svg" xmlns:xlink="http://www.w3.org/1999/xlink">
    <!-- Generator: Sketch 62 (91390) - https://sketch.com -->
    <title>Group 12</title>
    <desc>Created with Sketch.</desc>
    <g id="Symbols" stroke="none" stroke-width="1" fill="none" fill-rule="evenodd">
        <g id="icons-/-approval" transform="translate(-15.000000, -15.000000)">
            <g id="Group-12" transform="translate(15.000000, 15.000000)">
                <path d="M22.5002093,1.9997907 C11.1964323,1.9997907 2.0002093,11.1970488 2.0002093,22.5008258 C2.0002093,33.8035677 11.1964323,42.9997907 22.5002093,42.9997907 C33.8039863,42.9997907 43.0002093,33.8035677 43.0002093,22.5008258 C43.0002093,11.1970488 33.8039863,1.9997907 22.5002093,1.9997907 M22.5002093,44.9997907 C10.093814,44.9997907 0.000209302326,34.9072326 0.000209302326,22.5008372 C0.000209302326,10.0933953 10.093814,-0.000209302326 22.5002093,-0.000209302326 C34.9066047,-0.000209302326 45.0002093,10.0933953 45.0002093,22.5008372 C45.0002093,34.9072326 34.9066047,44.9997907 22.5002093,44.9997907" id="Fill-1" fill="#000000"></path>
                <path d="M31.290004,17.7547985 C31.682124,18.1716622 31.6620652,18.8274731 31.2452015,19.219593 L20.2735989,29.5399548 L20.2735989,29.5399548 L14.7547985,24.3487336 C14.3379348,23.9566137 14.317876,23.3008028 14.709996,22.8839391 C15.1021185,22.4670727 15.7579312,22.4470064 16.1748065,22.8391195 L20.2725887,26.6934953 L20.2725887,26.6934953 L29.8251325,17.7099141 C30.242052,17.3178269 30.8978716,17.3379216 31.290004,17.7547985 Z" id="Path-2" fill="#83C150" fill-rule="nonzero"></path>
            </g>
        </g>
    </g>
</svg>