<?xml version="1.0" encoding="UTF-8"?>
<svg width="18px" height="17px" viewBox="0 0 18 17" version="1.1" xmlns="http://www.w3.org/2000/svg" xmlns:xlink="http://www.w3.org/1999/xlink">
    <!-- Generator: Sketch 62 (91390) - https://sketch.com -->
    <title>icons/ic_cal</title>
    <desc>Created with Sketch.</desc>
    <g id="📱-mobile" stroke="none" stroke-width="1" fill="none" fill-rule="evenodd">
        <g id="05.4-cart-checkout" transform="translate(-27.000000, -849.000000)" fill="#A1A1A1">
            <g id="input-copy-3" transform="translate(16.000000, 811.000000)">
                <g id="ddown" transform="translate(0.000000, 27.000000)">
                    <g id="icons-/-calendar">
                        <path d="M17,11 L17,12 L23,12 L23,11 L25,11 L25,12 L26,12 C27.6568542,12 29,13.3431458 29,15 L29,25 C29,26.6568542 27.6568542,28 26,28 L14,28 C12.3431458,28 11,26.6568542 11,25 L11,15 C11,13.3431458 12.3431458,12 14,12 L15,12 L15,11 L17,11 Z M26,14 L14,14 C13.4871642,14 13.0644928,14.3860402 13.0067277,14.8833789 L13,15 L13,25 C13,25.5128358 13.3860402,25.9355072 13.8833789,25.9932723 L14,26 L26,26 C26.5128358,26 26.9355072,25.6139598 26.9932723,25.1166211 L27,25 L27,15 C27,14.4871642 26.6139598,14.0644928 26.1166211,14.0067277 L26,14 Z M18,20 L18,22 L16,22 L16,20 L18,20 Z M21,20 L21,22 L19,22 L19,20 L21,20 Z M18,17 L18,19 L16,19 L16,17 L18,17 Z M21,17 L21,19 L19,19 L19,17 L21,17 Z M24,17 L24,19 L22,19 L22,17 L24,17 Z" id="Combined-Shape"></path>
                    </g>
                </g>
            </g>
        </g>
    </g>
</svg>