<?xml version="1.0" encoding="UTF-8"?>
<svg width="47px" height="47px" viewBox="0 0 47 47" version="1.1" xmlns="http://www.w3.org/2000/svg" xmlns:xlink="http://www.w3.org/1999/xlink">
    <!-- Generator: Sketch 62 (91390) - https://sketch.com -->
    <title>pictograms / delivery-1day</title>
    <desc>Created with Sketch.</desc>
    <g id="__delivery" stroke="none" stroke-width="1" fill="none" fill-rule="evenodd">
        <g id="06.2-delivery" transform="translate(-46.000000, -617.000000)" fill="#83C150">
            <g id="accordeon" transform="translate(0.000000, 343.000000)">
                <g id="Group-5" transform="translate(32.000000, 260.000000)">
                    <g id="pictograms-/-delivery-1day">
                        <g id="Group" stroke-width="1" fill-rule="evenodd" transform="translate(22.000000, 22.000000)">
                            <g id="truck" fill-rule="nonzero">
                                <path d="M19,0 C19.5522847,-1.01453063e-16 20,0.44771525 20,1 L20,2 L26.0921813,2 L31,10 L31,18 C30.845903,18.3999909 30.5125697,18.7333242 30,19 L27.9644196,19.0009499 C27.7213961,20.6966339 26.2629068,22 24.5,22 C22.7370932,22 21.2786039,20.6966339 21.0355804,19.0009499 L10.9644196,19.0009499 C10.7213961,20.6966339 9.26290678,22 7.5,22 C5.73709322,22 4.27860392,20.6966339 4.03558044,19.0009499 L1,19 C0.236946175,18.6001063 0,18.3675011 0,18 L0,1 C0,0.23201179 0.236946175,0 1,0 L19,0 Z M24.5,17 C23.6715729,17 23,17.6715729 23,18.5 C23,19.3284271 23.6715729,20 24.5,20 C25.3284271,20 26,19.3284271 26,18.5 C26,17.6715729 25.3284271,17 24.5,17 Z M7.5,17 C6.67157288,17 6,17.6715729 6,18.5 C6,19.3284271 6.67157288,20 7.5,20 C8.32842712,20 9,19.3284271 9,18.5 C9,17.6715729 8.32842712,17 7.5,17 Z M5.05078819,15.9997261 L2,16 L2,17 L4.33683139,16.9999667 C4.51493577,16.6250584 4.75772956,16.2868367 5.05078819,15.9997261 Z M9.94921181,15.9997261 C10.2422704,16.2868367 10.4850642,16.6250584 10.6631686,16.9999667 L18,17 L18,16 L9.94921181,15.9997261 Z M22,4.003 L20,4.00324703 L20,17 L21.3373087,16.9989625 C21.8992526,15.8170481 23.1042104,15 24.5,15 C25.8957896,15 27.1007474,15.8170481 27.6626913,16.9989625 L29,17 L29,11 L22,11 L22,4.003 Z M18,2 L2,2 L2,15 L18,15 L18,2 Z M25.0450837,4.00324703 L23,4.003 L23,10 L28.972,10 L25.0450837,4.00324703 Z" id="Combined-Shape"></path>
                            </g>
                            <text id="1-ДЕНЬ" font-family="GothamPro-Black, Gotham Pro" font-size="7" font-weight="700">
                                <tspan x="3.005" y="31">1 ДЕНЬ</tspan>
                            </text>
                        </g>
                        <path d="M57,14 C59.209139,14 61,15.790861 61,18 L61,18 L61,57 C61,59.209139 59.209139,61 57,61 L57,61 L18,61 C15.790861,61 14,59.209139 14,57 L14,57 L14,18 C14,15.790861 15.790861,14 18,14 L18,14 Z M57,16 L18,16 C16.8954305,16 16,16.8954305 16,18 L16,57 C16,58.1045695 16.8954305,59 18,59 L57,59 C58.1045695,59 59,58.1045695 59,57 L59,18 C59,16.8954305 58.1045695,16 57,16 Z" id="Combined-Shape" fill-rule="nonzero"></path>
                    </g>
                </g>
            </g>
        </g>
    </g>
</svg>