<svg xmlns="http://www.w3.org/2000/svg" width="75" height="75" viewBox="0 0 75 75">
    <path fill="#83C150" d="M44.13 21c.48 0 .87.387.87.866v3.133l8.003.001c3.512 0 4.653 2.203 5.972 4.753l3.916 8.113c.07.132.109.279.109.428V51.13c0 .48-.38.87-.849.87h-5.179c-.25 2.246-2.16 4-4.471 4-2.312 0-4.224-1.754-4.473-4H27.972c-.25 2.247-2.16 4-4.472 4-2.311 0-4.222-1.753-4.472-4H12.87c-.48 0-.87-.387-.87-.865v-29.27c0-.478.39-.865.87-.865h31.26zm8.37 28c-1.377 0-2.5 1.122-2.5 2.5 0 1.379 1.123 2.5 2.5 2.5s2.5-1.121 2.5-2.5c0-1.378-1.123-2.5-2.5-2.5zm-29 0c-1.379 0-2.5 1.122-2.5 2.5 0 1.379 1.121 2.5 2.5 2.5s2.5-1.121 2.5-2.5c0-1.378-1.121-2.5-2.5-2.5zm19.759.131H27.325c.218.35.389.733.504 1.138h15.43v-1.138zm-23.584 0H13.74v1.139h5.431c.115-.406.286-.789.504-1.139zM49 26.74h-4V50.26h3.174c.52-1.815 2.157-3.164 4.115-3.255l.212-.005c2.05 0 3.786 1.38 4.325 3.26h4.476V38.522l-.734-1.525c-.02.003-.04.004-.06.004H49.493c-.272 0-.492-.224-.492-.5v-9.76zm-5.74-4.008H13.74v25.4h6.78c.745-.66 1.71-1.077 2.769-1.126L23.5 47c1.142 0 2.186.428 2.98 1.131H43.26v-25.4zM51.55 38c.248 0 .45.224.45.5s-.202.5-.45.5h-1.1c-.248 0-.45-.224-.45-.5s.202-.5.45-.5h1.1zm2.842-11H50v9h10l-3.155-6.615c-.686-1.226-1.282-1.998-2.203-2.373-.08-.008-.163-.012-.25-.012z"/>
</svg>
