<?xml version="1.0" encoding="UTF-8"?>
<svg width="43px" height="43px" viewBox="0 0 43 43" version="1.1" xmlns="http://www.w3.org/2000/svg" xmlns:xlink="http://www.w3.org/1999/xlink">
    <!-- Generator: Sketch 62 (91390) - https://sketch.com -->
    <title>icons / cart copy</title>
    <desc>Created with Sketch.</desc>
    <g id="__delivery" stroke="none" stroke-width="1" fill="none" fill-rule="evenodd">
        <g id="06.2-delivery" transform="translate(-139.000000, -2383.000000)" fill="#000000">
            <g id="features" transform="translate(61.000000, 2352.000000)">
                <g id="icons-/-low-price" transform="translate(62.000000, 15.000000)">
                    <g id="Group-11" transform="translate(16.000000, 16.000000)">
                        <path d="M1.53123876,0.265427679 L4.32,3.072 L19.9521244,3.09827868 C20.2169791,3.07387641 20.4787777,3.16945197 20.6662133,3.35755282 L42.7408285,25.5178658 C43.0871769,25.8655981 43.0861582,26.4288839 42.7377725,26.7755995 L26.6661895,42.7407857 C26.526971,42.8788958 26.3474301,42.9668739 26.1546842,42.9923636 L26.0356317,43.0000599 C25.7992999,42.9990431 25.5721361,42.9055011 25.4050739,42.7377355 L3.33045872,20.5764058 C3.17850686,20.4247389 3.08809975,20.22294 3.0733856,20.0110206 L3.073,4.359 L0.260691035,1.52778493 C-0.0884280419,1.17764204 -0.0863804227,0.609427708 0.263762464,0.26133244 C0.614929161,-0.0888104468 1.18211969,-0.0867628276 1.53123876,0.265427679 Z M6.357,5.122 L9.49407349,8.27979994 C10.0156016,7.97422315 10.6102242,7.81320671 11.2283539,7.8335307 C12.1313539,7.84684023 12.9749731,8.21029264 13.604616,8.85734031 C14.2342589,9.5054118 14.5741637,10.359269 14.5608542,11.2622691 C14.5485684,12.1642454 14.185116,13.0088883 13.5380684,13.6375074 C12.8818064,14.2753408 12.0310206,14.5927218 11.1812586,14.5927218 C10.2997586,14.5927218 9.41928229,14.2517932 8.75687747,13.5709598 C7.68909979,12.4720491 7.51963655,10.8282025 8.23484726,9.55617559 L5.12,6.421 L5.12092002,19.4718912 L26.0404218,40.4743216 L40.4710183,26.1399632 L19.5566355,5.14469952 L6.357,5.122 Z M11.2140205,8.85734031 L11.1802348,8.85734031 C10.8569102,8.85734031 10.5434142,8.92192827 10.2544539,9.04536842 L11.1581205,9.95578564 C11.5062158,10.3069523 11.5041682,10.8741429 11.1540253,11.2232619 C10.9789539,11.3973096 10.7506443,11.4833096 10.5223348,11.4833096 C10.2919776,11.4833096 10.0616204,11.395262 9.886549,11.2191667 L8.99795879,10.3259931 C8.6577922,11.1664953 8.82017719,12.1668641 9.49094896,12.8573645 C10.3970205,13.7890312 11.8917825,13.8095074 12.8234492,12.9044597 C13.2749493,12.4652454 13.5288541,11.8765549 13.5370445,11.2469119 C13.5462588,10.6182928 13.3097588,10.0234595 12.8705445,9.57195942 C12.432354,9.12045938 11.8436634,8.8665546 11.2140205,8.85734031 Z" id="Combined-Shape"></path>
                    </g>
                </g>
            </g>
        </g>
    </g>
</svg>