<svg xmlns="http://www.w3.org/2000/svg" width="40" height="40" viewBox="0 0 40 40">
    <g fill="none" fill-rule="evenodd">
        <g fill="#FFF">
            <g>
                <g>
                    <path d="M11.397-.039L.503 10.855c-.123.123-.212.276-.257.444l-1.21 4.438c-.204.746.48 1.431 1.227 1.228l4.438-1.21c.168-.046.321-.135.444-.258L16.04 4.603c.829-.829 1.153-2.037.85-3.17C16.584.3 15.698-.585 14.566-.888c-1.133-.304-2.341.02-3.17.85zm2.653 1.083c.442.118.788.464.906.906l.03.149c.058.397-.074.802-.362 1.09L3.918 13.894l-2.493.68.68-2.493L12.811 1.376c.288-.288.693-.42 1.09-.363l.149.03z" transform="translate(-264 -566) translate(264 566) translate(12 12)"/>
                </g>
            </g>
        </g>
    </g>
</svg>
