<?xml version="1.0" encoding="UTF-8"?>
<svg width="16px" height="14px" viewBox="0 0 16 14" version="1.1" xmlns="http://www.w3.org/2000/svg" xmlns:xlink="http://www.w3.org/1999/xlink">
    <!-- Generator: Sketch 62 (91390) - https://sketch.com -->
    <title>icons-mail</title>
    <desc>Created with Sketch.</desc>
    <g id="Page-1" stroke="none" stroke-width="1" fill="none" fill-rule="evenodd">
        <g id="icons-mail" fill="#B4B4B4" fill-rule="nonzero">
            <path d="M13.4,0 C14.78,0 15.91,1.093 15.995,2.46 L16,2.625 L16,11.375 C16,12.762 14.924,13.909 13.564,13.995 L13.4,14 L2.6,14 C1.22,14 0.09,12.907 0.005,11.54 L0,11.375 L0,2.625 C0,1.238 1.076,0.091 2.436,0.005 L2.6,0 L13.4,0 Z M13.4,2 L2.6,2 C2.308,2 2.056,2.227 2.008,2.524 L2,2.625 L2,11.375 C2,11.685 2.223,11.943 2.504,11.992 L2.6,12 L13.4,12 C13.692,12 13.944,11.773 13.992,11.476 L14,11.375 L14,2.625 C14,2.315 13.777,2.057 13.496,2.008 L13.4,2 Z M4.176,4.088 L4.262,4.143 L7.99999017,6.833 L11.738,4.143 C12.133,3.859 12.645,4.013 12.881,4.486 C13.101,4.926 13.007,5.486 12.676,5.792 L12.596,5.858 L8.429,8.858 C8.198,9.024 7.917,9.045 7.673,8.92 L7.571,8.858 L3.405,5.858 C3.01,5.573 2.882,4.959 3.119,4.486 C3.339,4.046 3.796,3.882 4.176,4.088 Z" id="Shape"></path>
        </g>
    </g>
</svg>