<?xml version="1.0" encoding="UTF-8"?>
<svg width="22px" height="20px" viewBox="0 0 22 20" version="1.1" xmlns="http://www.w3.org/2000/svg" xmlns:xlink="http://www.w3.org/1999/xlink">
    <!-- Generator: Sketch 62 (91390) - https://sketch.com -->
    <title>Shape</title>
    <desc>Created with Sketch.</desc>
    <g id="Symbols" stroke="none" stroke-width="1" fill="none" fill-rule="evenodd">
        <g id="icons-/-fav-selected" transform="translate(-9.000000, -11.000000)" fill="#FF6464" fill-rule="nonzero">
            <path d="M10.8878183,12.854325 C13.336518,10.4352867 17.2617276,10.3840315 19.7730542,12.6947675 L20.0045201,12.9179422 L20.0503326,12.8725013 C21.2531648,11.6793068 22.8846289,11.0089668 24.5857772,11.0089668 C26.2869255,11.0089668 27.9183897,11.6793068 29.1212218,12.8725013 C30.3241767,14.0655742 31,15.6838012 31,17.3711471 C31,18.9592373 30.4013468,20.4861012 29.3280057,21.6549097 L20.6688024,30.7171296 C20.4958196,30.8977396 20.2556751,31 20.0045201,31 C19.7952242,31 19.5935745,30.9289858 19.432066,30.8007947 L19.3402378,30.7171296 L10.8694933,21.8516165 C8.36969676,19.3620638 8.37790115,15.3338392 10.8878183,12.854325 Z" id="Shape"></path>
        </g>
    </g>
</svg>