<?xml version="1.0" encoding="UTF-8"?>
<svg width="22px" height="20px" viewBox="0 0 22 20" version="1.1" xmlns="http://www.w3.org/2000/svg" xmlns:xlink="http://www.w3.org/1999/xlink">
    <!-- Generator: Sketch 63.1 (92452) - https://sketch.com -->
    <title>Shape</title>
    <desc>Created with Sketch.</desc>
    <g id="Symbols" stroke="none" stroke-width="1" fill="none" fill-rule="evenodd">
        <g id="icons-/-fav" transform="translate(-9.000000, -11.000000)" fill="#7F7F7F" fill-rule="nonzero">
            <path d="M10.8878183,12.854325 C13.336518,10.4352867 17.2617276,10.3840315 19.7730542,12.6947675 L20.0045201,12.9179422 L20.0503326,12.8725013 C21.2531648,11.6793068 22.8846289,11.0089668 24.5857772,11.0089668 C26.2869255,11.0089668 27.9183897,11.6793068 29.1212218,12.8725013 C30.3241767,14.0655742 31,15.6838012 31,17.3711471 C31,18.9592373 30.4013468,20.4861012 29.3280057,21.6549097 L20.6688024,30.7171296 C20.4958196,30.8977396 20.2556751,31 20.0045201,31 C19.7952242,31 19.5935745,30.9289858 19.432066,30.8007947 L19.3402378,30.7171296 L10.8694933,21.8516165 C8.36969676,19.3620638 8.37790115,15.3338392 10.8878183,12.854325 Z M18.5474005,14.2896155 C16.8257601,12.5750302 14.0220453,12.5694121 12.2933883,14.2771296 C10.6275218,15.9228172 10.5702014,18.5578647 12.1568551,20.3038379 L20.004,28.517 L27.7128529,20.4497587 C28.4826132,19.6863218 28.9367358,18.6709281 28.9938643,17.6011465 L29,17.3711471 C29,16.2177079 28.5375961,15.1105036 27.712708,14.2923918 C26.8849029,13.4712193 25.759879,13.0089668 24.5857772,13.0089668 C23.4899489,13.0089668 22.4368729,13.4116401 21.6282379,14.133032 L21.4129614,14.3379045 L20.0045201,15.7349183 L18.5474005,14.2896155 Z" id="Shape"></path>
        </g>
    </g>
</svg>