<svg xmlns="http://www.w3.org/2000/svg" width="75" height="75" fill="none" viewBox="0 0 75 75">
    <path fill="#000" fill-rule="evenodd" d="M38.562 17C49.832 17 59 26.169 59 37.438c0 11.27-9.17 20.438-20.438 20.438-3.724 0-7.358-1.012-10.538-2.929l-8.89 2.887c-.087.029-.18.042-.267.042-.251 0-.495-.109-.662-.307-.227-.27-.27-.648-.107-.96l3.813-7.32c-2.48-3.473-3.786-7.558-3.786-11.85C18.125 26.168 27.293 17 38.562 17zm0 1.981c-10.175 0-18.456 8.282-18.456 18.457 0 3.73 1.088 7.278 3.164 10.335l.253.364.707.989-3.117 5.981 7.16-2.324.774.467c2.874 1.733 6.155 2.645 9.515 2.645 10.175 0 18.457-8.281 18.457-18.457 0-10.175-8.282-18.457-18.457-18.457zM42.052 31c1.312 0 2.57.521 3.498 1.45.929.927 1.45 2.186 1.45 3.498 0 1.312-.521 2.571-1.45 3.499l-6.343 6.343c-.39.39-1.024.39-1.414 0l-6.344-6.343c-1.932-1.933-1.932-5.065 0-6.997 1.932-1.933 5.065-1.933 6.997 0l.053.053.054-.053c.866-.867 2.02-1.379 3.237-1.443l.262-.007zm0 2c-.782 0-1.532.31-2.084.864l-.761.76c-.39.39-1.024.39-1.414 0l-.761-.76c-1.151-1.151-3.017-1.151-4.17 0-1.15 1.15-1.15 3.017 0 4.168l5.637 5.636 5.637-5.636c.503-.502.806-1.167.856-1.872l.008-.212c0-.782-.31-1.531-.864-2.084-.553-.553-1.302-.864-2.084-.864z" clip-rule="evenodd"/>
</svg>
