<?xml version="1.0" encoding="UTF-8"?>
<svg width="30px" height="40px" viewBox="0 0 30 40" version="1.1" xmlns="http://www.w3.org/2000/svg" xmlns:xlink="http://www.w3.org/1999/xlink">
    <!-- Generator: Sketch 62 (91390) - https://sketch.com -->
    <title>Combined Shape</title>
    <desc>Created with Sketch.</desc>
    <g id="Symbols" stroke="none" stroke-width="1" fill="none" fill-rule="evenodd">
        <g id="icons/file-large" transform="translate(-5.000000, 0.000000)" fill="#A1A1A1">
            <path d="M35,0 L35,40 L5,40 L5,0 L35,0 Z M33,2 L7,2 L7,38 L33,38 L33,2 Z M22,21 L22,22 L12,22 L12,21 L22,21 Z M28,17 L28,18 L12,18 L12,17 L28,17 Z M28,13 L28,14 L12,14 L12,13 L28,13 Z M28,9 L28,10 L12,10 L12,9 L28,9 Z" id="Combined-Shape"></path>
        </g>
    </g>
</svg>