<?xml version="1.0" encoding="UTF-8"?>
<svg width="16px" height="16px" viewBox="0 0 16 16" version="1.1" xmlns="http://www.w3.org/2000/svg" xmlns:xlink="http://www.w3.org/1999/xlink">
    <!-- Generator: Sketch 62 (91390) - https://sketch.com -->
    <title>google-logo</title>
    <desc>Created with Sketch.</desc>
    <g id="Page-1" stroke="none" stroke-width="1" fill="none" fill-rule="evenodd">
        <g id="google-logo" fill-rule="nonzero">
            <path d="M3.546,9.669 L2.989,11.749 L0.953,11.791 C0.345,10.663 0,9.371 0,8 C0,6.673 0.323,5.422 0.894,4.32 L2.707,4.653 L3.501,6.455 C3.335,6.939 3.244,7.459 3.244,8 C3.244,8.587 3.351,9.15 3.546,9.669 Z" id="Path" fill="#FBBB00"></path>
            <path d="M15.86,6.505 C15.952,6.989 16,7.489 16,8 C16,8.573 15.94,9.131 15.825,9.67 C15.435,11.504 14.418,13.105 13.008,14.239 L10.725,14.122 L10.402,12.105 C11.338,11.556 12.069,10.698 12.454,9.67 L8.176,9.67 L8.176,6.505 L15.86,6.505 Z" id="Path" fill="#518EF8"></path>
            <path d="M13.008,14.238 C11.638,15.342 9.896,16 8,16 C4.953,16 2.305,14.297 0.953,11.791 L3.546,9.67 C4.222,11.472 5.96,12.756 8,12.756 C8.876,12.756 9.698,12.519 10.402,12.106 L13.008,14.238 Z" id="Path" fill="#28B446"></path>
            <path d="M13.106,1.842 L10.515,3.963 C9.785,3.508 8.924,3.244 8,3.244 C5.915,3.244 4.143,4.587 3.501,6.454 L0.895,4.322 C2.224,1.754 4.907,0 8,0 C9.941,0 11.72,0.691 13.106,1.842 Z" id="Path" fill="#F14336"></path>
        </g>
    </g>
</svg>