<?xml version="1.0" encoding="UTF-8"?>
<svg width="28px" height="28px" viewBox="0 0 28 28" version="1.1" xmlns="http://www.w3.org/2000/svg" xmlns:xlink="http://www.w3.org/1999/xlink">
    <!-- Generator: Sketch 50.2 (55047) - http://www.bohemiancoding.com/sketch -->
    <title>Group 3</title>
    <desc>Created with Sketch.</desc>
    <defs></defs>
    <g id="Symbols" stroke="none" stroke-width="1" fill="none" fill-rule="evenodd">
        <g id="icons/social" transform="translate(-110.000000, 0.000000)">
            <g id="Group-3" transform="translate(110.000000, 0.000000)">
                <path d="M14,10.3929168 C12.0106026,10.3929168 10.3923993,12.0111201 10.3923993,14 C10.3923993,15.9893974 12.0106026,17.6076007 14,17.6076007 C15.9889834,17.6076007 17.6076007,15.9893974 17.6076007,14 C17.6076007,12.0111201 15.9889834,10.3929168 14,10.3929168 Z M17.5845915,6 C20.0194307,6 22,7.98068762 22,10.4155268 L22,17.5845915 C22,20.0189575 20.0194307,22 17.5845915,22 L10.4154085,22 C7.98056932,22 6,20.0194307 6,17.5845915 L6,10.4155268 C6,7.98068762 7.98056932,6 10.4154085,6 L17.5845915,6 Z M14,16.3650425 C12.6959556,16.3650425 11.6345434,15.3044584 11.6345434,14 C11.6345434,12.6960591 12.6955416,11.634647 14,11.634647 C15.3044584,11.634647 16.3654566,12.6960591 16.3654566,14 C16.3654566,15.3044584 15.3040444,16.3650425 14,16.3650425 Z M17.7588318,9.33957856 C17.9989797,9.33957856 18.2338484,9.43625878 18.4028835,9.60601848 C18.5727468,9.7750536 18.6697375,10.0103364 18.6697375,10.2505878 C18.6697375,10.4894935 18.5727468,10.7248799 18.4028835,10.8946396 C18.2331238,11.0636747 17.9989797,11.161183 17.7588318,11.161183 C17.5194085,11.161183 17.2841257,11.0636747 17.1155046,10.8946396 C16.9456414,10.7248799 16.8478226,10.4899076 16.8478226,10.2505878 C16.8478226,10.0103364 16.9452274,9.7750536 17.1155046,9.60601848 C17.2844362,9.43625878 17.5194085,9.33957856 17.7588318,9.33957856 Z M19.7578558,17.1365176 L19.7578558,10.863586 C19.7578558,9.41804067 18.5820628,8.24214418 17.1365176,8.24214418 L10.8634824,8.24214418 C9.41793715,8.24214418 8.24214418,9.41804067 8.24214418,10.863586 L8.24214418,17.1365176 C8.24214418,18.5820628 9.41793715,19.7578558 10.8634824,19.7578558 L17.1365176,19.7578558 C18.5820628,19.7578558 19.7578558,18.5820628 19.7578558,17.1365176 Z" id="Combined-Shape" fill="#FFFFFF"></path>
            </g>
        </g>
    </g>
</svg>