<svg xmlns="http://www.w3.org/2000/svg" width="75" height="75" viewBox="0 0 75 75">
    <g fill="none">
        <path fill="#83C150" d="M25.861 0c.525 0 .984.334 1.15.82l.088.307c.326 1.01 2.305 5.732 10.748 5.732.542 0 1.019.357 1.168.877l1.81 6.308c.094.33.044.685-.14.976-.16.255-.408.44-.695.521l-.335.077c-1.097.28-5.982 1.936-6.121 9.193-.14 7.168 6.85 11.865 6.921 11.912.283.187.476.484.53.819.053.334-.035.676-.246.942l-4.625 5.83c-.382.482-1.06.599-1.577.287l-.206-.14c-.47-.307-2.61-1.578-5.872-1.578-.501 0-1.014.03-1.524.089-2.52.294-4.736 3.286-5.378 4.414-.215.38-.618.614-1.056.614-.388 0-.75-.185-.977-.492l-.266-.422c-.612-.947-2.664-3.82-5.193-4.114-.51-.059-1.023-.09-1.524-.09-3.085 0-5.122 1.105-5.757 1.505l-.212.141c-.527.398-1.276.302-1.686-.214l-4.624-5.83c-.211-.266-.3-.608-.247-.944.054-.335.248-.632.532-.818l.221-.156c1.196-.87 6.824-5.316 6.7-11.755-.156-8.08-6.27-9.23-6.332-9.241-.34-.058-.638-.258-.821-.55-.183-.29-.234-.645-.14-.976l1.81-6.308c.15-.519.626-.877 1.168-.877 8.41 0 10.417-4.727 10.747-5.729l.055-.185C14.079.393 14.572 0 15.14 0H25.86zm-.577 2h-9.57c-.07.186-.152.381-.25.587l-.102.21c-.45.887-1.078 1.762-1.917 2.568-2.138 2.058-5.243 3.318-9.388 3.477l-.311.008-1.426 4.972.146.05.2.073.212.082c.912.368 1.82.892 2.67 1.602 2.386 1.992 3.84 5.027 3.92 9.143.068 3.578-1.316 6.834-3.654 9.712-.819 1.009-1.708 1.909-2.618 2.698-.222.193-.434.369-.631.528l-.225.176 3.671 4.629.069-.039c.307-.172.673-.354 1.084-.53l.252-.103c1.502-.602 3.22-.96 5.125-.96.575 0 1.164.034 1.756.102 1.898.221 3.56 1.324 5.057 2.962.381.416.72.83 1.008 1.218l.127.173.12-.169c1.45-2.01 3.54-3.765 5.823-4.145l.275-.039c.588-.068 1.177-.102 1.752-.102 1.884 0 3.596.358 5.105.96.47.187.884.383 1.232.57l.19.105 3.674-4.633-.264-.208-.36-.298c-.91-.766-1.813-1.653-2.654-2.658-2.453-2.93-3.92-6.266-3.848-9.949.078-4.084 1.496-7.102 3.835-9.09.844-.719 1.75-1.25 2.667-1.626.168-.069.33-.13.484-.183l.159-.054-1.426-4.969-.302-.008c-3.961-.15-6.972-1.297-9.096-3.185l-.233-.213c-.846-.8-1.485-1.67-1.944-2.56-.13-.25-.237-.486-.325-.706L25.284 2z" transform="translate(17 14)"/>
        <path stroke="#83C150" d="M23.72 4.503c.64 1.086 1.344 1.964 2.187 2.759 2.824 2.397 5.76 3.57 9.261 3.955h0l.478 1.233c-.712.408-1.321.837-1.896 1.327-2.983 2.536-4.626 6.28-4.716 10.947-.08 4.158 1.474 8.072 4.436 11.608h0l.389.452c.429.486.877.955 1.341 1.403h0l-.965 1.247c-2.127-.753-3.912-1.051-5.776-1.051-.67 0-1.354.04-2.038.119-2.522.489-4.327 1.508-5.862 2.943-1.983-1.714-3.88-2.7-5.974-2.943-.69-.08-1.375-.12-2.044-.12-2.316.06-4.096.404-5.719 1.01h0l-1.03-1.204c.814-.793 1.408-1.445 1.963-2.128 2.815-3.466 4.29-7.288 4.212-11.336-.09-4.703-1.772-8.472-4.816-11.014-.76-.598-1.301-.966-1.817-1.263h0l.335-1.219c4.048-.448 7.184-1.824 9.51-4.061.984-1.008 1.587-1.794 2.061-2.597h0z" transform="translate(17 14)"/>
    </g>
</svg>
