<?xml version="1.0" encoding="UTF-8"?>
<svg width="221px" height="31px" viewBox="0 0 221 31" version="1.1" xmlns="http://www.w3.org/2000/svg" xmlns:xlink="http://www.w3.org/1999/xlink">
    <!-- Generator: Sketch 50.2 (55047) - http://www.bohemiancoding.com/sketch -->
    <title>lifemebel</title>
    <desc>Created with Sketch.</desc>
    <defs></defs>
    <g id="Page-1" stroke="none" stroke-width="1" fill="none" fill-rule="evenodd">
        <g id="lifemebel">
            <path d="M4.0019285,25.33 C2.50592102,25.33 1.22993378,25.1540018 0.1739285,24.802 L0.6029285,19.885 C0.99893048,19.9730004 1.49392553,20.017 2.0879285,20.017 C2.5279307,20.017 2.89092707,19.9510007 3.1769285,19.819 C3.46292993,19.6869993 3.7764268,19.3405028 4.1174285,18.7795 C4.45843021,18.2184972 4.72792751,17.4265051 4.9259285,16.4035 C5.12392949,15.3804949 5.28892784,13.9175095 5.4209285,12.0145 C5.55292916,10.1114905 5.6189285,7.80701353 5.6189285,5.101 L5.6189285,1.9 L23.3729285,1.9 L23.3729285,25 L16.9709285,25 L16.9709285,7.51 L11.5919285,7.51 L11.5919285,8.401 C11.5919285,11.1510138 11.4709297,13.5379899 11.2289285,15.562 C10.9869273,17.5860101 10.6514306,19.2194938 10.2224285,20.4625 C9.79342636,21.7055062 9.2489318,22.6954963 8.5889285,23.4325 C7.9289252,24.1695037 7.24143208,24.6699987 6.5264285,24.934 C5.81142493,25.1980013 4.96993334,25.33 4.0019285,25.33 Z" id="ЛайфМебель-path" fill="#83C150"></path>
            <path d="M31.6276428,25.396 C29.867634,25.396 28.4266484,24.9065049 27.3046428,23.9275 C26.1826372,22.9484951 25.6216428,21.5790088 25.6216428,19.819 C25.6216428,18.014991 26.2486365,16.6290048 27.5026428,15.661 C28.7566491,14.6929952 30.461632,14.209 32.6176428,14.209 C34.1796506,14.209 35.6096363,14.4399977 36.9076428,14.902 L36.9076428,14.605 C36.9076428,12.6689903 35.7196547,11.701 33.3436428,11.701 C31.7376348,11.701 30.0986512,12.0309967 28.4266428,12.691 L27.1396428,8.269 C29.383654,7.34499538 31.7926299,6.883 34.3666428,6.883 C37.4466582,6.883 39.7126355,7.60899274 41.1646428,9.061 C42.4406492,10.3150063 43.0786428,12.2069874 43.0786428,14.737 L43.0786428,25 L36.8746428,25 L36.8746428,23.152 C35.5326361,24.6480075 33.7836536,25.396 31.6276428,25.396 Z" id="ЛайфМебель-path" fill="#83C150"></path>
            <path d="M33.8716428,21.469 C34.7956474,21.469 35.5436399,21.1995027 36.1156428,20.6605 C36.6876457,20.1214973 36.9736428,19.4120044 36.9736428,18.532 L36.9736428,17.707 C36.2476392,17.3989985 35.4336473,17.245 34.5316428,17.245 C33.6296383,17.245 32.9256453,17.448498 32.4196428,17.8555 C31.9136403,18.262502 31.6606428,18.8179965 31.6606428,19.522 C31.6606428,20.116003 31.8641408,20.5889982 32.2711428,20.941 C32.6781448,21.2930018 33.2116395,21.469 33.8716428,21.469 Z" id="ЛайфМебель-path" fill="#FFFFFF"></path>
            <polygon id="ЛайфМебель-path" fill="#83C150" points="45.6903571 25 45.6903571 7.147 51.7623571 7.147 51.7623571 16.09 57.7023571 7.147 63.4773571 7.147 63.4773571 25 57.4053571 25 57.4053571 16.057 51.4653571 25"></polygon>
            <path d="M58.3953571,4.408 C57.4493524,5.26600429 56.2283646,5.695 54.7323571,5.695 C53.2363496,5.695 52.0098619,5.26600429 51.0528571,4.408 C50.0958523,3.54999571 49.5073582,2.34000781 49.2873571,0.778 L52.5543571,0.184 C52.9943593,1.46000638 53.720352,2.098 54.7323571,2.098 C55.7443622,2.098 56.4703549,1.46000638 56.9103571,0.184 L60.1773571,0.778 C59.957356,2.34000781 59.3633619,3.54999571 58.3953571,4.408 Z" id="ЛайфМебель-path" fill="#83C150"></path>
            <path d="M76.2530714,30.28 L76.2530714,24.175 C75.1090657,24.9230037 73.9540772,25.297 72.7880714,25.297 C70.6320606,25.297 68.8885781,24.4665083 67.5575714,22.8055 C66.2265647,21.1444917 65.5610714,18.8730144 65.5610714,15.991 C65.5610714,13.1749859 66.2320647,10.9475082 67.5740714,9.3085 C68.9160781,7.6694918 70.6650606,6.85 72.8210714,6.85 C74.0090773,6.85 75.1530659,7.27899571 76.2530714,8.137 L76.2530714,1.9 L82.5230714,1.9 L82.5230714,8.137 C83.5790767,7.27899571 84.7230652,6.85 85.9550714,6.85 C88.1110822,6.85 89.8600647,7.67499175 91.2020714,9.325 C92.5440781,10.9750082 93.2150714,13.2189858 93.2150714,16.057 C93.2150714,18.9170143 92.5495781,21.1719918 91.2185714,22.822 C89.8875647,24.4720083 88.1440822,25.297 85.9880714,25.297 C84.7780654,25.297 83.6230769,24.9230037 82.5230714,24.175 L82.5230714,30.28 L76.2530714,30.28 Z" id="ЛайфМебель-path" fill="#83C150"></path>
            <path d="M74.7350714,20.248 C75.3070743,20.248 75.8130692,20.1380011 76.2530714,19.918 L76.2530714,12.262 C75.769069,12.0199988 75.263074,11.899 74.7350714,11.899 C73.7450665,11.899 72.9970739,12.2839962 72.4910714,13.054 C71.9850689,13.8240039 71.7320714,14.8359937 71.7320714,16.09 C71.7320714,17.3440063 71.9850689,18.3504962 72.4910714,19.1095 C72.9970739,19.8685038 73.7450665,20.248 74.7350714,20.248 Z" id="ЛайфМебель-path" fill="#FFFFFF"></path>
            <path d="M84.0410714,20.248 C85.0310764,20.248 85.7790689,19.8685038 86.2850714,19.1095 C86.7910739,18.3504962 87.0440714,17.3220065 87.0440714,16.024 C87.0440714,14.7919938 86.7910739,13.7965038 86.2850714,13.0375 C85.7790689,12.2784962 85.0310764,11.899 84.0410714,11.899 C83.5130688,11.899 83.0070738,12.0199988 82.5230714,12.262 L82.5230714,19.918 C82.9630736,20.1380011 83.4690685,20.248 84.0410714,20.248 Z" id="ЛайфМебель-path" fill="#FFFFFF"></path>
            <polygon id="ЛайфМебель-path" fill="#000000" points="95.6617857 25 95.6617857 1.9 102.426786 1.9 107.937786 10.843 113.448786 1.9 120.213786 1.9 120.213786 25 113.844786 25 113.844786 11.734 107.937786 20.776 107.805786 20.776 101.931786 11.8 101.931786 25"></polygon>
            <path d="M132.1975,25.429 C129.381486,25.429 127.082509,24.5710086 125.3005,22.855 C123.518491,21.1389914 122.6275,18.884014 122.6275,16.09 C122.6275,13.4499868 123.474492,11.233509 125.1685,9.4405 C126.862508,7.64749103 129.018487,6.751 131.6365,6.751 C134.562515,6.751 136.795492,7.67499076 138.3355,9.523 C139.875508,11.3710092 140.6455,13.7029859 140.6455,16.519 C140.6455,17.0910029 140.6345,17.5199986 140.6125,17.806 L128.6665,17.806 C129.172503,19.7640098 130.45949,20.743 132.5275,20.743 C133.935507,20.743 135.255494,20.1380061 136.4875,18.928 L139.9525,21.799 C138.03849,24.2190121 135.453516,25.429 132.1975,25.429 Z" id="ЛайфМебель-path" fill="#000000"></path>
            <path d="M128.5675,14.605 L134.7715,14.605 C134.661499,13.614995 134.331503,12.8285029 133.7815,12.2455 C133.231497,11.6624971 132.527504,11.371 131.6695,11.371 C130.855496,11.371 130.179003,11.6624971 129.64,12.2455 C129.100997,12.8285029 128.743501,13.614995 128.5675,14.605 Z" id="ЛайфМебель-path" fill="#FFFFFF"></path>
            <path d="M152.167214,25.429 C145.809183,25.429 142.630214,21.7440369 142.630214,14.374 C142.630214,13.2079942 142.679714,12.1520047 142.778714,11.206 C142.877715,10.2599953 143.092213,9.25350533 143.422214,8.1865 C143.752216,7.11949466 144.197711,6.20650379 144.758714,5.4475 C145.319717,4.6884962 146.095209,4.01200297 147.085214,3.418 C148.075219,2.82399703 149.241208,2.4170011 150.583214,2.197 L159.691214,0.712 L160.450214,5.563 L151.078214,7.279 C150.110209,7.45500088 149.307217,7.79049752 148.669214,8.2855 C148.031211,8.78050247 147.613215,9.23699791 147.415214,9.655 C147.217213,10.0730021 147.107214,10.479998 147.085214,10.876 C147.415216,10.3259973 148.124709,9.74850303 149.213714,9.1435 C150.30272,8.53849698 151.639206,8.236 153.223214,8.236 C155.555226,8.236 157.557206,8.98949246 159.229214,10.4965 C160.901223,12.0035075 161.737214,13.955988 161.737214,16.354 C161.737214,18.8840126 160.824223,21.0289912 158.998214,22.789 C157.172205,24.5490088 154.895228,25.429 152.167214,25.429 Z" id="ЛайфМебель-path" fill="#000000"></path>
            <path d="M152.233214,20.116 C153.245219,20.116 154.064711,19.7640035 154.691714,19.06 C155.318717,18.3559965 155.632214,17.4760053 155.632214,16.42 C155.632214,15.4079949 155.302218,14.5390036 154.642214,13.813 C153.982211,13.0869964 153.157219,12.724 152.167214,12.724 C151.155209,12.724 150.335717,13.0759965 149.708714,13.78 C149.081711,14.4840035 148.768214,15.3639947 148.768214,16.42 C148.768214,17.4320051 149.098211,18.3009964 149.758214,19.027 C150.418218,19.7530036 151.243209,20.116 152.233214,20.116 Z" id="ЛайфМебель-path" fill="#FFFFFF"></path>
            <path d="M172.631929,25.429 C169.815915,25.429 167.516938,24.5710086 165.734929,22.855 C163.95292,21.1389914 163.061929,18.884014 163.061929,16.09 C163.061929,13.4499868 163.90892,11.233509 165.602929,9.4405 C167.296937,7.64749103 169.452916,6.751 172.070929,6.751 C174.996943,6.751 177.229921,7.67499076 178.769929,9.523 C180.309936,11.3710092 181.079929,13.7029859 181.079929,16.519 C181.079929,17.0910029 181.068929,17.5199986 181.046929,17.806 L169.100929,17.806 C169.606931,19.7640098 170.893918,20.743 172.961929,20.743 C174.369936,20.743 175.689922,20.1380061 176.921929,18.928 L180.386929,21.799 C178.472919,24.2190121 175.887945,25.429 172.631929,25.429 Z" id="ЛайфМебель-path" fill="#000000"></path>
            <path d="M169.001929,14.605 L175.205929,14.605 C175.095928,13.614995 174.765931,12.8285029 174.215929,12.2455 C173.665926,11.6624971 172.961933,11.371 172.103929,11.371 C171.289925,11.371 170.613431,11.6624971 170.074429,12.2455 C169.535426,12.8285029 169.177929,13.614995 169.001929,14.605 Z" id="ЛайфМебель-path" fill="#FFFFFF"></path>
            <path d="M186.760643,24.967 C186.14464,25.1430009 185.418647,25.231 184.582643,25.231 C183.746639,25.231 182.822648,25.1430009 181.810643,24.967 L182.074643,20.116 C182.536645,20.1820003 182.877642,20.215 183.097643,20.215 C183.383644,20.215 183.614642,20.1765004 183.790643,20.0995 C183.966644,20.0224996 184.170142,19.8080018 184.401143,19.456 C184.632144,19.1039982 184.813642,18.5980033 184.945643,17.938 C185.077644,17.2779967 185.193142,16.3265062 185.292143,15.0835 C185.391143,13.8404938 185.440643,12.3390088 185.440643,10.579 L185.440643,7.147 L200.851643,7.147 L200.851643,25 L194.581643,25 L194.581643,12.13 L191.281643,12.13 L191.281643,12.592 C191.281643,14.7040106 191.166144,16.5244924 190.935143,18.0535 C190.704142,19.5825076 190.401645,20.8034954 190.027643,21.7165 C189.653641,22.6295046 189.169646,23.3554973 188.575643,23.8945 C187.98164,24.4335027 187.376646,24.7909991 186.760643,24.967 Z" id="ЛайфМебель-path" fill="#000000"></path>
            <path d="M203.628357,25 L203.628357,7.147 L209.898357,7.147 L209.898357,12.757 L212.934357,12.757 C215.134368,12.757 216.91085,13.2794948 218.263857,14.3245 C219.616864,15.3695052 220.293357,16.8709902 220.293357,18.829 C220.293357,20.7430096 219.655364,22.2499945 218.379357,23.35 C217.103351,24.4500055 215.376368,25 213.198357,25 L203.628357,25 Z" id="ЛайфМебель-path" fill="#000000"></path>
            <path d="M209.898357,20.578 L211.845357,20.578 C213.451365,20.578 214.254357,19.9290065 214.254357,18.631 C214.254357,18.0589971 214.039859,17.6080016 213.610857,17.278 C213.181855,16.9479983 212.593361,16.783 211.845357,16.783 L209.898357,16.783 L209.898357,20.578 Z" id="ЛайфМебель-path" fill="#FFFFFF"></path>
        </g>
    </g>
</svg>