<?xml version="1.0" encoding="UTF-8"?>
<svg width="16px" height="20px" viewBox="0 0 16 20" version="1.1" xmlns="http://www.w3.org/2000/svg" xmlns:xlink="http://www.w3.org/1999/xlink">
    <!-- Generator: Sketch 62 (91390) - https://sketch.com -->
    <title>icons / location</title>
    <desc>Created with Sketch.</desc>
    <g id="📱-mobile" stroke="none" stroke-width="1" fill="none" fill-rule="evenodd">
        <g id="05.4-cart-checkout" transform="translate(-17.000000, -662.000000)" fill="#83C150" fill-rule="nonzero">
            <g id="icons-/-location" transform="translate(5.000000, 652.000000)">
                <path d="M20,10 C24.418278,10 28,13.7440204 28,18.5246089 C28,20.8265341 26.39908,24.1169742 23.1972399,28.3959289 C22.9713255,28.6978421 22.7041757,28.9662491 22.4036767,29.1932268 C20.6948485,30.483966 18.2912781,30.1912986 16.9348407,28.5631826 L16.802752,28.3959286 L16.5160911,28.0096523 C13.5053637,23.9184593 12,20.7567781 12,18.5246089 C12,13.7440204 15.581722,10 20,10 Z M20,12.0094126 C16.6869923,12.0094126 14,14.8557693 14,18.5246089 C14,20.1564856 15.2629265,22.8616226 17.8557487,26.4470679 L18.1194664,26.8085396 L18.4013715,27.188434 C19.0651306,28.0754851 20.3189423,28.2539667 21.2018383,27.5870837 C21.352088,27.4735947 21.4856631,27.339391 21.5986205,27.1884341 C24.5591057,23.2320272 26,20.270495 26,18.5246089 C26,14.8557693 23.3130077,12.0094126 20,12.0094126 Z M20,15.0235314 C21.6568542,15.0235314 23,16.3729984 23,18.0376502 C23,19.7023021 21.6568542,21.0517691 20,21.0517691 C18.3431458,21.0517691 17,19.7023021 17,18.0376502 C17,16.3729984 18.3431458,15.0235314 20,15.0235314 Z M20,17.032944 C19.4477153,17.032944 19,17.4827663 19,18.0376502 C19,18.5925342 19.4477153,19.0423565 20,19.0423565 C20.5522847,19.0423565 21,18.5925342 21,18.0376502 C21,17.4827663 20.5522847,17.032944 20,17.032944 Z" id="Combined-Shape"></path>
            </g>
        </g>
    </g>
</svg>