<?xml version="1.0" encoding="UTF-8"?>
<svg width="44px" height="37px" viewBox="0 0 44 37" version="1.1" xmlns="http://www.w3.org/2000/svg" xmlns:xlink="http://www.w3.org/1999/xlink">
    <!-- Generator: Sketch 63.1 (92452) - https://sketch.com -->
    <title>Shape</title>
    <desc>Created with Sketch.</desc>
    <g id="Symbols" stroke="none" stroke-width="1" fill="none" fill-rule="evenodd">
        <g id="icons-/-mebel-/-kreslo" transform="translate(-18.000000, -22.000000)" fill="#000000" fill-rule="nonzero">
            <path d="M56.1654627,22 C56.6303571,22 57.0072714,22.377 57.0072714,22.842 L57.0062717,38.9902344 L61.1581913,38.9902344 C61.6230857,38.9902344 62,39.4780742 62,39.9430742 L62,56.1799727 C62,56.6449727 61.6230857,57.0219727 61.1581913,57.0219727 L57.9748347,57.0219727 L57.9748347,58.76 C57.9748347,58.8708333 57.8998518,58.9636111 57.7979074,58.9914583 L57.7338895,59 L54.2656933,59 C54.1548852,59 54.0614342,58.9256944 54.0333619,58.8239583 L54.0247481,58.76 L54.0247481,57.0219727 L25.9793877,57.0219727 L25.9793877,58.76 C25.9793877,58.8708333 25.9044047,58.9636111 25.8024603,58.9914583 L25.7384424,59 L22.2656653,59 C22.1548571,59 22.0819095,59 22.0333338,58.8239583 L22.0247201,58.76 L22.0247201,57.0219727 L18.8418087,57.0219727 C18.3769143,57.0219727 18,56.6449727 18,56.1799727 L18,39.9430742 C18,39.4780742 18.3769143,38.9902344 18.8418087,38.9902344 L23.0413347,38.9902344 L23.0423345,22.842 C23.0423345,22.377 23.4192488,22 23.8841432,22 L56.1654627,22 Z M25.9933415,41 L20.0183401,41 L20.0183401,54.9682617 L59.9965588,54.9682617 L60.0092513,41 L54.0106146,41 L54.0247481,48.1538496 C54.0247481,48.6198496 53.6478338,48.9958496 53.1829394,48.9958496 L26.8351502,48.9958496 C26.3702559,48.9958496 25.9933415,48.6198496 25.9933415,48.1538496 L25.9933415,41 Z M52.0286432,44.0407715 L28.0340965,44.0407715 L27.9977278,47 L51.9922745,47 L52.0286432,44.0407715 Z M54.9915928,23.9677734 L24.9732687,23.9677734 L24.9732687,38.9902344 L27.1922878,38.9902344 C27.6571821,38.9902344 28.0340965,39.4780742 28.0340965,39.9430742 L27.972587,43.0244141 L51.9671337,43.0244141 L51.9986207,39.9430742 C51.9986207,39.4780742 52.375535,38.9902344 52.8404294,38.9902344 L54.9915928,38.9902344 L54.9915928,23.9677734 Z" id="Shape"></path>
        </g>
    </g>
</svg>