<svg xmlns="http://www.w3.org/2000/svg" width="80" height="80" viewBox="0 0 80 80">
    <g fill="none" fill-rule="evenodd">
        <g fill="#282826">
            <g>
                <g>
                    <path d="M40.845 18l-.001 19.054h.021c0 3.057 3.184 3.295 4.16 3.295 2.032 0 3.73-1.469 4.089-3.403-1.255-.331-2.243-1.331-2.538-2.656l-.555-1.653c-.085-.258-.043-.542.117-.763.158-.22.414-.351.684-.351h6.413c.272 0 .527.13.686.35.158.222.202.506.117.764l-.578 1.736c-.285 1.299-1.328 2.31-2.64 2.603-.389 2.858-2.84 5.066-5.795 5.066-1.733 0-3.166-.465-4.18-1.294v13.09c0 4.033 3.505 5.47 6.787 5.47 3.466 0 6.333-2.615 6.74-5.98-1.94-.35-3.498-1.816-3.94-3.805l-.86-2.564c-.084-.258-.042-.542.117-.762.158-.22.413-.352.685-.352h9.78c.272 0 .527.131.687.351.158.221.202.505.116.763l-.882 2.648c-.428 1.946-2.028 3.419-4.006 3.737-.42 4.291-4.044 7.657-8.437 7.657-3.617 0-6.335-1.388-7.633-3.722-1.295 2.334-4.014 3.722-7.632 3.722-4.392 0-8.015-3.366-8.435-7.659-1.98-.317-3.58-1.799-4.03-3.819l-.86-2.564c-.084-.258-.041-.542.117-.762.158-.22.415-.352.685-.352h9.78c.272 0 .528.131.687.352.158.22.202.504.116.762l-.883 2.648c-.42 1.916-1.977 3.373-3.913 3.721.405 3.365 3.272 5.98 6.736 5.98 3.281 0 6.788-1.437 6.788-5.47l.001-13.116c-1.016.845-2.461 1.32-4.212 1.32-2.956 0-5.407-2.209-5.795-5.066-1.313-.295-2.359-1.318-2.661-2.687l-.556-1.652c-.085-.258-.042-.542.117-.762.157-.221.413-.352.684-.352h6.414c.271 0 .527.13.686.352.158.22.202.504.116.762l-.579 1.737c-.275 1.255-1.26 2.243-2.513 2.572.358 1.934 2.054 3.403 4.087 3.403.977 0 4.16-.238 4.16-3.295h.051V18h1.69zm18.14 29.538h-7.438l.511 1.533c.357 1.591 1.668 2.643 3.208 2.643 1.54 0 2.849-1.052 3.182-2.559l.537-1.617zm-30.53 0h-7.437l.51 1.533c.358 1.591 1.668 2.643 3.208 2.643 1.54 0 2.849-1.052 3.181-2.558l.537-1.618zm23.612-14.322h-4.072l.208.622c.212.937.954 1.533 1.826 1.533.872 0 1.613-.596 1.804-1.45l.234-.705zm-20.09 0h-4.07l.207.62c.212.94.954 1.535 1.827 1.535.872 0 1.613-.595 1.803-1.45l.233-.705z" transform="translate(-13.000000, -122.000000) translate(-1.000000, 109.000000) translate(14.000000, 13.000000)"/>
                </g>
            </g>
        </g>
    </g>
</svg>
