<?xml version="1.0" encoding="UTF-8"?>
<svg width="38px" height="44px" viewBox="0 0 38 44" version="1.1" xmlns="http://www.w3.org/2000/svg" xmlns:xlink="http://www.w3.org/1999/xlink">
    <!-- Generator: Sketch 63.1 (92452) - https://sketch.com -->
    <title>Shape</title>
    <desc>Created with Sketch.</desc>
    <g id="Symbols" stroke="none" stroke-width="1" fill="none" fill-rule="evenodd">
        <g id="icons-/-mebel-/-hallway" transform="translate(-21.000000, -18.000000)" fill="#000000" fill-rule="nonzero">
            <path d="M58.1506216,18 C58.6193823,18 59,18.38 59,18.848 L59,61.153 C59,61.621 58.6193823,62 58.1506216,62 L21.8493784,62 C21.3796161,62 21,61.621 21,61.153 L21,18.848 C21,18.38 21.3796161,18 21.8493784,18 L58.1506216,18 Z M39.0219225,53.947 L22.9959148,53.947 L22.9959148,60.0065918 L39.0661838,60.0065918 L39.0219225,53.947 Z M57.0460458,53.947 L41.0200382,53.947 L41.0200382,60.0065918 L57.056561,60.0065918 L57.0460458,53.947 Z M31.9782652,56.9767959 L31.9782652,57.9767959 L29.9750142,57.9767959 L29.9750142,56.9767959 L31.9782652,56.9767959 Z M50.0625448,56.9767959 L50.0625448,57.9767959 L48.0592938,57.9767959 L48.0592938,56.9767959 L50.0625448,56.9767959 Z M39.0661838,26.0239316 L30.2019333,26.0239316 L30.2029349,27.6379316 C30.347169,27.6746816 30.4874591,27.7254941 30.6187347,27.7924785 L30.7468175,27.8649316 L34.1974173,29.3689316 C34.5970659,29.6119316 34.7503146,30.0109316 34.6411374,30.3919316 C34.5419765,30.7357316 34.2562127,30.9782816 33.9101682,31.0233536 L33.7927606,31.0309316 L25.6425341,31.0309316 C25.2488953,31.0309316 25.2075039,30.7779316 25.0943202,30.4009316 C24.9933564,30.0616316 24.8043639,29.7061316 25.0674378,29.4809606 L25.1607522,29.4109316 L28.6123536,27.8509316 C28.7477734,27.7597316 28.9146041,27.6979716 29.0948967,27.6538756 L29.2323598,27.6239316 L29.2313582,26.0239316 L22.9959148,26.0239316 L22.9959148,53.0239316 L39.0219225,53.0239316 L39.0661838,26.0239316 Z M57.056561,19.9724121 L41.0200382,19.9724121 L41.0200382,52.9724121 L57.0460458,52.9724121 L57.056561,19.9724121 Z M44.0496129,36.0249023 L44.0496129,39.0249023 L43.0479874,39.0249023 L43.0479874,36.0249023 L44.0496129,36.0249023 Z M30.2960861,28.7199316 C29.8687926,28.4643316 29.502348,28.4695516 29.1821483,28.6371766 L29.0771079,28.6989316 L26.0602119,30.0619316 L33.3750828,30.0619316 L30.2960861,28.7199316 Z M39.0661838,19.9724121 L22.9959148,19.9724121 L22.9959148,25.0549316 L39.0661838,25.0549316 L39.0661838,19.9724121 Z" id="Shape"></path>
        </g>
    </g>
</svg>