<?xml version="1.0" encoding="UTF-8"?>
<svg width="27px" height="46px" viewBox="0 0 27 46" version="1.1" xmlns="http://www.w3.org/2000/svg" xmlns:xlink="http://www.w3.org/1999/xlink">
    <!-- Generator: Sketch 63.1 (92452) - https://sketch.com -->
    <title>Shape</title>
    <desc>Created with Sketch.</desc>
    <g id="Symbols" stroke="none" stroke-width="1" fill="none" fill-rule="evenodd">
        <g id="icons-/-mebel-/-comp-kreslo" transform="translate(-27.000000, -17.000000)" fill="#000000" fill-rule="nonzero">
            <g id="mebel-/-comp-kreslo" transform="translate(27.000000, 17.000000)">
                <path d="M19.132,-1.77635684e-15 C21.722,-1.77635684e-15 23.833,2.09 23.865,4.672 L25.744,18.544 C25.844,20.277 25.265,21.863 24.118,23.077 C23.9310882,23.2746669 23.7334482,23.4578879 23.5263133,23.6261221 C25.0069862,24.1956476 26.06,25.6339618 26.06,27.314 L26.06,29.1183105 C26.06,29.5883105 25.68,30 25.21,30 L17.933,30 L17.9338379,32.1070312 C17.9338379,32.5760313 17.5538379,32.9570312 17.0838379,32.9570312 L14.018,32.957 L14.018,35.888 C14.487,35.888 14.868,36.268 14.868,36.738 L14.868,38.743 L25.491,41.679 C25.859,41.781 26.114,42.116 26.114,42.498 L26.114,45.15 C26.114,45.62 25.734,46 25.265,46 C24.795,46 24.415,45.62 24.415,45.15 L24.415,43.145 L13.791,40.209 C13.423,40.107 13.168,39.772 13.168,39.39 L13.1687086,38.0731029 C13.1318358,38.0776541 13.09485,38.08 13.058,38.08 C13.0218462,38.08 12.9849941,38.0777515 12.9477651,38.0733864 L12.948,39.39 C12.948,39.772 12.693,40.107 12.325,40.209 L1.7,43.145 L1.7,45.15 C1.7,45.62 1.32,46 0.85,46 C0.381,46 3.55271368e-15,45.62 3.55271368e-15,45.15 L3.55271368e-15,42.498 C3.55271368e-15,42.116 0.256,41.781 0.624,41.679 L11.248,38.743 L11.248,36.738 C11.248,36.3014253 11.5758726,35.9425045 11.9991941,35.8936615 L11.999,32.957 L8.86206055,32.9570312 C8.39206055,32.9570312 8.01206055,32.5760313 8.01206055,32.1070312 L8.012,30 L0.905,30 C0.436,30 0.055,29.5883105 0.055,29.1183105 L0.055,27.314 C0.055,25.6337102 1.10892332,24.1952168 2.59034479,23.6240291 C2.38255175,23.4578879 2.18491176,23.2746669 1.998,23.077 C0.851,21.863 0.272,20.277 0.366,18.61 L2.25,4.672 C2.283,2.09 4.394,-1.77635684e-15 6.983,-1.77635684e-15 L19.132,-1.77635684e-15 Z M16.0288086,30 L9.90185547,30 L9.90185547,31 L15.9018555,31 L16.0288086,30 Z M22.107,25 L4.009,25 C2.766,25 1.755,26.071 1.755,27.314 L1.755,27.9736328 L24.361,27.9736328 L24.361,27.314 C24.361,26.071 23.349,25 22.107,25 Z M19.132,2.02441406 L6.983,2.02441406 C5.37071429,2.02441406 4.04761097,2.96459184 3.95516008,4.5549954 L3.95,4.733 C3.95,4.771 3.947,4.809 3.942,4.846 L2.057,18.771 C1.995,19.901 2.411,21.039 3.233,21.91 C4.055,22.78 5.168,23 6.366,23 L19.75,23 C20.948,23 22.06,22.78 22.883,21.91 C23.705,21.039 24.121,19.901 24.052,18.705 L22.173,4.846 L22.168,4.789875 L22.166,4.733 C22.166,3.06 20.805,2.02441406 19.132,2.02441406 Z" id="Shape"></path>
            </g>
        </g>
    </g>
</svg>