<svg xmlns="http://www.w3.org/2000/svg" width="80" height="80" viewBox="0 0 80 80">
    <g fill="none" fill-rule="evenodd">
        <g fill="#000">
            <g>
                <g>
                    <path d="M35.142 61v-1.69h4.333V34.784h-6.63c-.242 0-.474-.104-.635-.286-.16-.182-.234-.425-.204-.666l1.804-14.093c.054-.422.413-.74.838-.74h11.343c.425 0 .785.318.838.74l1.781 13.917c.031.088.048.184.048.283 0 .467-.378.845-.845.845h-2.51l.001 4.065h-1.691v-4.065h-2.448V59.31h4.333V61H35.142zm11.544-29.052H33.953l-.147 1.146h13.027l-.147-1.146zm-1.44-11.257h-9.853l-1.317 10.29h12.487l-1.317-10.29z" transform="translate(-13.000000, -262.000000) translate(-1.000000, 249.000000) translate(14.000000, 13.000000)"/>
                </g>
            </g>
        </g>
    </g>
</svg>
