<?xml version="1.0" encoding="UTF-8"?>
<svg width="28px" height="45px" viewBox="0 0 28 45" version="1.1" xmlns="http://www.w3.org/2000/svg" xmlns:xlink="http://www.w3.org/1999/xlink">
    <!-- Generator: Sketch 63.1 (92452) - https://sketch.com -->
    <title>Shape</title>
    <desc>Created with Sketch.</desc>
    <g id="Symbols" stroke="none" stroke-width="1" fill="none" fill-rule="evenodd">
        <g id="icons-/-mebel-/-kitchen-stool" transform="translate(-26.000000, -18.000000)" fill="#000000" fill-rule="nonzero">
            <path d="M48.177,18 C48.647,18 49.028,18.381 49.028,18.851 L51.0288509,38.834438 C52.3553816,39.2883907 53.312,40.5478133 53.312,42.026 L53.312,43.774 C53.312,44.244 52.931,44.625 52.461,44.625 L52.131,44.625 L52.131,62.149 C52.131,62.619 51.75,63 51.28,63 L47.82,63 C47.35,63 46.969,62.619 46.969,62.149 L46.969,44.625 L32.354,44.625 L32.354,62.149 C32.354,62.619 31.973,63 31.503,63 L28.043,63 C27.573,63 27.192,62.619 27.192,62.149 L27.192,44.625 L26.851,44.625 C26.381,44.625 26,44.244 26,43.774 L26,42.026 C26,40.5474378 26.9571045,39.2877507 28.2841602,38.8340922 L30.284,18.851 C30.284,18.381 30.665,18 31.135,18 L48.177,18 Z M30.652,44.625 L28.894,44.625 L28.894,61.298 L30.652,61.298 L30.652,44.625 Z M50.429,44.625 L48.671,44.625 L48.671,61.298 L50.429,61.298 L50.429,44.625 Z M49.94,40.356 L29.372,40.356 C28.451,40.356 27.702,41.105 27.702,42.026 L27.702,42.923 L51.61,42.923 L51.61,42.026 C51.61,41.105 50.861,40.356 49.94,40.356 Z M47.326,19.702 L31.986,19.702 L29.986,38.653 L49.326,38.653 L47.326,19.702 Z" id="Shape"></path>
        </g>
    </g>
</svg>