<?xml version="1.0" encoding="UTF-8"?>
<svg width="38px" height="44px" viewBox="0 0 38 44" version="1.1" xmlns="http://www.w3.org/2000/svg" xmlns:xlink="http://www.w3.org/1999/xlink">
    <!-- Generator: Sketch 63.1 (92452) - https://sketch.com -->
    <title>Combined Shape</title>
    <desc>Created with Sketch.</desc>
    <g id="Symbols" stroke="none" stroke-width="1" fill="none" fill-rule="evenodd">
        <g id="icons-/-mebel-/-shkaph" transform="translate(-21.000000, -18.000000)" fill="#000000" fill-rule="nonzero">
            <path d="M58.1470168,18 C58.617767,18 59,18.38 59,18.848 L59,61.153 C59,61.621 58.617767,62 58.1470168,62 L21.8529832,62 C21.3812272,62 21,61.621 21,61.153 L21,18.848 C21,18.38 21.3812272,18 21.8529832,18 L58.1470168,18 Z M39,20 L23,20 L23,60 L39,60 L39,20 Z M57,20 L41,20 L41,60 L57,60 L57,20 Z M38,21 L38,59 L24,59 L24,21 L38,21 Z M37,22 L25,22 L25,58 L37,58 L37,22 Z M43.984,38 L43.984,42 L43.016,42 L43.016,38 L43.984,38 Z" id="Combined-Shape"></path>
        </g>
    </g>
</svg>