<svg xmlns="http://www.w3.org/2000/svg" width="80" height="80" viewBox="0 0 80 80">
    <g fill="none" fill-rule="evenodd">
        <g fill="#000" fill-rule="nonzero">
            <g>
                <g>
                    <path d="M52.523 18c.41 0 .758.294.828.697l3.904 22.612c.04.097.06.203.06.315 0 .462-.375.838-.838.838h-6.236l.001 5.491h-1.678l-.001-5.492h-5.18v13.567h6.657c2.193 0 3.978 1.785 3.978 3.98v1.153c0 .463-.375.84-.839.84H27.117c-.463 0-.839-.377-.839-.84v-1.154c0-2.194 1.785-3.979 3.98-3.979h6.654V42.462H23.839c-.247 0-.483-.11-.642-.299-.16-.188-.227-.438-.185-.682l3.934-22.785c.07-.402.418-.697.827-.697h24.75zM50.04 57.706H30.257c-1.269 0-2.3 1.032-2.3 2.301v.315H52.34v-.315c0-1.269-1.03-2.3-2.3-2.3zm-8.334-15.244h-3.115v13.566h3.115V42.462zm13.343-4.072H25.248l-.413 2.395h30.627l-.413-2.394zm-3.232-18.713H28.48l-3.066 17.755h29.469l-3.066-17.755z" transform="translate(-120.000000, -122.000000) translate(106.000000, 109.000000) translate(14.000000, 13.000000)"/>
                </g>
            </g>
        </g>
    </g>
</svg>
