<svg xmlns="http://www.w3.org/2000/svg" width="80" height="80" viewBox="0 0 80 80">
    <g fill="none" fill-rule="evenodd">
        <g fill="#000">
            <g>
                <g>
                    <path d="M43.652 16.82l.005.107v6.148c8.945 5.865 13.418 11.68 13.418 17.447 0 8.944-6.422 14.343-14.343 14.343s-14.342-5.4-14.342-14.343c0-5.766 4.472-11.582 13.417-17.447l-.001-4.637-.181.095c-9.083 4.805-14.559 10.59-16.492 17.345l-.102.37c-1.872 7.042-1.519 14.595 1.07 22.675.388-.196.851-.382 1.38-.559l.42-.133.446-.13.47-.124.494-.12.256-.057.527-.113.273-.054.56-.104.58-.1.6-.093.62-.087.638-.082.654-.075.672-.07.687-.062.702-.056.716-.049.73-.042.369-.018.747-.031.76-.024.77-.015.779-.008.393-.001.784.004c.13 0 .26.003.389.005l.77.015.759.024.748.031.735.038.364.022.716.05.702.055.687.063.671.069.655.075.637.082.62.087.6.094.58.099.56.104.54.11c.087.019.174.037.26.057l.506.117.244.06.47.125.445.129.42.133c1.765.588 2.794 1.294 2.794 2.053 0 .76-1.029 1.465-2.793 2.052l-.42.134-.446.129-.47.124-.494.12-.255.058-.528.112-.272.055-.56.104-.581.099-.6.093-.62.088-.637.082-.655.075-.671.069-.687.063-.702.055-.716.05-.73.041-.37.019-.747.03-.76.024-.77.016-1.172.01-.784-.005-.389-.005-.77-.016-.759-.023-.747-.031-.736-.039-.363-.022-.716-.049-.702-.055-.687-.063-.672-.07-.654-.074-.638-.082-.62-.088-.6-.093-.58-.099-.56-.104-.54-.11-.26-.057-.506-.117-.244-.06-.47-.125-.445-.13-.42-.133c-1.622-.54-2.622-1.18-2.774-1.869l.008.022-.181-.535c-2.87-8.629-3.306-16.74-1.293-24.315 2.09-7.865 8.476-14.418 19.08-19.675.582-.288 1.26.098 1.33.723zm-2.308 41.746c-4.35 0-8.415.382-11.376 1.04-1.055.235-1.931.497-2.584.765l-.107.046.107.045c.588.242 1.356.478 2.273.694l.311.071c2.961.658 7.026 1.04 11.376 1.04s8.415-.382 11.376-1.04c1.055-.234 1.931-.496 2.584-.765l.106-.045-.106-.046c-.587-.241-1.356-.478-2.273-.694l-.31-.07c-2.962-.659-7.026-1.04-11.377-1.04zM32.347 34.18c-1.41 2.165-2.107 4.282-2.107 6.343 0 7.547 5.201 12.492 12.492 12.492 7.29 0 12.492-4.945 12.492-12.492 0-2.06-.696-4.178-2.107-6.343l.035.068c.765 1.51 1.147 3.016 1.147 4.517 0 7.155-5.179 11.474-11.567 11.474s-11.566-4.32-11.566-11.474c0-1.524.393-3.052 1.18-4.585zm9.71 10.35c-2.728.024-5.324.512-7.146 1.356l-.227.11c1.901 2.106 4.724 3.318 8.048 3.318 3.099 0 5.762-1.053 7.65-2.901l-.546-.312c-1.793-1.025-4.681-1.597-7.778-1.57zm.674-19.103l-.306.199c-6.931 4.521-10.334 8.921-10.334 13.14 0 2.244.557 4.221 1.55 5.838l.163-.083c2.112-1.065 5.106-1.656 8.237-1.683 3.265-.029 6.347.555 8.458 1.67l.259.143.752.43c1.189-1.699 1.863-3.845 1.863-6.316 0-4.218-3.402-8.618-10.334-13.14l-.308-.198z" transform="translate(-40.000000, -122.000000) translate(-1.000000, 109.000000) translate(41.000000, 13.000000)"/>
                </g>
            </g>
        </g>
    </g>
</svg>
