<?xml version="1.0" encoding="UTF-8"?>
<svg width="80px" height="80px" viewBox="0 0 80 80" version="1.1" xmlns="http://www.w3.org/2000/svg" xmlns:xlink="http://www.w3.org/1999/xlink">
    <title>menu-garden4</title>
    <g id="Page-1" stroke="none" stroke-width="1" fill="none" fill-rule="evenodd">
        <g id="menu-garden4">
            <path d="M48.848054,19 C49.273054,19 49.697054,19.03 50.118054,19.093 C55.113054,19.825 58.629054,24.653 58.081054,29.95 L58.049054,30.224 L56.896054,39.111 L56.854054,39.392 C57.434054,39.166 58.054054,39.045 58.689054,39.045 C58.918054,39.045 59.145054,39.08 59.364054,39.148 C60.534054,39.511 61.214054,40.732 60.941054,41.925 L60.900054,42.08 L58.401054,50.394 L58.345054,50.562 C57.959054,51.609 57.004054,52.33 55.907054,52.403 L55.722054,52.409 L53.572054,52.409 C53.864054,52.735 54.120054,53.097 54.334054,53.491 L54.486054,53.791 L58.046054,63.277 L58.088054,63.38 C58.240054,63.833 58.032054,64.338 57.588054,64.546 C57.146054,64.755 56.624054,64.593 56.372054,64.186 L56.319054,64.089 L52.759054,54.603 L52.669054,54.423 C52.081054,53.33 51.001054,52.594 49.781054,52.44 C50.063054,52.76 50.312054,53.114 50.520054,53.498 L50.668054,53.791 L52.319054,60.413 L52.361054,60.516 C52.513054,60.969 52.305054,61.475 51.861054,61.683 C51.419054,61.891 50.897054,61.729 50.645054,61.323 L50.592054,61.225 L49.345054,56.227 L30.656054,56.227 L29.410054,61.225 C29.186054,61.702 28.618054,61.907 28.140054,61.683 C27.697054,61.475 27.489054,60.969 27.641054,60.516 L27.683054,60.413 L29.333054,53.791 C29.568054,53.293 29.868054,52.841 30.221054,52.44 C29.000054,52.593 27.920054,53.33 27.334054,54.424 L27.244054,54.604 L23.684054,64.089 C23.459054,64.566 22.890054,64.771 22.414054,64.546 C21.970054,64.338 21.762054,63.833 21.914054,63.38 L21.955054,63.277 L25.515054,53.791 C25.755054,53.281 26.065054,52.817 26.430054,52.409 L24.280054,52.409 C23.106054,52.409 22.064054,51.667 21.657054,50.562 L21.601054,50.394 L19.101054,42.08 C18.729054,40.84 19.416054,39.527 20.637054,39.148 C20.856054,39.08 21.083054,39.045 21.312054,39.045 C21.946054,39.045 22.567054,39.165 23.147054,39.392 L23.105054,39.111 L21.952054,30.224 C21.251054,24.821 24.802054,19.838 29.884054,19.093 C30.304054,19.031 30.728054,19 31.153054,19 L48.847054,19 L48.848054,19 Z M45.485054,52.41 L34.517054,52.41 C33.105054,52.41 31.814054,53.188 31.152054,54.424 L31.062054,54.604 L30.894054,55.272 L49.107054,55.272 L48.940054,54.603 L48.850054,54.423 C48.221054,53.25 47.025054,52.488 45.696054,52.415 L45.485054,52.409 L45.485054,52.41 Z M53.319054,47.636 L26.683054,47.636 C26.131054,47.636 25.683054,48.084 25.683054,48.636 L25.683054,50.5 L54.319054,50.5 L54.319054,48.636 C54.319054,48.084 53.871054,47.636 53.319054,47.636 L53.319054,47.636 Z M21.313054,40.943 C21.269054,40.943 21.225054,40.95 21.183054,40.963 C20.975054,41.028 20.847054,41.233 20.872054,41.446 L20.888054,41.526 L23.387054,49.84 C23.453054,50.06 23.592054,50.241 23.773054,50.36 L23.773054,48.773 C23.773054,47.091 25.136054,45.728 26.818054,45.728 C26.353054,45.366 25.320054,44.135 23.720054,42.036 C23.107054,41.341 22.232054,40.943 21.313054,40.943 L21.313054,40.943 Z M58.689054,40.943 C57.836054,40.943 57.020054,41.286 56.417054,41.892 L56.282054,42.036 C54.799054,44.011 53.865054,45.162 53.478054,45.489 L53.183054,45.729 C54.865054,45.729 56.228054,47.092 56.229054,48.773 L56.229054,50.36 C56.373054,50.265 56.492054,50.13 56.567054,49.967 L56.615054,49.84 L59.114054,41.526 L59.130054,41.446 C59.155054,41.234 59.027054,41.028 58.819054,40.963 C58.777054,40.95 58.733054,40.943 58.689054,40.943 Z M33.015054,43.818 L27.538054,43.82 C28.778054,44.924 30.358054,45.6 32.071054,45.658 L32.307054,45.661 L33.342054,45.661 L33.015054,43.818 L33.015054,43.818 Z M46.987054,43.818 L46.660054,45.661 L47.695054,45.661 L47.931054,45.658 C49.543054,45.604 51.037054,45.001 52.241054,44.01 L52.464054,43.82 L46.987054,43.818 L46.987054,43.818 Z M39.073054,43.818 L34.913054,43.818 L35.240054,45.661 L39.073054,45.661 L39.073054,43.818 L39.073054,43.818 Z M45.089054,43.818 L40.956054,43.818 L40.956054,45.66 L44.762054,45.661 L45.089054,43.818 L45.089054,43.818 Z M32.509054,40.955 L25.509054,40.955 C25.799054,41.652 26.179054,42.294 26.634054,42.865 L32.847054,42.864 L32.509054,40.954 L32.509054,40.955 Z M54.493054,40.955 L47.493054,40.955 L47.155054,42.864 L53.368054,42.864 C53.747054,42.389 54.074054,41.864 54.341054,41.299 L54.493054,40.955 Z M39.073054,40.955 L34.407054,40.955 L34.745054,42.864 L39.073054,42.864 L39.073054,40.954 L39.073054,40.955 Z M45.595054,40.955 L40.955054,40.955 L40.955054,42.864 L45.257054,42.864 L45.595054,40.954 L45.595054,40.955 Z M32.001054,38.09 L24.847054,38.09 L24.945054,38.84 C24.997054,39.238 25.075054,39.625 25.179054,40 L32.341054,40 L32.001054,38.09 Z M55.153054,38.09 L48.001054,38.09 L47.662054,40 L54.822054,40.001 C54.891054,39.751 54.949054,39.496 54.995054,39.235 L55.055054,38.841 L55.155054,38.091 L55.153054,38.09 Z M46.101054,38.09 L40.955054,38.09 L40.955054,40 L45.763054,40 L46.101054,38.09 Z M39.071054,38.09 L33.901054,38.09 L34.238054,40 L39.073054,40 L39.073054,38.09 L39.071054,38.09 Z M31.494054,35.226 L24.475054,35.226 L24.723054,37.136 L31.832054,37.136 L31.494054,35.226 Z M39.072054,35.226 L33.392054,35.226 L33.730054,37.136 L39.072054,37.136 L39.072054,35.226 Z M46.607054,35.226 L40.955054,35.226 L40.955054,37.136 L46.270054,37.136 L46.607054,35.226 Z M55.525054,35.226 L48.505054,35.226 L48.168054,37.136 L55.277054,37.136 L55.525054,35.226 L55.525054,35.226 Z M39.072054,32.363 L32.886054,32.363 L33.224054,34.272 L39.072054,34.272 L39.072054,32.362 L39.072054,32.363 Z M30.987054,32.363 L24.105054,32.363 L24.352054,34.272 L31.325054,34.272 L30.987054,32.362 L30.987054,32.363 Z M55.895054,32.363 L49.013054,32.363 L48.675054,34.272 L55.648054,34.272 L55.895054,32.362 L55.895054,32.363 Z M47.115054,32.363 L40.955054,32.363 L40.955054,34.272 L46.776054,34.272 L47.114054,32.362 L47.115054,32.363 Z M30.481054,29.5 L23.746054,29.5 L23.764054,29.71 L23.792054,29.954 L23.980054,31.409 L30.818054,31.409 L30.481054,29.5 Z M39.071054,29.5 L32.381054,29.5 L32.718054,31.41 L39.073054,31.41 L39.073054,29.5 L39.071054,29.5 Z M56.254054,29.5 L49.521054,29.5 L49.184054,31.41 L56.022054,31.41 L56.210054,29.954 L56.238054,29.71 L56.256054,29.5 L56.254054,29.5 Z M47.620054,29.5 L40.955054,29.5 L40.955054,31.41 L47.283054,31.41 L47.620054,29.5 L47.620054,29.5 Z M39.072054,26.636 L31.872054,26.636 L32.210054,28.546 L39.072054,28.546 L39.072054,26.636 Z M55.975054,26.636 L50.026054,26.636 L49.688054,28.546 L56.272054,28.546 C56.252054,28.02 56.183054,27.506 56.069054,27.007 L55.975054,26.637 L55.975054,26.636 Z M48.128054,26.636 L40.955054,26.636 L40.955054,28.546 L47.790054,28.546 L48.128054,26.636 Z M29.974054,26.636 L24.025054,26.636 C23.855054,27.249 23.753054,27.889 23.728054,28.546 L30.312054,28.546 L29.974054,26.636 L29.974054,26.636 Z M29.468054,23.773 L25.481054,23.773 C25.024054,24.348 24.644054,24.991 24.356054,25.682 L29.806054,25.682 L29.469054,23.772 L29.468054,23.773 Z M54.520054,23.773 L50.532054,23.773 L50.195054,25.682 L55.645054,25.682 C55.405054,25.106 55.101054,24.563 54.742054,24.066 L54.520054,23.773 Z M39.072054,23.773 L31.365054,23.773 L31.703054,25.682 L39.072054,25.682 L39.072054,23.772 L39.072054,23.773 Z M48.635054,23.773 L40.955054,23.773 L40.955054,25.682 L48.297054,25.682 L48.635054,23.772 L48.635054,23.773 Z M39.072054,20.974 L31.152054,20.974 L30.872054,20.981 L31.197054,22.818 L39.072054,22.818 L39.072054,20.974 L39.072054,20.974 Z M29.031054,21.303 C28.038054,21.616 27.141054,22.139 26.381054,22.818 L29.299054,22.818 L29.031054,21.303 Z M50.969054,21.303 L50.701054,22.818 L53.620054,22.818 C52.943054,22.215 52.160054,21.734 51.297054,21.415 L50.969054,21.303 L50.969054,21.303 Z M48.847054,20.975 L40.955054,20.974 L40.955054,22.818 L48.803054,22.818 L49.128054,20.981 L48.848054,20.975 L48.847054,20.975 Z" id="Shape" fill="#000000" fill-rule="nonzero"></path>
        </g>
    </g>
</svg>