<svg xmlns="http://www.w3.org/2000/svg" width="80" height="80" viewBox="0 0 80 80">
    <g fill="none" fill-rule="evenodd">
        <g fill="#000" fill-rule="nonzero">
            <g>
                <g>
                    <path d="M45.227 18c.648 0 1.251.313 1.625.833L57 34h-5v9.086c.583.206 1 .761 1 1.414 0 .828-.672 1.5-1.5 1.5s-1.5-.672-1.5-1.5c0-.653.418-1.209 1-1.415V34h-8v3.19c.215-.078.44-.133.67-.163l.204-.02.206-.007c1.741 0 3.157 1.417 3.157 3.16 0 .96-.412 1.868-1.111 2.51l-.167.142.065.233c.052.213.091.428.117.646l.03.329.01.33c0 .863-.2 1.698-.578 2.458l-.157.292.104.078c.256.204.493.45.7.726l.15.214.14.225c.415.72.603 1.51.538 2.229l-.031.236-.01.044.04.034c.102.097.198.202.285.313l.126.172.114.181c.852 1.477.29 3.396-1.203 4.45L51 55c1.105 0 2 .895 2 2v3c0 1.105-.895 2-2 2H29c-1.105 0-2-.895-2-2v-3c0-1.105.895-2 2-2l4.602 1.001c-1.494-1.053-2.054-2.972-1.202-4.449.107-.186.233-.358.376-.515l.15-.151.038-.034-.01-.044c-.109-.63-.011-1.329.273-1.996l.116-.249.119-.22c.221-.384.494-.724.8-1.004l.19-.16.102-.079-.157-.295c-.286-.578-.47-1.199-.542-1.841l-.027-.323-.008-.29c0-.333.03-.662.09-.985l.068-.32.063-.234c-.685-.553-1.134-1.347-1.248-2.214l-.022-.218-.007-.22c0-1.743 1.416-3.16 3.158-3.16.374 0 .739.067 1.08.191L37 34H23l10.06-15.032c.362-.6 1.012-.968 1.713-.968h10.454zM27 29h26v1H27v-1zm2 26h5v1h-5v-1zm17 0h5v1h-5v-1zm5 2H29v3h22v-3zm-15.785-5.37c-.594 0-1.13.256-1.407.736-.452.783-.041 1.87.916 2.423.477.276 1.012.376 1.508.284.464-.087.836-.337 1.047-.702.21-.366.24-.812.083-1.258-.167-.476-.522-.89-.999-1.165-.371-.215-.77-.318-1.148-.318zm9.57 0c-.376 0-.776.103-1.147.317-.957.553-1.367 1.64-.915 2.424.21.365.582.615 1.047.702.495.092 1.03-.008 1.508-.284.956-.553 1.367-1.64.915-2.423-.276-.48-.813-.736-1.407-.736zm-2.064-2.648c-.597.308-1.259.519-1.962.607l-.212.023h-1.093c-.782-.07-1.517-.29-2.174-.63-.27.585-.515 1.224-.71 1.847.115.05.228.107.34.171.702.406 1.23 1.028 1.483 1.75.254.721.209 1.46-.126 2.09.312.101.64.174.981.218l.206.022h1.093c.414-.037.813-.118 1.187-.24-.687-1.297-.092-3.002 1.358-3.84.11-.064.224-.12.338-.17-.193-.624-.439-1.263-.709-1.848zm1.205-.835c-.09.081-.182.16-.278.236.326.685.615 1.432.841 2.17.32-.029.637-.01.937.055.088-.364.023-.902-.295-1.452-.343-.595-.83-.934-1.205-1.01zm-7.851 0c-.374.075-.862.414-1.205 1.01-.317.55-.383 1.087-.295 1.451.3-.065.617-.084.937-.055.226-.738.516-1.485.841-2.17-.095-.076-.188-.155-.278-.236zm3.926-7.989c-2.511 0-4.554 1.881-4.554 4.193 0 2.312 2.043 4.192 4.554 4.192 2.51 0 4.554-1.88 4.554-4.192 0-2.312-2.043-4.193-4.554-4.193zm0 3.281c.447 0 .775.065 1.032.204.391.211.607.592.607 1.072 0 .68-.414 1.263-1.003 1.512l-.09.035v1.005c0 .302-.245.547-.546.547-.282 0-.514-.213-.544-.487l-.003-.06v-1.005c-.636-.226-1.093-.834-1.093-1.547 0-.48.216-.86.607-1.072.258-.139.586-.204 1.033-.204zm0 1.094c-.21 0-.34.019-.42.038l-.055.017-.035.016-.024.015-.006.018c-.003.016-.007.042-.007.078 0 .302.245.547.547.547.301 0 .546-.245.546-.547 0-.036-.004-.062-.007-.078l-.008-.02-.022-.014-.034-.015-.093-.025-.054-.01-.14-.014c-.054-.004-.116-.006-.188-.006zm2.368-1.823c.301 0 .546.245.546.547 0 .302-.245.547-.546.547-.302 0-.547-.245-.547-.547 0-.302.245-.547.547-.547zm-4.736 0c.301 0 .546.245.546.547 0 .302-.245.547-.546.547-.302 0-.547-.245-.547-.547 0-.302.245-.547.547-.547zM51.5 44c-.276 0-.5.224-.5.5s.224.5.5.5.5-.224.5-.5-.224-.5-.5-.5zm-7.42-5.373c-.57 0-1.09.317-1.354.817l-.044.09-.061.135c.915.45 1.682 1.129 2.215 1.954.475-.325.775-.873.775-1.463 0-.845-.687-1.533-1.531-1.533zm-8.158 0c-.845 0-1.532.688-1.532 1.533 0 .59.3 1.138.775 1.463.498-.77 1.2-1.412 2.034-1.86l.181-.094-.06-.135c-.247-.551-.795-.907-1.398-.907zM41 34h-2v4.608l.177-.025.234-.025.235-.017.355-.01c.336 0 .67.026 1 .077L41 34zm4.227-14H34.773l-8.234 12H53.46l-8.233-12z" transform="translate(-227.000000, -262.000000) translate(213.000000, 249.000000) translate(14.000000, 13.000000)"/>
                </g>
            </g>
        </g>
    </g>
</svg>
