<svg xmlns="http://www.w3.org/2000/svg" width="80" height="80" viewBox="0 0 80 80">
    <g fill="none" fill-rule="evenodd">
        <g fill="#000" fill-rule="nonzero">
            <g>
                <g>
                    <g>
                        <path d="M30.817 0c2.705 0 5.271.873 7.424 2.525.146.112.252.269.302.446.022.077.035.165.035.245 0 .186-.06.368-.173.518L24.764 21.886c-.133.176-.327.295-.545.331-.048.008-.097.012-.146.012-.182 0-.366-.056-.515-.166-3.616-2.658-5.426-7.007-4.887-11.336l-9.09 8.592c.022.18.032.362.032.547 0 1.207-.458 2.308-1.208 3.137l6.54 13.06h8.306c.475 0 .86.386.86.861v4.216c0 .475-.385.86-.86.86H.86C.384 42 0 41.615 0 41.14v-4.216c0-.475.385-.86.86-.86l8.616-.001-5.989-11.786c-1.82-.629-3.131-2.369-3.131-4.41 0-2.572 2.076-4.663 4.63-4.663.577 0 1.13.107 1.64.303l10.09-9.537c-.316-1.293-.074-2.712.786-3.858.877-1.17 2.219-1.84 3.682-1.84 1.002 0 1.956.317 2.757.92l.664.496C26.485.582 28.619 0 30.817 0zM22.39 37.785H1.722v2.493h20.67v-2.493zM7.07 24.178c-.498.19-1.012.276-1.469.309l-.07.008 5.748 11.31h1.613L7.069 24.178zm-2.084-7.253c-1.603 0-2.907 1.32-2.907 2.941 0 1.376.94 2.534 2.204 2.853.107.019.51.084.999.072 1.463-.15 2.61-1.405 2.61-2.925 0-1.621-1.305-2.94-2.906-2.94zM30.817 1.721c-2.064 0-4.065.598-5.785 1.727-.303.2-.7.188-.989-.03l-1.133-.85c-.504-.376-1.1-.576-1.726-.576-.916 0-1.756.42-2.304 1.153-.954 1.27-.695 3.078.576 4.03l1.07.805c.297.221.419.606.303.958-1.334 4.055-.092 8.455 3.087 11.21L36.501 3.402c-1.696-1.102-3.645-1.681-5.684-1.681zM17.378 7.715l-9.228 8.72c.342.298.642.638.899 1.019l9.26-8.752-.93-.987z" transform="translate(-120.000000, -262.000000) translate(106.000000, 249.000000) translate(14.000000, 13.000000) translate(21.000000, 19.000000)"/>
                    </g>
                </g>
            </g>
        </g>
    </g>
</svg>
