<?xml version="1.0" encoding="UTF-8"?>
<svg width="45px" height="40px" viewBox="0 0 45 40" version="1.1" xmlns="http://www.w3.org/2000/svg" xmlns:xlink="http://www.w3.org/1999/xlink">
    <title>menu-garden2</title>
    <g id="Page-1" stroke="none" stroke-width="1" fill="none" fill-rule="evenodd">
        <g id="menu-garden2" transform="translate(0.500000, 0.000000)" fill="#000000" fill-rule="nonzero">
            <path d="M9.591,0.516 L9.591,13.34 L15.297,18.801 L17.81,18.801 C18.388,18.801 18.857,19.271 18.857,19.849 C18.857,20.389 18.448,20.834 17.924,20.891 L17.81,20.897 L16.81,20.897 C17.136,24.499 19.127,27.628 22.005,29.507 C24.895,27.624 26.751,24.624 27.155,21.247 L27.191,20.897 L26.191,20.897 C25.612,20.897 25.143,20.428 25.143,19.849 C25.143,19.309 25.552,18.865 26.076,18.808 L26.19,18.802 L28.64,18.802 L34.347,13.34 L34.347,0.516 C34.347,0.231 34.578,0 34.863,0 C35.148,0 35.379,0.23 35.379,0.516 L35.379,13.34 L41.085,18.801 L42.952,18.801 C43.531,18.801 44,19.271 44,19.849 C44,20.389 43.591,20.834 43.067,20.891 L42.952,20.897 L41.877,20.897 C41.33,31.387 32.624,39.754 22,39.754 C11.494,39.754 2.863,31.572 2.144,21.246 L2.123,20.897 L1.048,20.897 C0.469,20.897 0,20.428 0,19.849 C0,19.309 0.409,18.865 0.933,18.808 L1.048,18.802 L2.853,18.802 L8.559,13.342 L8.559,0.515 C8.56,0.23 8.792,0 9.077,0 C9.362,0 9.592,0.23 9.592,0.516 L9.591,0.516 Z M14.707,20.897 L4.222,20.897 C4.766,30.231 12.532,37.659 22,37.659 C27.45,37.659 32.335,35.199 35.605,31.33 C33.49,32.683 30.978,33.468 28.285,33.468 C21.239,33.468 15.425,28.088 14.735,21.22 L14.707,20.897 Z M39.761,20.897 L29.291,20.897 C29.136,22.919 28.533,24.887 27.521,26.642 C26.643,28.164 25.474,29.504 24.094,30.584 C25.394,31.094 26.808,31.374 28.286,31.374 C34.186,31.374 39.062,26.917 39.731,21.194 L39.761,20.897 Z M34.863,14.276 L30.133,18.801 L39.593,18.801 L34.863,14.276 Z M9.075,14.276 L4.345,18.801 L13.805,18.801 L9.075,14.276 Z" id="Shape"></path>
            <rect id="Rectangle" x="0" y="2" width="44" height="2" rx="1"></rect>
        </g>
    </g>
</svg>