<svg xmlns="http://www.w3.org/2000/svg" width="80" height="80" viewBox="0 0 80 80">
    <g fill="none" fill-rule="evenodd">
        <g stroke="#000">
            <g>
                <g>
                    <g>
                        <path fill="#FFF" stroke-width="2" d="M13 1H32V5H13zM24 5v4.336c1.182.562 2 1.767 2 3.164 0 .966-.392 1.841-1.025 2.475C24.34 15.608 23.466 16 22.5 16c-.966 0-1.841-.392-2.475-1.025C19.392 14.34 19 13.466 19 12.5c0-1.396.818-2.601 2-3.163h0V5h3z" transform="translate(-227.000000, -402.000000) translate(213.000000, 389.000000) translate(14.000000, 13.000000) translate(18.000000, 18.000000)"/>
                        <path fill="#FFF" stroke-width="2" d="M27.255 15.031l-2.076 3.597-9.813-5.666 2.076-3.596 9.813 5.665z" transform="translate(-227.000000, -402.000000) translate(213.000000, 389.000000) translate(14.000000, 13.000000) translate(18.000000, 18.000000)"/>
                        <g transform="translate(-227.000000, -402.000000) translate(213.000000, 389.000000) translate(14.000000, 13.000000) translate(18.000000, 18.000000) translate(22.000000, 25.661095) rotate(30.000000) translate(-22.000000, -25.661095) translate(2.516892, 15.406828)">
                            <path fill="#FFF" stroke-width="2" d="M31.814 1V19.51H5.159c-.495-.036-.954-.264-1.374-.619-.538-.455-1.009-1.112-1.408-1.91C1.51 15.246 1 12.87 1 10.254c0-2.603.506-4.969 1.346-6.702.392-.807.852-1.472 1.375-1.934.395-.349.823-.578 1.283-.613h0L31.814 1z"/>
                            <path d="M32.314.5V20.01H9.244c-.603-.04-1.167-.304-1.68-.737-.584-.494-1.1-1.203-1.532-2.068-.896-1.792-1.43-4.246-1.43-6.95 0-2.689.528-5.13 1.396-6.92.424-.875.928-1.591 1.493-2.09C7.983.81 8.52.543 9.088.504h0L32.314.5z"/>
                            <ellipse cx="32.814" cy="10.254" fill="#FFF" stroke-width="2" rx="5.153" ry="9.254"/>
                            <ellipse cx="32.814" cy="10.254" fill="#FFF" rx="2.576" ry="5.653"/>
                        </g>
                    </g>
                </g>
            </g>
        </g>
    </g>
</svg>
