<?xml version="1.0" encoding="UTF-8"?>
<svg width="42px" height="26px" viewBox="0 0 42 26" version="1.1" xmlns="http://www.w3.org/2000/svg" xmlns:xlink="http://www.w3.org/1999/xlink">
    <!-- Generator: Sketch 63.1 (92452) - https://sketch.com -->
    <title>Shape</title>
    <desc>Created with Sketch.</desc>
    <g id="Symbols" stroke="none" stroke-width="1" fill="none" fill-rule="evenodd">
        <g id="icons-/-mebel-/-bedroom" transform="translate(-19.000000, -28.000000)" fill="#000000" fill-rule="nonzero">
            <path d="M55.2225719,28 C55.6781576,28 56.0476327,28.369 56.0476327,28.825 L56.0476327,37 L57.2552146,37.0039062 C57.7118016,37.0039062 58.0812767,37.3729063 58.0812767,37.8289062 L58.0802754,39.999 L60.1749392,40 C60.630525,40 61,40.369 61,40.825 L61,51.221 C61,51.676 60.630525,52.045 60.1749392,52.045 L56.7965956,52.044 L56.7975969,53.764 C56.7975969,53.8723333 56.723891,53.964 56.6239941,53.9915463 L56.5612931,54 L53.9749678,54 C53.866495,54 53.7747103,53.9263889 53.7471286,53.8266204 L53.738664,53.764 L53.7376627,52.044 L26.7960235,52.044 L26.7970247,53.764 C26.7970247,53.8723333 26.7233189,53.964 26.6234219,53.9915463 L26.5607209,54 L23.9743957,54 C23.8659229,54 23.7741382,53.9263889 23.7465564,53.8266204 L23.7380918,53.764 L23.7370905,52.044 L19.8260621,52.045 C19.3704763,52.045 19,51.676 19,51.221 L19,40.825 C19,40.369 19.3704763,40 19.8260621,40 L22.034419,39.999 L22.0354203,37.8289062 C22.0354203,37.3729063 22.4048953,37.0039062 22.8614823,37.0039062 L24.0064368,37.0029063 L24.0074381,28.825 C24.0074381,28.369 24.3769132,28 24.8324989,28 L55.2225719,28 Z M59.0514948,42 L21.0025747,42 L21.0025747,50 L59.0514948,50 L59.0514948,42 Z M55.9264769,38.9804688 L24.0064368,39 L24.0064368,40 L55.9264769,39.9804688 L55.9264769,38.9804688 Z M54.0450579,29.9675293 L26.0090116,29.9675293 L26.0090116,37.0039062 L32.0167358,36.9675293 L32.0167358,32 C32.1849521,32.0424707 46.724646,32.0424707 47.0360463,32 L47.0360463,36.9675293 L54.0450579,37.0039062 L54.0450579,29.9675293 Z M46.034759,33 L33.0180232,33 L33.0180232,37.0039062 L46.034759,37.0039062 L46.034759,33 Z" id="Shape"></path>
        </g>
    </g>
</svg>