<?xml version="1.0" encoding="UTF-8"?>
<svg width="26px" height="43px" viewBox="0 0 26 43" version="1.1" xmlns="http://www.w3.org/2000/svg" xmlns:xlink="http://www.w3.org/1999/xlink">
    <!-- Generator: Sketch 63.1 (92452) - https://sketch.com -->
    <title>Shape</title>
    <desc>Created with Sketch.</desc>
    <g id="Symbols" stroke="none" stroke-width="1" fill="none" fill-rule="evenodd">
        <g id="icons-/-mebel-/-bar-stool" transform="translate(-27.000000, -19.000000)" fill="#000000" fill-rule="nonzero">
            <g id="mebel-/-bar-stool" transform="translate(27.000000, 19.000000)">
                <path d="M24.9583333,0 C25.603191,0 26,0.41916823 26,1.16666667 L26,4.83333333 C26,5.58083177 25.603191,6 24.9583333,6 L23.104,6 L24.9988692,42.107211 C25.0108842,42.3403281 24.926779,42.5665013 24.7645763,42.7361312 C24.6023735,42.9047692 24.3780931,43 24.1438002,43 L20.5933619,43 C20.1377924,43 19.762323,42.6458604 19.7382929,42.1954979 L19,37 L7,37 L6.26269728,42.1954979 C6.23866724,42.6458604 5.86319787,43 5.40662712,43 L1.85718999,43 C1.62189585,43 1.39761548,42.9047692 1.23541271,42.7361312 C1.07421119,42.5665013 0.989104803,42.3403281 1.00111982,42.107211 L2.895,6 L1.04166667,6 C0.396808952,6 0,5.58083177 0,4.83333333 L0,1.16666667 C0,0.41916823 0.396808952,0 1.04166667,0 L24.9583333,0 Z M21.228,6 L19.439,6 L20.7531607,32.0931931 C20.7648782,32.3278906 20.6828554,32.5575733 20.5246685,32.7280801 C20.3674581,32.8985869 20.1477541,32.994873 19.919262,32.994873 L6.080738,32.994873 C5.85224586,32.994873 5.63254189,32.8985869 5.47435502,32.7280801 C5.31714462,32.5575733 5.2351218,32.3278906 5.24683935,32.0931931 L6.559,6 L4.771,6 L3,41 L4.78887861,41 L5.06619385,35.7885153 C5.08962894,35.3321589 5.45580224,34.9750977 5.90106897,34.9750977 L20.098931,34.9750977 C20.5441978,34.9750977 20.9103711,35.3321589 20.9338061,35.7885153 L21.2101449,41 L23,41 L21.228,6 Z M17.838,6 L8.162,6 L7,31 L19,31 L17.838,6 Z M24,2 L2,2 L2,4 L24,4 L24,2 Z" id="Shape"></path>
            </g>
        </g>
    </g>
</svg>