<?xml version="1.0" encoding="UTF-8"?>
<svg width="45px" height="36px" viewBox="0 0 45 36" version="1.1" xmlns="http://www.w3.org/2000/svg" xmlns:xlink="http://www.w3.org/1999/xlink">
    <!-- Generator: Sketch 63.1 (92452) - https://sketch.com -->
    <title>Shape</title>
    <desc>Created with Sketch.</desc>
    <g id="Symbols" stroke="none" stroke-width="1" fill="none" fill-rule="evenodd">
        <g id="icons-/-mebel-/-comp-stol" transform="translate(-18.000000, -23.000000)" fill="#000000" fill-rule="nonzero">
            <g id="Group" transform="translate(18.000000, 23.000000)">
                <path d="M25.1434326,2.66453526e-15 C25.6114326,2.66453526e-15 25.9904326,0.38 25.9904326,0.848 L25.9904326,11.1118389 C25.9904326,11.5808389 25.6114326,12 25.1434326,12 L18.411,12 L19.155,13.915 L19.178,13.999 L44,14 C44.6207893,14 45,14.4091989 45,15 L45,18 C45,18.5908011 44.6207893,19 44,19 L43,18.999 L43,34.153 C43,34.621 42.621,35 42.152,35 L28.0344238,35 C27.4514238,35.319 27.038,34.621 27,33.681 L27,19 L16.5421143,19 L4,19 L4,35 L2,35 L2,18.999 L1,19 C0.379210673,19 0,18.5908011 0,18 L0,15 C0,14.4091989 0.379210673,14 1,14 L11.6302467,13.9993906 L11.655,13.915 L12.396,12 L5.85229492,12 C5.38429492,12 5.00429492,11.5808389 5.00429492,11.1118389 L5.00429492,0.848 C5.00429492,0.38 5.38429492,2.66453526e-15 5.85229492,2.66453526e-15 L25.1434326,2.66453526e-15 Z M41.056,24.988 L28.987,24.988 L28.987793,33.0258789 L41.0561523,33.0258789 L41.056,24.988 Z M36,27.0155 L36,27.9845 L34,27.9845 L34,27.0155 L36,27.0155 Z M41.0561523,19 L28.987793,19 L28.987,24.019 L41.056,24.019 L41.0561523,19 Z M36,21.0155 L36,21.9845 L34,21.9845 L34,21.0155 L36,21.0155 Z M43,16 L2,16 L2,17 L43,17 L43,16 Z M16.665,12 L14.145,12 L13.651,13.999 L17.159,13.999 L16.665,12 Z M24,2 L6.99414062,2 L6.99414062,9.99902344 L24,9.99902344 L24,2 Z" id="Shape"></path>
            </g>
        </g>
    </g>
</svg>