<?xml version="1.0" encoding="UTF-8"?>
<svg width="44px" height="30px" viewBox="0 0 44 30" version="1.1" xmlns="http://www.w3.org/2000/svg" xmlns:xlink="http://www.w3.org/1999/xlink">
    <!-- Generator: Sketch 63.1 (92452) - https://sketch.com -->
    <title>Combined Shape</title>
    <desc>Created with Sketch.</desc>
    <g id="Symbols" stroke="none" stroke-width="1" fill="none" fill-rule="evenodd">
        <g id="icons-/-mebel-/-entrance" transform="translate(-18.000000, -25.000000)" fill="#000000" fill-rule="nonzero">
            <g id="Group" transform="translate(18.000000, 25.000000)">
                <path d="M34.147929,-5.32907052e-15 C34.6190259,-5.32907052e-15 35,0.364777407 35,0.81486566 L35,14.1841538 C35,14.6352226 34.6190259,15 34.147929,15 L25.999,14.999 L25.999,17 L43.1609828,17 C43.6248625,17 44,17.3768703 44,17.8428928 L44,29.1571072 C44,29.6221166 43.6248625,30 43.1609828,30 L0.839017235,30 C0.375137514,30 4.97379915e-14,29.6221166 4.97379915e-14,29.1571072 L4.97379915e-14,17.8428928 C4.97379915e-14,17.3768703 0.375137514,17 0.839017235,17 L17.999,17 L17.999,14.999 L9.85207101,15 C9.38097406,15 9,14.6352226 9,14.1841538 L9,0.81486566 C9,0.364777407 9.38097406,-5.32907052e-15 9.85207101,-5.32907052e-15 L34.147929,-5.32907052e-15 Z M11.999,19 L2,19 L2,28 L11.999,28 L11.999,19 Z M31,19 L12.999,19 L12.999,23 L31,23 L31,24 L12.999,24 L12.999,28 L31,28 L31,19 Z M42,19 L32,19 L32,28 L42,28 L42,19 Z M23,26 L23,27 L21,27 L21,26 L23,26 Z M23,21 L23,22 L21,22 L21,21 L23,21 Z M24,15 L20,15 L20,17 L24,17 L24,15 Z M33.0322266,2 L11,2 L11,13.0004883 L33.0322266,13.0004883 L33.0322266,2 Z" id="Combined-Shape"></path>
            </g>
        </g>
    </g>
</svg>