<?xml version="1.0" encoding="UTF-8"?>
<svg width="41px" height="46px" viewBox="0 0 41 46" version="1.1" xmlns="http://www.w3.org/2000/svg" xmlns:xlink="http://www.w3.org/1999/xlink">
    <!-- Generator: Sketch 63.1 (92452) - https://sketch.com -->
    <title>Shape</title>
    <desc>Created with Sketch.</desc>
    <g id="Symbols" stroke="none" stroke-width="1" fill="none" fill-rule="evenodd">
        <g id="icons-/-mebel-/-kidz" transform="translate(-20.000000, -17.000000)" fill="#000000" fill-rule="nonzero">
            <path d="M30,17 C30.5128358,17 30.9355072,17.3860402 30.9932723,17.8833789 L31,18 L30.999,36.999 L51.1508397,37 C51.6197195,37 52,37.3882972 52,37.8670615 L52.0010439,59.1028946 C54.9564487,57.8252526 57.3984978,56.0370721 58.9919706,53.866 C59.2699706,53.485 59.8039706,53.405 60.1829706,53.682 C60.5629706,53.961 60.6449706,54.494 60.3659706,54.874 C56.7109706,59.855 49.1099706,63 40.8449706,63 C40.5779706,63 40.3099706,62.997 40.0409706,62.99 C31.4689706,62.779 23.6569706,59.203 20.1409706,53.882 C19.8819706,53.489 19.9899706,52.96 20.3819706,52.701 C20.7749706,52.441 21.3049706,52.551 21.5629706,52.942 C23.1694566,55.3729391 25.7846539,57.4066203 29,58.858708 L29,18 C29,17.4477153 29.4477153,17 30,17 Z M50,45 L30.99998,45 L30.99998,59.6594127 C33.7636108,60.6331868 36.8619374,61.207597 40.0829706,61.287 C43.5946317,61.3711326 46.9962705,60.8602226 50.0006412,59.8636487 L50,45 Z M50,39 L31,39 L31,44.013 L50,44.013 L50,39 Z" id="Shape"></path>
        </g>
    </g>
</svg>