<svg xmlns="http://www.w3.org/2000/svg" width="80" height="80" viewBox="0 0 80 80">
    <g fill="none" fill-rule="evenodd">
        <g fill="#000">
            <g>
                <g>
                    <path d="M39.805 18c8.442 0 14.806 6.344 14.806 14.756 0 4.151-1.48 7.642-4.4 10.376-2.292 2.15-3.145 3.935-3.145 6.59v1.386c.515.365.851.965.851 1.642v5.41c0 .025 0 .05-.003.075-.076 2.563-3.996 3.924-7.474 4.63-.146.087-.316.135-.495.135h-.279c-.179 0-.349-.048-.495-.135-3.482-.706-7.407-2.07-7.475-4.632l-.003-.073v-5.41c0-.678.337-1.278.852-1.643v-1.385c0-2.656-.853-4.442-3.145-6.59C26.48 40.4 25 36.907 25 32.756 25 24.344 31.366 18 39.806 18zm6.164 37.426H33.672l-.03 2.695.001.05c.004.816 2.121 2.045 6.162 2.835 4.041-.79 6.158-2.02 6.162-2.84l.002-.054v-2.686zm-12.265-2.74l-.02 1.766h12.285V52.75l-12.265-.064zm6.1-32.738c-7.45 0-12.856 5.386-12.856 12.808 0 3.59 1.274 6.604 3.783 8.955 2.67 2.502 3.762 4.821 3.762 8.011v.956h3.26l.002-9.134-2.073-1.818c-.056-.05-.101-.11-.13-.18l-1.963-4.71c-.075-.181-.035-.388.102-.528.136-.138.343-.181.526-.113l2.96 1.16c.25.1.374.382.276.632-.098.25-.38.373-.632.276l-1.89-.742 1.477 3.547 2.154 1.889c.106.09.166.224.166.366v9.353h2.155v-9.353c0-.141.06-.275.166-.366l2.153-1.89 1.467-3.518-1.717.71c-.248.107-.534-.015-.637-.263-.102-.25.016-.534.264-.637l2.807-1.16c.184-.073.392-.033.53.105.14.14.18.35.105.532l-1.963 4.71c-.028.07-.073.13-.128.18l-2.073 1.818-.001 9.133 3.262.001v-.956c0-3.188 1.09-5.508 3.76-8.01 2.512-2.353 3.785-5.366 3.785-8.956 0-7.422-5.407-12.808-12.858-12.808z" transform="translate(-120.000000, -402.000000) translate(106.000000, 389.000000) translate(14.000000, 13.000000)"/>
                </g>
            </g>
        </g>
    </g>
</svg>
