<?xml version="1.0" encoding="UTF-8"?>
<svg width="44px" height="23px" viewBox="0 0 44 23" version="1.1" xmlns="http://www.w3.org/2000/svg" xmlns:xlink="http://www.w3.org/1999/xlink">
    <!-- Generator: Sketch 63.1 (92452) - https://sketch.com -->
    <title>Combined Shape</title>
    <desc>Created with Sketch.</desc>
    <g id="Symbols" stroke="none" stroke-width="1" fill="none" fill-rule="evenodd">
        <g id="icons-/-mebel-/-soft" transform="translate(-18.000000, -29.000000)" fill="#000000" fill-rule="nonzero">
            <path d="M40,29 C43.7267271,29 47.2092415,30.93 49.2165516,34.073 C49.5401832,34.036 49.8489238,34.018 50.1497225,34.018 C55.8856618,34.018 58.8786092,36.1018237 59.053378,40.2147213 L59.1141194,40.214 L59.1141194,40.214 C60.7054736,40.214 62,41.518 62,43.121 C62,44.365 61.2117684,45.444 60.0860069,45.849 L59.5002933,50.352 C59.4486711,50.753 59.1091557,51.053 58.7070981,51.053 L57.262,51.052 L57.2626687,51.769 C57.2626687,51.8756667 57.1916605,51.9649722 57.0950297,51.9917778 L57.0343396,52 L55.2920897,52 C55.1660124,52 55.0637607,51.897 55.0637607,51.769 L55.0637607,51.769 L55.063,51.052 L25.076,51.052 L25.076215,51.769 C25.076215,51.8756667 25.0052068,51.9649722 24.9080015,51.9917778 L24.8468932,52 L23.1046433,52 C22.9785659,52 22.8763142,51.897 22.8763142,51.769 L22.8763142,51.769 L22.876,51.052 L21.2938947,51.053 C20.891837,51.053 20.5523216,50.753 20.4997067,50.352 L19.9149858,45.849 C18.7892243,45.444 18,44.365 18,43.121 C18,41.518 19.2945264,40.214 20.8858806,40.214 L20.946622,40.2147213 C21.1213908,36.1018237 24.1143382,34.018 29.8502775,34.018 C30.1520689,34.018 30.4608095,34.036 30.7834484,34.073 C32.7897658,30.93 36.2732729,29 40,29 Z M59.1141194,41.827 C58.729931,41.827 58.36659,42.006 58.1174135,42.318 C58.0925951,42.35 58.0647985,42.381 58.0340237,42.408 L55.4012906,46.828 C55.2444384,47.089 54.9595235,47.237 54.6527684,47.217 C48.9495059,46.767 43.8597536,46.548 39.093633,46.548 C34.3076576,46.548 29.6894544,46.772 25.3660936,47.215 C25.057353,47.244 24.757547,47.095 24.5987094,46.828 L21.9620053,42.402 C21.933216,42.376 21.9064122,42.348 21.8815938,42.318 C21.63341,42.006 21.270069,41.827 20.8858806,41.827 C20.1780606,41.827 19.6012815,42.408 19.6012815,43.121 C19.6012815,43.77 20.0877217,44.318 20.7329994,44.396 C21.0963404,44.441 21.3832408,44.727 21.4308921,45.092 L21.996751,49.44 L58.0042417,49.44 L58.5691079,45.092 C58.6167592,44.727 58.9036596,44.441 59.2670006,44.396 C59.9122783,44.318 60.3987185,43.77 60.3987185,43.121 C60.3987185,42.408 59.8229322,41.827 59.1141194,41.827 Z M50.1497225,35.631 C49.7734759,35.631 49.3783674,35.667 48.9385858,35.741 L48.9118089,35.7428742 C47.1945256,37.9629791 46.2615982,42.3979408 45.9259473,45.0774528 C48.5780776,45.1796624 51.3506964,45.3442153 54.283471,45.57 L56.7682866,41.399 C56.8308289,41.294 56.9152114,41.207 57.0134922,41.141 C57.1505211,40.9929479 57.3005707,40.8608985 57.4610814,40.7461252 L57.4612156,40.603 C57.4612156,38.468 56.7027661,35.631 50.1497225,35.631 Z M29.8502775,35.631 C23.2972339,35.631 22.5387844,38.468 22.5387844,40.603 L22.5388391,40.745583 C22.7084133,40.866874 22.8662545,41.0075056 23.0093407,41.166 C23.0996796,41.228 23.1761202,41.306 23.2317134,41.399 L25.7105726,45.56 C28.4564232,45.2906108 31.3156355,45.1076026 34.2569829,45.0123429 C33.9214813,42.3046753 33.003447,37.9623443 31.2836423,35.7457339 C31.210391,35.7546879 31.1358262,35.7532286 31.0614142,35.741 C30.6226253,35.667 30.2265241,35.631 29.8502775,35.631 Z M40,30.613 C36.7306732,30.613 33.6822067,32.3525366 31.9928655,35.1667536 C33.8626921,37.5727268 34.8278163,42.0652999 35.1774448,44.9871938 C36.4678508,44.951871 37.774521,44.935 39.093633,44.935 C41.0080896,44.935 42.973602,44.9699585 45.0087071,45.0406335 C45.3515483,42.2044119 46.2984752,37.7529238 48.0907944,35.3105475 L48.1126303,35.347 C46.446821,32.427 43.337575,30.613 40,30.613 Z" id="Combined-Shape"></path>
        </g>
    </g>
</svg>