<?xml version="1.0" encoding="UTF-8"?>
<svg width="45px" height="48px" viewBox="0 0 45 48" version="1.1" xmlns="http://www.w3.org/2000/svg" xmlns:xlink="http://www.w3.org/1999/xlink">
    <title>menu-garden8</title>
    <g id="Page-1" stroke="none" stroke-width="1" fill="none" fill-rule="evenodd">
        <g id="menu-garden8" transform="translate(0.500000, 0.000000)" fill="#000000" fill-rule="nonzero">
            <path d="M21.904,0 C22.387,0 22.779,0.391 22.779,0.875 L22.779,2.415 C22.919,2.43 23.062,2.447 23.208,2.468 L23.654,2.539 C25.324,2.834 27.331,3.506 29.376,4.515 L29.935,4.799 L30.215,4.947 L30.773,5.255 C30.959,5.361 31.145,5.469 31.33,5.58 L31.884,5.92 C36.578,8.884 40.807,13.569 40.807,19.472 C40.807,19.619 40.771,19.757 40.707,19.879 C40.687,19.984 40.647,20.089 40.587,20.185 C40.267,20.691 39.962,21.201 39.669,21.718 C39.132,22.645 38.209,23.198 37.249,23.198 C37.138,23.198 37.025,23.191 36.912,23.176 C34.982,22.906 33.026,22.906 31.098,23.176 C30.018,23.328 28.938,22.753 28.344,21.723 C28.216,21.498 28.086,21.276 27.954,21.055 C27.822,21.275 27.694,21.495 27.567,21.718 C27.031,22.645 26.109,23.198 25.149,23.198 C25.037,23.198 24.924,23.191 24.811,23.176 C24.21,23.092 23.606,23.034 23.001,23.002 L23,36 L30.682,36 L34.022,28.82 C34.174,28.493 34.502,28.285 34.862,28.285 L37.397,28.285 C37.712,28.285 38.007,28.445 38.177,28.71 C38.347,28.974 38.37,29.307 38.237,29.592 L33.862,39 L43,39 C43.586,39 44,39.455 44,40 L44,43 C44,43.546 43.586,44 43,44 L40.999,44 L41,47 C41,47.594 40.594,48 40,48 L37,48 C36.405,48 36,47.594 36,47 L35.999,44 L23,43.999 L23,46 L30.142,46 C30.615,46 31,46.448 31,47 C31,47.552 30.615,48 30.142,48 L13.858,48 C13.384,48 13,47.552 13,47 C13,46.448 13.384,46 13.858,46 L21,46 L21,43.999 L8,43.999 L8,47 C8,47.594 7.595,48 7,48 L4,48 C3.406,48 3,47.594 3,47 L3,44 L1,44 C0.414,44 0,43.546 0,43 L0,40 C0,39.455 0.414,39 1,39 L2,39 L2,37 C2,36.408 2.414,36 3,36 L21,35.999 L21,22.993 C20.331,23.022 19.662,23.083 18.997,23.176 C17.92,23.323 16.838,22.753 16.243,21.723 C16.071,21.419 15.895,21.12 15.715,20.823 C15.533,21.119 15.359,21.418 15.188,21.717 C14.589,22.752 13.511,23.321 12.435,23.179 C10.505,22.915 8.552,22.93 6.63,23.218 C6.508,23.236 6.386,23.245 6.265,23.245 C5.315,23.245 4.398,22.705 3.858,21.801 C3.828,21.754 3.805,21.705 3.786,21.654 C3.576,21.079 3.359,20.506 3.135,19.936 C3.049,19.802 3,19.642 3,19.472 C3,13.684 7.065,9.067 11.649,6.096 L12.201,5.748 C13.032,5.237 13.876,4.78 14.711,4.379 L15.266,4.121 L15.818,3.88 C16.184,3.724 16.546,3.58 16.903,3.448 L17.435,3.258 C17.61,3.198 17.785,3.141 17.957,3.088 L18.468,2.933 C19.396,2.668 20.262,2.493 21.03,2.416 L21.03,0.875 C21.03,0.391 21.421,0 21.904,0 L21.904,0 Z M6,44 L5,44 L5,46 L6,46 L6,44 Z M39,44 L38,44 L38,46 L39,46 L39,44 Z M42,41 L2,41 L2,42 L42,42 L42,41 Z M35.948,30.126 L35.456,30.126 L31.345,38.964 L31.333,39 L31.822,39 L35.948,30.126 Z M29.752,38 L4,38 L4,39 L29.287,39 L29.752,38 Z M13.96,20.346 L5.168,20.346 L5.398,20.964 C5.645,21.335 6.02,21.544 6.371,21.487 C8.456,21.174 10.577,21.16 12.67,21.444 C13.04,21.493 13.431,21.259 13.67,20.847 L13.96,20.346 L13.96,20.346 Z M26.338,20.346 L17.468,20.346 L17.76,20.852 C17.996,21.259 18.393,21.494 18.757,21.442 C20.845,21.152 22.963,21.152 25.051,21.442 C25.417,21.488 25.811,21.259 26.049,20.847 L26.338,20.346 L26.338,20.346 Z M38.439,20.346 L29.569,20.346 C29.668,20.514 29.765,20.683 29.861,20.852 C30.097,21.259 30.494,21.494 30.858,21.442 C32.946,21.152 35.064,21.152 37.152,21.442 C37.521,21.491 37.912,21.258 38.15,20.846 L38.439,20.346 L38.439,20.346 Z M19.906,4.479 L20.086,4.326 L19.974,4.349 C14.552,5.5 5.435,10.875 4.786,18.597 L14.436,18.596 C14.52,14.416 15.423,11.298 16.525,9.031 L16.773,8.541 C17.023,8.064 17.282,7.629 17.541,7.233 L17.8,6.85 L18.058,6.491 L18.314,6.158 L18.44,6.001 L18.689,5.704 L18.932,5.431 L19.167,5.181 L19.392,4.953 L19.71,4.653 L19.906,4.479 L19.906,4.479 Z M21.904,4.119 C21.8,4.119 21.692,4.121 21.581,4.127 C21.604,4.281 21.546,4.439 21.421,4.546 L21.126,4.752 L20.876,4.946 L20.638,5.146 L20.365,5.393 L20.165,5.586 L19.953,5.801 L19.731,6.039 C19.693,6.08 19.655,6.123 19.617,6.167 L19.382,6.44 C19.302,6.536 19.222,6.635 19.141,6.738 L18.895,7.061 L18.645,7.41 C17.143,9.577 15.553,13.141 15.435,18.595 L28.372,18.595 C28.26,13.347 26.796,9.855 25.352,7.672 L25.104,7.311 L24.859,6.974 L24.618,6.662 L24.381,6.374 L24.265,6.239 L24.039,5.987 L23.821,5.757 L23.614,5.55 L23.419,5.364 L23.153,5.126 L22.921,4.934 L22.677,4.747 L22.455,4.595 C22.283,4.492 22.199,4.307 22.225,4.128 C22.115,4.121 22.008,4.118 21.904,4.118 L21.904,4.119 Z M23.722,4.326 L23.933,4.506 L24.233,4.777 L24.448,4.985 L24.674,5.215 L24.909,5.467 L25.151,5.741 L25.399,6.04 C25.483,6.143 25.567,6.25 25.652,6.362 L25.908,6.708 C25.993,6.828 26.079,6.951 26.165,7.079 L26.422,7.476 C27.878,9.796 29.266,13.364 29.372,18.596 L39.021,18.596 C38.367,10.821 29.128,5.426 23.722,4.326 L23.722,4.326 Z" id="Shape"></path>
        </g>
    </g>
</svg>