<svg xmlns="http://www.w3.org/2000/svg" width="80" height="80" viewBox="0 0 80 80">
    <g fill="none" fill-rule="evenodd">
        <g fill="#000" fill-rule="nonzero">
            <g>
                <g>
                    <path d="M31.272 23l.163.572c.927 3.893 1.631 6.698 2.112 8.414l.059.209 2.09 7.349c.026.089.039.181.039.274 0 .512-.386.935-.884.993l-.116.007H27.92v2.09h.26c.68 0 1.24.52 1.308 1.182l.007.134v1.311c0 .725-.589 1.314-1.314 1.315-.366 0-.462.095-.784.77-.145.306-.328.673-.605 1.002.578.45 1.144 1.067 1.75 1.733 1.3 1.425 2.771 3.04 4.588 3.1.622.024 1.286-.145 1.984-.5-.232-1.302-.362-2.732-.362-4.254 0-6.442 2.26-11.3 5.255-11.3 2.996 0 5.256 4.858 5.256 11.3 0 1.523-.13 2.954-.363 4.257.696.353 1.36.522 1.985.496 1.816-.06 3.287-1.674 4.585-3.099.608-.666 1.174-1.284 1.752-1.733-.277-.33-.46-.696-.605-1.001-.322-.676-.418-.77-.785-.77-.679-.002-1.24-.52-1.306-1.182l-.007-.134v-1.31c0-.68.518-1.242 1.18-1.31l.135-.006h.261v-2.091h-6.814c-.093 0-.185-.013-.274-.039-.493-.14-.794-.627-.714-1.121l.026-.114 2.09-7.35c.462-1.625 1.147-4.339 2.056-8.141l.114-.481.164-.572H61.23l4.447 16.558c.023.085.034.172.034.26 0 .512-.386.935-.883.993l-.117.007h-6.835v2.09h.787c.68 0 1.24.52 1.309 1.181l.007.135v1.31c0 .725-.59 1.315-1.314 1.316-.367 0-.462.094-.784.77-.135.283-.297.62-.54.93.872.558 1.476 1.539 1.814 2.943.011.048.017.098.018.148.002.361-.289.657-.65.66-.42.003-.782-.3-.853-.714-.238-1.399-1.133-2.098-2.684-2.098-.522 0-1.279.763-2.044 1.594l-.305.335c-1.434 1.573-3.218 3.531-5.7 3.612l-.162.003c-.734 0-1.473-.173-2.225-.503-.894 3.323-2.554 5.47-4.542 5.47-1.989 0-3.648-2.147-4.542-5.469-.751.33-1.491.503-2.225.503-.054 0-.107 0-.162-.003-2.387-.078-4.128-1.891-5.533-3.43l-.167-.182-.306-.335c-.764-.83-1.521-1.594-2.043-1.594-1.552 0-2.447.699-2.685 2.097-.07.415-.431.717-.852.714-.05 0-.1-.006-.148-.018-.352-.084-.568-.437-.484-.789.337-1.405.942-2.386 1.814-2.944-.243-.31-.404-.647-.54-.93-.322-.675-.418-.77-.785-.77-.678 0-1.238-.519-1.306-1.18l-.007-.135v-1.31c0-.68.519-1.242 1.181-1.31l.134-.006h.787v-2.091h-6.835c-.088 0-.175-.012-.26-.035-.495-.133-.803-.615-.73-1.11l.024-.115L18.784 23h12.488zm8.736 15.978c-1.737 0-3.68 4.158-3.68 9.723 0 1.165.294 4.082.577 5.006.705 2.87 1.948 4.716 3.103 4.716 1.155 0 2.398-1.846 3.103-4.716.313-1.09.576-3.84.576-5.006 0-5.565-1.942-9.723-3.68-9.723zM58.4 44.485h-.525v.011h-5.78v.79c1.21.117 1.649 1.035 1.944 1.656.33.69.492.97 1.209.97.716 0 .879-.28 1.208-.97.28-.586.685-1.437 1.75-1.63l.194-.026v-.8zm-36.262 0h-.525v.8c1.211.119 1.649 1.037 1.945 1.657.329.69.491.97 1.208.97s.88-.28 1.208-.97c.28-.586.685-1.438 1.75-1.63l.195-.026v-.79h-5.78v-.01zm34.16-3.667h-2.627v2.09H56.3v-2.09zm-29.955 0h-2.628v2.09h2.628v-2.09zM63.332 37H46.68l-.637 2.24h17.882L63.332 37zm-29.998 0H16.682l-.594 2.24h17.883L33.334 37zM60.04 24.577H49.932c-.857 3.648-1.508 6.267-1.952 7.856l-.055.193-.96 3.374h16.102L60.04 24.577zm-29.958 0H19.975L16.947 36h16.102l-.96-3.374c-.445-1.565-1.114-4.249-2.007-8.05z" transform="translate(-227.000000, -122.000000) translate(213.000000, 109.000000) translate(14.000000, 13.000000)"/>
                </g>
            </g>
        </g>
    </g>
</svg>
