<?xml version="1.0" encoding="UTF-8"?>
<svg width="44px" height="32px" viewBox="0 0 44 32" version="1.1" xmlns="http://www.w3.org/2000/svg" xmlns:xlink="http://www.w3.org/1999/xlink">
    <!-- Generator: Sketch 63.1 (92452) - https://sketch.com -->
    <title>Combined Shape</title>
    <desc>Created with Sketch.</desc>
    <g id="Symbols" stroke="none" stroke-width="1" fill="none" fill-rule="evenodd">
        <g id="icons-/-mebel-/-coffee-stol" transform="translate(-18.000000, -23.000000)" fill="#000000" fill-rule="nonzero">
            <path d="M46.0189315,23 C46.2829315,23 46.4979315,23.214 46.4979315,23.479 L46.4979315,24.995 C46.5395072,25.3397007 46.7999364,27.9900769 45.8503334,29.4680793 L46.0189315,29.467 C46.1549315,29.467 46.2849315,29.525 46.3759315,29.627 C46.4669315,29.729 46.5099315,29.864 46.4949315,30 C46.2173737,32.4274069 44.9925335,34.1709912 43.0794454,35.000424 L61,35 C61.6315075,35 62,35.3627451 62,36 L62,40 C62,40.6372549 61.6315075,41 61,41 L57,41 L57,55 L52,55 L52,45.972 L28,45.972 L28,55 L23,55 L23,41 L19,41 C18.3684925,41 18,40.6372549 18,40 L18,36 C18,35.3627451 18.3684925,35 19,35 L37.416472,35.000424 C35.5035105,34.1709912 34.279091,32.4274069 34.0029315,30 C33.9879315,29.864 34.0309315,29.729 34.1219315,29.627 C34.2119315,29.525 34.3419315,29.467 34.4789315,29.467 L35.6859433,29.4678233 C35.8604395,28.0947439 36.9451762,27.0443317 38.2819315,26.874 C38.4549315,26.343 38.9029315,25.331 39.9789315,24.599 C40.1959315,24.452 40.4949315,24.506 40.6439315,24.725 C40.7929315,24.944 40.7369315,25.242 40.5179315,25.391 C39.8239315,25.864 39.4659315,26.486 39.2879315,26.914 C40.1441026,27.1005205 40.8724347,27.654332 41.285026,28.4137356 C41.7371397,28.27177 42.8771315,27.710192 43.4459315,25.578 L43.5359315,24.927 C43.5479315,24.842 43.5829315,24.762 43.6359315,24.695 L44.8489315,23.18 C44.9399315,23.066 45.0769315,23 45.2229315,23 L46.0189315,23 Z M26,41 L25,41 L25,53 L26,53 L26,41 Z M55,41 L54,41 L54,53 L55,53 L55,41 Z M52,41 L28,41 L28,45.027 L52,45.027 L52,41 Z M60,37 L20,37 L20,39 L60,39 L60,37 Z M45.4619315,30.425 L35.0349315,30.425 C35.3659315,32.182 36.5039315,34.587 40.2479315,34.587 C43.9919315,34.587 45.1299315,32.182 45.4619315,30.425 Z M45.5419315,25.049 L45.5399315,23.958 L45.4529315,23.958 L44.4659315,25.192 L44.3839315,25.77 C43.7091804,28.3084211 42.294963,29.083718 41.5999297,29.3158607 L41.623,29.467 L44.353,29.467 L44.4619011,29.4379762 C45.6944832,29.0016944 45.6587591,26.0772759 45.5419315,25.049 Z M38.6559315,27.798 C37.8169315,27.798 37.0839315,28.314 36.7759315,29.062 L36.7759315,29.062 L40.5349315,29.062 C40.2259315,28.314 39.4939315,27.798 38.6559315,27.798 Z" id="Combined-Shape"></path>
        </g>
    </g>
</svg>