<?xml version="1.0" encoding="UTF-8"?>
<svg width="37px" height="44px" viewBox="0 0 37 44" version="1.1" xmlns="http://www.w3.org/2000/svg" xmlns:xlink="http://www.w3.org/1999/xlink">
    <title>menu-garden6</title>
    <g id="Page-1" stroke="none" stroke-width="1" fill="none" fill-rule="evenodd">
        <g id="menu-garden6" transform="translate(0.499869, -0.000217)" fill="#000000" fill-rule="nonzero">
            <path d="M11.3331309,0.143217407 C11.6821309,0.382217407 17.8651309,4.65921741 21.3811309,12.8792174 C26.0441309,3.88121741 34.2761309,3.53721741 35.0911309,3.52621741 L35.1371309,3.52621741 C35.5171309,3.52621741 35.8671309,3.77821741 35.9681309,4.14321741 C36.0681309,4.50721741 35.9291309,4.89321741 35.6031309,5.08521741 C26.6471309,10.3492174 26.0811309,19.5882174 26.1171309,22.2812174 L28.1931309,22.2812174 C28.4311309,22.2812174 28.6611309,22.3842174 28.8211309,22.5612174 C28.9811309,22.7392174 29.0561309,22.9782174 29.0291309,23.2152174 L27.1761309,39.2992174 L28.8871309,39.3002174 C29.3521309,39.3002174 29.7281309,39.6752174 29.7281309,40.1382174 L29.7281309,43.1622174 C29.7281309,43.6252174 29.3521309,44.0002174 28.8881309,44.0002174 L7.13013087,44.0002174 C6.66513087,44.0002174 6.28813087,43.6252174 6.28813087,43.1622174 L6.28813087,40.1382174 C6.28813087,39.6752174 6.66513087,39.3002174 7.13013087,39.3002174 L8.77713087,39.3002174 L6.92413087,23.2152174 C6.89613087,22.9782174 6.97213087,22.7392174 7.13113087,22.5622174 C7.29113087,22.3842174 7.52113087,22.2812174 7.75913087,22.2812174 L9.91113087,22.2812174 L9.91113087,22.1112174 C9.88713087,19.7712174 8.99113087,13.4622174 0.498130866,9.68121741 C0.138130866,9.52121741 -0.0618691343,9.13321741 0.0171308657,8.74821741 C0.0971308657,8.36221741 0.433130866,8.08421741 0.827130866,8.07821741 L0.885130866,8.07821741 C1.77513087,8.08821741 9.82213087,8.37221741 14.4951309,15.0562174 C14.1961309,10.2772174 13.1411309,4.49021741 10.2451309,1.41021741 C9.95313087,1.09721741 9.94113087,0.617217407 10.2201309,0.293217407 C10.5001309,-0.0317825927 10.9781309,-0.0937825927 11.3331309,0.143217407 L11.3331309,0.143217407 Z M9.70213087,40.9752174 L7.97013087,40.9762174 L7.97013087,42.3242174 L28.0461309,42.3242174 L28.0461309,40.9762174 L9.70213087,40.9762174 L9.70213087,40.9752174 Z M26.7741309,28.0882174 L9.17813087,28.0882174 L10.4701309,39.3002174 L25.4831309,39.3002174 L26.7741309,28.0882174 L26.7741309,28.0882174 Z M10.6921309,23.9582174 L8.70213087,23.9582174 L9.06713087,27.1302174 L26.8851309,27.1302174 L27.2501309,23.9582174 L10.6921309,23.9582174 Z M5.19613087,10.4522174 C10.8941309,14.6402174 11.5561309,20.1092174 11.5761309,22.2822174 L11.5751309,22.2802174 L14.3871309,22.2802174 C14.4811309,21.6232174 14.5721309,20.3882174 14.5901309,18.8182174 L14.5901309,18.7692174 C13.2451309,15.5322174 11.0241309,13.0882174 7.90613087,11.5202174 C6.97313087,11.0512174 6.05013087,10.7062174 5.19613087,10.4522174 L5.19613087,10.4522174 Z M14.3261309,5.11921741 C16.6091309,11.1972174 16.5011309,19.2392174 16.0851309,22.2802174 L21.9961309,22.2802174 L21.9491309,21.7642174 C21.1651309,14.0462174 17.3591309,8.44421741 14.3251309,5.11921741 L14.3261309,5.11921741 Z M31.6311309,5.86421741 C28.6761309,6.85121741 24.5671309,9.31721741 22.0741309,15.4202174 L22.2191309,15.0742174 C22.9501309,17.2432174 23.4791309,19.6442174 23.6841309,22.2802174 L24.4401309,22.2802174 C24.4181309,19.5932174 24.9601309,11.6032174 31.6311309,5.86421741 L31.6311309,5.86421741 Z" id="Shape"></path>
        </g>
    </g>
</svg>