<?xml version="1.0" encoding="UTF-8"?>
<svg width="41px" height="46px" viewBox="0 0 41 46" version="1.1" xmlns="http://www.w3.org/2000/svg" xmlns:xlink="http://www.w3.org/1999/xlink">
    <!-- Generator: Sketch 63.1 (92452) - https://sketch.com -->
    <title>Combined Shape</title>
    <desc>Created with Sketch.</desc>
    <g id="Symbols" stroke="none" stroke-width="1" fill="none" fill-rule="evenodd">
        <g id="icons-/-mebel-/-stenka" transform="translate(-19.000000, -17.000000)" fill="#000000" fill-rule="nonzero">
            <path d="M59.1723993,17 C59.6294926,17 60,17.3646503 60,17.8145178 L59.999,26 L60,26 L60,27 L59.999,27 L59.999,49 L60,49 L60,51 L59.999,51 L60,59.1844913 C60,59.6353497 59.6294926,60 59.1723993,60 L56,60 L56,63 L53,63 L53,60 L26,60 L26,63 L23,63 L23,60 L19.8276007,60 C19.3705074,60 19,59.6353497 19,59.1844913 L19,17.8145178 C19,17.3646503 19.3705074,17 19.8276007,17 L59.1723993,17 Z M58,51 L21,51 L21,58 L58,58 L58,51 Z M41,55 L41,56 L38,56 L38,55 L41,55 Z M58,27 L21,27 L21,49 L36,49 L35.999,47 L27.852071,47 C27.3809741,47 27,46.6352226 27,46.1841538 L27,32.8148657 C27,32.3647774 27.3809741,32 27.852071,32 L51.147929,32 C51.6190259,32 52,32.3647774 52,32.8148657 L52,46.1841538 C52,46.6352226 51.6190259,47 51.147929,47 L42.999,47 L43,49 L58,49 L58,27 Z M41,47 L38,47 L38,49 L41,49 L41,47 Z M50.0322266,34 L29,34 L29,45.0004883 L50.0322266,45.0004883 L50.0322266,34 Z M39.03,19 L21,19 L21,26 L39.03,26 L39.03,19 Z M58,19 L39.97,19 L39.97,26 L58,26 L58,19 Z M32,23 L32,24 L28,24 L28,23 L32,23 Z M51,23 L51,24 L47,24 L47,23 L51,23 Z" id="Combined-Shape"></path>
        </g>
    </g>
</svg>