<svg xmlns="http://www.w3.org/2000/svg" width="80" height="80" viewBox="0 0 80 80">
    <g fill="none" fill-rule="evenodd">
        <g fill="#000" fill-rule="nonzero">
            <g>
                <g>
                    <path d="M14.133 44.212c.368-.936 1.391-1.42 2.338-1.134l.149.051 8.69 3.794.223.094c1.763.78 3.019 2.392 3.343 4.291l.036.25 1.08 10.363.008.112c.004.48-.351.898-.84.96-.487.06-.935-.256-1.05-.722l-.02-.11-.71-7.167h-9.6l-1.063 7.209-.025.11c-.135.46-.597.756-1.082.673-.484-.083-.821-.516-.795-.995l.012-.112 1.168-8.606.045-.315c.084-.737.025-1.484-.174-2.199l-.094-.304-1.67-4.925-.048-.163c-.093-.383-.066-.786.079-1.155zm51.734 0c.145.369.172.772.079 1.155l-.048.163-1.67 4.925c-.274.806-.364 1.66-.268 2.503l.045.315 1.168 8.597c.09.522-.261 1.017-.783 1.106-.485.083-.947-.213-1.082-.674l-.025-.109-1.063-7.2h-9.546l-.764 7.158c-.066.526-.545.898-1.07.832-.489-.062-.844-.48-.84-.96l.008-.111 1.08-10.354c.252-2.007 1.54-3.728 3.379-4.541l.223-.094 8.69-3.794c.986-.387 2.1.098 2.487 1.083zm-24.844 7.782l-.001 8.999h4.864c.545 0 .987.447.987 1 0 .552-.442 1-.987 1H33.987c-.545 0-.987-.448-.987-1 0-.553.442-1 .987-1h5.06l.001-8.999h1.975zm-25.105-7.08l1.67 4.925.097.304c.214.731.288 1.675.271 2.48l-.012.336 1.699-.002-1.119-6.891-2.606-1.152zm9.423 4.178l-.996 3.865 2.742.001-.077-1.16-.032-.208c-.173-.954-.7-1.797-1.458-2.37l-.179-.128zm38.741-4.178l-2.606 1.152-1.119 6.891 1.699.002c-.047-.867.014-1.98.26-2.816l.096-.304 1.67-4.925zm-9.423 4.178c-.854.572-1.45 1.47-1.637 2.498l-.032.207-.077 1.161h2.742l-.996-3.866zm-35.077-2.564l1.035 6.43h.866l.04-5.598-1.941-.832zm2.9 1.25l-.04 5.18h.91l1.115-4.313-1.985-.866zm37.936-1.25l-1.94.832.039 5.597h.866l1.035-6.429zm-2.9 1.25l-1.984.867 1.113 4.312h.911l-.04-5.178zM39.981 18c.544 0 .985.448.985 1l-.001.5 22.5 10.603c.486.247.672.848.428 1.342-.166.338-.495.552-.868.552h-16.3L41 36.721v13.274h7.485c.272 0 .515.223.515.5 0 .276-.243.5-.515.5H31.513c-.272 0-.513-.224-.513-.5 0-.277.241-.5.513-.5H39V36.722l-5.725-4.725h-16.29c-.544 0-.985-.447-.985-1 0-.378.21-.724.544-.894L38.996 19.5V19c0-.552.441-1 .985-1zM39 31.997h-4.275L39 35.271v-3.274zm6.274 0H41v3.274l4.274-3.274zm-7.053-10.39l-17.553 8.39h10.8l6.753-8.39zm3.412-.02l6.876 8.41H59.33l-17.697-8.41zm-1.697-.303l-7.07 8.714h14.246l-7.176-8.714z" transform="translate(-40.000000, -262.000000) translate(-1.000000, 249.000000) translate(41.000000, 13.000000)"/>
                </g>
            </g>
        </g>
    </g>
</svg>
