<svg xmlns="http://www.w3.org/2000/svg" width="80" height="80" viewBox="0 0 80 80">
    <g fill="none" fill-rule="evenodd">
        <g fill="#000">
            <g>
                <g>
                    <path d="M39 60.134h2v-14h-2v14zm-4.132-16L31.152 28H39v16.133h-4.132zM34.414 24h11.171l2 2h-15.17l2-2zM40 20c.551 0 1 .449 1 1 0 .551-.449 1-1 1-.552 0-1-.449-1-1 0-.551.448-1 1-1zm5.132 24.133H41V28h7.848l-3.716 16.133zm-10.132 8h-2c0 1.103-.897 2-2 2s-2-.897-2-2 .897-2 2-2h.688c2.929 0 5.312 2.383 5.312 5.313v6.687h6v-6.687c0-2.93 2.384-5.313 5.313-5.313H49c1.103 0 2 .897 2 2s-.897 2-2 2-2-.897-2-2h-2c0 2.206 1.794 4 4 4s4-1.794 4-4c0-2.205-1.794-4-4-4h-.687c-2.09 0-3.979.883-5.313 2.294v-4.294h5c.552 0 1-.447 1-1 0-.552-.448-1-1-1h-.849L50.868 28H52c.552 0 1-.448 1-1s-.448-1-1-1h-1.586l-4-4h-3.586c.111-.313.172-.65.172-1 0-1.654-1.346-3-3-3s-3 1.346-3 3c0 .35.06.687.172 1h-3.586l-4 4H28c-.552 0-1 .448-1 1s.448 1 1 1h1.131l3.718 16.133H32c-.552 0-1 .448-1 1 0 .553.448 1 1 1h5v4.294c-1.334-1.411-3.222-2.293-5.312-2.293H31c-2.206 0-4 1.794-4 4 0 2.205 1.794 4 4 4s4-1.795 4-4z" transform="translate(-40.000000, -542.000000) translate(-1.000000, 529.000000) translate(41.000000, 13.000000)"/>
                </g>
            </g>
        </g>
    </g>
</svg>
