<svg xmlns="http://www.w3.org/2000/svg" width="80" height="80" viewBox="0 0 80 80">
    <g fill="none" fill-rule="evenodd">
        <g fill="#000" fill-rule="nonzero">
            <g>
                <g>
                    <path d="M47.604 17c2.977 0 5.406 2.444 5.625 5.52l.012.226.713 11.462c.526.262.925.754 1.069 1.375l.033.172.014.168L57 60c0 .965-.687 1.78-1.663 1.966l-.165.026-.175.008h-1.096c-.86 0-1.614-.546-1.902-1.389l-.048-.161-.032-.167-2.636-11.431c-.06-.427-.389-.762-.775-.84l-.106-.014-.123-.005H31.713c-.462 0-.859.312-.973.748l-.022.111-2.637 11.431c-.133.934-.9 1.64-1.826 1.711l-.156.006h-1.096c-1.056 0-1.921-.815-1.997-1.884l-.005-.155 1.928-24.035c.03-.76.48-1.405 1.118-1.719l.71-11.435c.112-3.131 2.473-5.65 5.422-5.768l.217-.004h15.208zm5.467 19h-.168c-.575.01-.812.12-.887.273l-.017.043-.078.311-1.522 5.29-.068.194c-.426 1.087-1.444 1.825-2.604 1.9l-.195.006-14.986-.012c-1.314.006-2.473-.84-2.868-2.054l-1.448-5.043-.093-.254-.07-.18c-.12-.256-.401-.417-.975-.462l-.164-.009L25 60h1.1l2.637-11.431c.203-1.42 1.38-2.488 2.797-2.57l.178-.006h16.6l.196.008c1.343.098 2.453 1.078 2.723 2.387l.031.18L53.9 60l1.04.002.059-.003-1.923-23.943-.004-.056zm-7.436-9.5h-3.228c-.179 0-.331.133-.367.314l-.008.08v15.119l5.5.004c.374 0 .713-.205.875-.497l.048-.1.01-.028-.708-12.823c-.058-1.11-.912-1.986-1.97-2.063l-.152-.006zm1.969-7.5H32.396c-1.877 0-3.458 1.575-3.629 3.66l-.712 11.498c.775.214 1.374.652 1.754 1.34l.09.176.105.263.126.35.574 1.997.54-9.767c.085-1.628 1.36-2.922 2.944-3.012l.177-.005h3.301c.718 0 1.303.555 1.37 1.26l.005.135v15.114l1.991.003V26.895c0-.723.544-1.32 1.243-1.389l.132-.006h3.228c1.605 0 2.935 1.235 3.106 2.838l.014.18.55 9.967.685-2.376.078-.312c.261-.905.925-1.46 1.874-1.683l-.698-11.27c-.075-2.092-1.597-3.735-3.454-3.839L47.604 19zm-9.938 7.5h-3.3c-1.077 0-1.977.826-2.109 1.912l-.014.157-.7 12.638.015.048c.106.406.453.7.87.744l.114.006 5.5.003V26.895c0-.193-.131-.35-.3-.387l-.076-.008z" transform="translate(-40.000000, -402.000000) translate(-1.000000, 389.000000) translate(41.000000, 13.000000)"/>
                </g>
            </g>
        </g>
    </g>
</svg>
