<svg xmlns="http://www.w3.org/2000/svg" width="40" height="40" viewBox="0 0 40 40">
    <path fill="#7F7F7F" d="M19.422 18l.077.006.039-.005L35.422 18c.32 0 .578.273.578.612v13.777c0 .338-1.259.611-1.578.611H19.577l-.078-.005-.077.005H4.577C4.258 33 4 32.727 4 32.39V18.611c0-.339.258-.612.577-.612h14.845zm-7.406 2H6v11l6.016-.001V20zM19 20h-6.016v10.999L19 31V20zm15 3.984H21V31h13v-7.016zM34 20H21v3.016h13V20zm-.578-13c.32 0 .578.267.578.596v6.807c0 .33-.259.597-.578.597H6.577C6.258 15 6 14.733 6 14.403V7.596c0-.33.258-.596.577-.596h26.845zM13.016 9H8v4h5.016V9zM19 9h-5.016v4H19V9zm7.016 0H21v4h5.016V9zM32 9h-5.016v4H32V9z"/>
</svg>
