<svg xmlns="http://www.w3.org/2000/svg" width="40" height="40" viewBox="0 0 40 40">
    <path fill="#7F7F7F" d="M32 7c1.657 0 3 1.343 3 3 0 1.306-.834 2.417-2 2.829V33h-2v-4H9v4H7V12.83c-1.165-.412-2-1.524-2-2.83 0-1.598 1.249-2.904 2.824-2.995L8 7c1.657 0 3 1.343 3 3 0 1.306-.834 2.417-2 2.829V14h22v-1.17c-1.165-.412-2-1.524-2-2.83 0-1.598 1.249-2.904 2.824-2.995L32 7zm-1 19H9v2h22v-2zM12 16H9v8h3v-8zm5 0h-4v8h4v-8zm5 0h-4v8h4v-8zm5 0h-4v8h4v-8zm4 0h-3v8h3v-8zM8 9c-.552 0-1 .448-1 1s.448 1 1 1 1-.448 1-1-.448-1-1-1zm24 0c-.552 0-1 .448-1 1s.448 1 1 1 1-.448 1-1-.448-1-1-1z"/>
</svg>
