<svg xmlns="http://www.w3.org/2000/svg" width="40" height="40" viewBox="0 0 40 40">
    <path fill="#7F7F7F" d="M29.148 9c.471 0 .852.365.852.815v9.37c0 .45-.381.815-.852.815h-6.149v2h11.162c.464 0 .839.377.839.843v7.314c0 .465-.375.843-.839.843H5.839C5.375 31 5 30.622 5 30.157v-7.314c0-.466.375-.843.839-.843h11.16v-2h-6.147c-.471 0-.852-.365-.852-.816v-9.37c0-.45.381-.814.852-.814h18.296zM12.999 24H7v5h5.999v-5zM26 27H13.999v2H26v-2zm7-3h-6v5h6v-5zm-7 0H13.999v2H26v-2zm-5-4h-2v2h2v-2zm7.032-9H12v7h16.032v-7z"/>
</svg>
