<?xml version="1.0" encoding="UTF-8"?>
<svg width="25px" height="25px" viewBox="0 0 25 25" version="1.1" xmlns="http://www.w3.org/2000/svg" xmlns:xlink="http://www.w3.org/1999/xlink">
    <!-- Generator: Sketch 63.1 (92452) - https://sketch.com -->
    <title>Combined Shape</title>
    <desc>Created with Sketch.</desc>
    <g id="Symbols" stroke="none" stroke-width="1" fill="none" fill-rule="evenodd">
        <g id="icons-/-mebel-/-sale" transform="translate(-20.000000, -20.000000)" fill="#000000">
            <path d="M33.807879,20.3115289 L33.9293602,20.3771275 L33.9519862,20.390378 C34.3575107,20.6336926 34.6960042,20.9541629 34.9584672,21.342789 L35.0533093,21.491701 L35.083951,21.5458201 C35.6833259,22.669648 36.9742512,23.2251155 38.1919301,22.9091616 L38.3907833,22.8526559 L38.612773,22.7969005 L38.6780222,22.7780547 C40.1059238,22.4016671 41.586198,23.1473368 42.1420432,24.4802321 L42.1914156,24.6068951 L42.2339865,24.7330305 C42.4134663,25.2714698 42.4297826,25.8268749 42.2829356,26.3683989 L42.2339865,26.5304088 L42.2062862,26.6135097 L42.1601116,26.7053823 L42.1475251,26.751035 C41.8550724,27.8780164 42.3062724,29.0812062 43.2321997,29.721921 L43.3411289,29.7933171 L43.4541799,29.8595028 C44.8221283,30.5890753 45.3633438,32.2650485 44.7476404,33.6321131 L44.6794862,33.7717104 L44.6716114,33.7932676 C44.4757748,34.2851294 44.1443347,34.6671149 43.7129735,34.9419107 L43.5806032,35.0211364 L43.4541799,35.088124 C42.3281941,35.6886497 41.7878962,36.9683694 42.1333327,38.1653214 L42.1737467,38.2932148 L42.2038903,38.3949563 L42.2556358,38.6027714 L42.2784915,38.6821953 C42.6548791,40.1100968 41.9092095,41.590371 40.5763141,42.1462162 L40.4496511,42.1955886 L40.3235158,42.2381595 C39.7850765,42.4176393 39.2296714,42.4339557 38.6881474,42.2871086 L38.5918193,42.2573437 L38.3907833,42.2080633 L38.3220806,42.1887581 C37.0726552,41.7983127 35.6978598,42.3459007 35.083951,43.4583529 C34.310162,44.9092073 32.4717808,45.430082 31.0438408,44.6137951 C30.6383163,44.3704804 30.2998228,44.0500101 30.0373598,43.661384 L29.9425177,43.512472 L29.9066599,43.4484649 C29.4476526,42.568701 28.520166,42.0186799 27.4935722,42.0186799 C27.2601257,42.0186799 27.0254235,42.0466505 26.764757,42.1095386 L26.3844386,42.2068083 L26.3178047,42.2261183 C24.8899032,42.6025059 23.409629,41.8568362 22.8537838,40.5239409 L22.8044114,40.3972779 L22.7618405,40.2711425 C22.5823607,39.7327032 22.5660443,39.1772981 22.7128914,38.6357741 L22.7618405,38.4737642 L22.8112419,38.3262536 C23.1882237,37.1199119 22.6907486,35.7966972 21.6546981,35.1543097 L21.5416471,35.088124 C20.0907927,34.314335 19.569918,32.4759538 20.3862049,31.0480138 C20.6599339,30.5917988 21.031313,30.2204197 21.5262534,29.9244 C22.615208,29.3235974 23.1632326,28.0212634 22.8483013,26.8075815 L22.7919367,26.6092167 L22.7353905,26.3830318 L22.7173355,26.3219778 C22.3177696,24.8061448 23.1827106,23.2312902 24.6723112,22.7660135 C25.2107505,22.5865337 25.7661556,22.5702174 26.3076796,22.7170644 L26.396148,22.7432836 L26.6050437,22.7961097 L26.8034082,22.8524749 C27.9737351,23.1561758 29.2262452,22.6579198 29.8456903,21.6588711 L29.911876,21.5458201 C30.6635568,20.1364187 32.4198649,19.6046145 33.807879,20.3115289 Z M32.5331359,21.2335709 C31.9619951,21.223147 31.3890221,21.5003973 31.0615798,22.0189411 L30.9994384,22.1258534 C30.3208837,23.3557339 29.0379911,24.1085056 27.6755804,24.1694695 L27.5239008,24.1733854 C27.1862265,24.1757124 26.8448893,24.1353776 26.5077895,24.0491492 L26.3061014,23.991879 L26.0799165,23.9353327 C25.9526874,23.8929231 25.8254584,23.866417 25.6982294,23.8558146 L25.5710004,23.8505134 C25.4013617,23.8505134 25.231723,23.8787865 25.0620843,23.9353327 C24.1908535,24.2075924 23.686669,25.1090742 23.9029829,25.9833675 L23.9311597,26.0840895 L23.987706,26.3102744 C24.5531683,28.1197537 23.761521,30.0988718 22.1216804,31.0036114 C21.8389492,31.1732501 21.6127643,31.399435 21.4431256,31.6821662 C21.0081546,32.4433654 21.2528258,33.4659655 22.026331,33.9456561 L22.1216804,34.0005616 C23.7159699,34.8801696 24.5085334,36.7752973 24.0316973,38.5427427 L23.987706,38.6938986 L23.9311597,38.8635373 C23.8180673,39.2028147 23.8180673,39.5420921 23.9311597,39.8813694 C24.1615333,40.6185647 24.842415,41.0929636 25.5761342,41.0904354 L25.6764769,41.0871144 C25.7658952,41.081499 25.8558242,41.0687333 25.9455558,41.0484361 L26.0799165,41.012294 L26.3061014,40.9557478 C26.701925,40.8426553 27.0977486,40.7861091 27.4935722,40.7861091 C28.9637742,40.7861091 30.3208837,41.5777563 30.9994384,42.8783196 C31.1690771,43.1610508 31.395262,43.3872357 31.6779932,43.5568744 C31.9215769,43.6960651 32.1919281,43.7656604 32.4626911,43.7706021 L32.5641951,43.7694343 C33.1005958,43.747331 33.6256574,43.4733351 33.9337619,42.9859999 L33.9963886,42.8783196 C34.6749433,41.6484391 35.9578359,40.8956674 37.3202466,40.8347035 L37.4719262,40.8307876 C37.8096005,40.8284606 38.1509377,40.8687954 38.4880375,40.9550238 L38.6897256,41.012294 L38.9159105,41.0688403 C39.0855492,41.1253865 39.2551879,41.1536596 39.4248266,41.1536596 L39.5520556,41.1483584 C39.6792846,41.137756 39.8065137,41.1112499 39.9337427,41.0688403 C40.8049735,40.7965806 41.309158,39.8950988 41.0928441,39.0208055 L41.0646673,38.9200835 L41.008121,38.6938986 C40.3861125,36.8844193 41.1777597,34.9053013 42.8741466,34.0005616 C43.213424,33.8309229 43.4396089,33.604738 43.5527014,33.2654606 C43.9876724,32.5042614 43.7430012,31.4816613 42.969496,31.0019706 L42.8741466,30.9470652 C41.2798571,30.0674572 40.4872936,28.1723295 40.9641297,26.4048841 L41.008121,26.2537281 L41.0646673,26.1406357 C41.1777597,25.8013583 41.1777597,25.4620809 41.0646673,25.1228036 C40.8447653,24.4191171 40.2143795,23.9548796 39.5193806,23.9163289 L39.4196928,23.9137376 C39.2946271,23.9141685 39.1680261,23.9284564 39.0418595,23.9576618 L38.9159105,23.991879 L38.6897256,24.0484252 C38.3378824,24.1583762 37.9796254,24.2170167 37.6241002,24.2276725 L37.4719262,24.2293111 C36.053694,24.2173658 34.700075,23.4452654 33.9963886,22.1258534 C33.8267499,21.8431223 33.600565,21.6169373 33.3178338,21.4472986 C33.104698,21.3255068 32.8710684,21.2569988 32.6346012,21.2384643 L32.5331359,21.2335709 Z M35.2429246,33.0900988 C36.4342021,33.0900988 37.3999234,34.05582 37.3999234,35.2470976 C37.3999234,36.4383751 36.4342021,37.4040964 35.2429246,37.4040964 C34.051647,37.4040964 33.0859258,36.4383751 33.0859258,35.2470976 C33.0859258,34.05582 34.051647,33.0900988 35.2429246,33.0900988 Z M37.2194176,27.7240362 C37.4415785,27.9461972 37.4586679,28.2957734 37.2706855,28.5375367 L37.2194176,28.5955953 L28.5914223,37.2235906 C28.3507479,37.464265 27.9605376,37.464265 27.7198632,37.2235906 C27.4977022,37.0014296 27.4806129,36.6518534 27.6685953,36.41009 L27.7198632,36.3520314 L36.3478584,27.7240362 C36.5885328,27.4833618 36.9787431,27.4833618 37.2194176,27.7240362 Z M35.2429246,34.3226695 C34.732377,34.3226695 34.3184965,34.73655 34.3184965,35.2470976 C34.3184965,35.7576451 34.732377,36.1715256 35.2429246,36.1715256 C35.7534721,36.1715256 36.1673526,35.7576451 36.1673526,35.2470976 C36.1673526,34.73655 35.7534721,34.3226695 35.2429246,34.3226695 Z M29.6963562,27.5435304 C30.8876338,27.5435304 31.853355,28.5092517 31.853355,29.7005292 C31.853355,30.8918068 30.8876338,31.857528 29.6963562,31.857528 C28.5050787,31.857528 27.5393574,30.8918068 27.5393574,29.7005292 C27.5393574,28.5092517 28.5050787,27.5435304 29.6963562,27.5435304 Z M29.6963562,28.7761012 C29.1858087,28.7761012 28.7719282,29.1899817 28.7719282,29.7005292 C28.7719282,30.2110767 29.1858087,30.6249573 29.6963562,30.6249573 C30.2069037,30.6249573 30.6207843,30.2110767 30.6207843,29.7005292 C30.6207843,29.1899817 30.2069037,28.7761012 29.6963562,28.7761012 Z" id="Combined-Shape"></path>
        </g>
    </g>
</svg>