<svg xmlns="http://www.w3.org/2000/svg" width="40" height="40" viewBox="0 0 40 40">
    <path fill="#7F7F7F" d="M30.223 9c.455 0 .777.544.777 1v6l1 .004c.457 0 1 .54 1 .996v1.999l1.175.001c.456 0 .825.369.825.825V28c0 .676-.37 1.045-1 1h-2v2h-3v-2H12v2H9v-2H6c-.63.045-1-.324-1-.779v-8.396c0-.456.37-.825.826-.825l1.208-.001.001-2.17c0-.456.37-.825.826-.825l1.145-.001.001-6.178c0-.456.37-.825.825-.825h20.39zM33 21H7.003v6H33v-6zm-2-3.02L9.006 18v1L31 18.98v-1zm-2-7.012H11.009v5.036l4.008-.036V13c.168.042 9.672.042 9.983 0v3l4 .004v-5.036zM24 14h-7.982v2.004H24V14z"/>
</svg>
