<?xml version="1.0" encoding="UTF-8"?>
<svg width="17px" height="17px" viewBox="0 0 17 17" version="1.1" xmlns="http://www.w3.org/2000/svg" xmlns:xlink="http://www.w3.org/1999/xlink">
    <!-- Generator: Sketch 62 (91390) - https://sketch.com -->
    <title>path</title>
    <desc>Created with Sketch.</desc>
    <g id="Page-1" stroke="none" stroke-width="1" fill="none" fill-rule="evenodd">
        <g id="path" fill="#B4B4B4" fill-rule="nonzero">
            <path d="M4.65104545,-0.000116283174 L2.32822727,-0.000116283174 C1.67372727,-0.000116283174 1.05013636,0.275863636 0.608909091,0.757272727 C0.168454545,1.24022727 -0.0494545455,1.88545455 0.00927272727,2.53454545 C0.278181818,5.06522727 1.13668182,7.48386364 2.51522727,9.60886364 C3.7655,11.5723636 5.43768182,13.2422273 7.41045455,14.4932727 C9.52309091,15.861 11.9347727,16.7179545 14.4453636,16.9899545 C15.113,17.0502273 15.7613182,16.8315455 16.2442727,16.3887727 C16.728,15.946 17.0015455,15.3200909 16.9992273,14.6655909 L16.9992273,12.3427727 C17.0285909,11.1813636 16.167,10.166 14.9955455,10.0014091 C14.3000909,9.90945455 13.6255,9.74177273 12.9756364,9.49913636 L12.8249545,9.44890909 C12.0143636,9.20627273 11.1280455,9.42263636 10.5199091,10.0238182 L9.95968182,10.5809545 L9.86695455,10.5237727 C8.50540909,9.639 7.344,8.47913636 6.45768182,7.11913636 L6.39895455,7.02640909 L6.95531818,6.47159091 C7.59745455,5.8225 7.80222727,4.86431818 7.48231818,4.01431818 C7.24045455,3.36754545 7.07277273,2.69372727 6.98159091,2.00754545 C6.817,0.844590909 5.82018182,-0.0115909091 4.65104545,-0.000116283174 L4.65104545,-0.000116283174 Z M2.329,1.55006602 L4.66572727,1.55006602 C5.05595455,1.547 5.38822727,1.83213636 5.44231818,2.21695455 C5.54740909,3.01286364 5.74368182,3.80027273 6.02804545,4.55831818 C6.13468182,4.84422727 6.06668182,5.16259091 5.85340909,5.37740909 L4.8705,6.35954545 C4.62322727,6.60681818 4.57145455,6.98777273 4.74454545,7.29145455 C5.91909091,9.35309091 7.62990909,11.0608182 9.69540909,12.2338182 C9.99909091,12.4061364 10.3815909,12.3543636 10.6288636,12.1078636 L11.6148636,11.1234091 C11.8273636,10.9132273 12.1480455,10.8452273 12.4308636,10.9518636 C13.1927727,11.2354545 13.9817273,11.4317273 14.7853636,11.5375909 C15.1686364,11.5916818 15.4560909,11.9301364 15.4460455,12.3234545 L15.4460455,14.6686818 C15.4468182,14.8904545 15.3556364,15.0983182 15.1941364,15.2459091 C15.0334091,15.3935 14.8170455,15.4669091 14.5991364,15.4468182 C12.3443182,15.2026364 10.1644545,14.4283636 8.24963636,13.1889091 C6.46309091,12.0553182 4.95395455,10.5485 3.82268182,8.77122727 C2.57318182,6.84559091 1.79736364,4.65877273 1.5555,2.38386364 C1.53695455,2.17909091 1.60959091,1.96427273 1.75640909,1.80354545 C1.90322727,1.64281818 2.11186364,1.55086364 2.329,1.55006602 L2.329,1.55006602 Z" id="Shape"></path>
        </g>
    </g>
</svg>