<?xml version="1.0" encoding="UTF-8"?>
<svg width="22px" height="22px" viewBox="0 0 22 22" version="1.1" xmlns="http://www.w3.org/2000/svg" xmlns:xlink="http://www.w3.org/1999/xlink">
    <!-- Generator: Sketch 63.1 (92452) - https://sketch.com -->
    <title>Path</title>
    <desc>Created with Sketch.</desc>
    <g id="Symbols" stroke="none" stroke-width="1" fill="none" fill-rule="evenodd">
        <g id="icons-/-phone" transform="translate(-9.000000, -9.000000)" fill="#7F7F7F" fill-rule="nonzero">
            <path d="M15.0187375,8.99980459 L12.0133243,8.99980459 C11.1658731,9.00084622 10.3588784,9.35672289 9.78830999,9.98068439 C9.21769158,10.6047005 8.93607311,11.439398 9.01224746,12.2808797 C9.3603654,15.5545177 10.4708456,18.6851941 12.2552646,21.4349315 C13.8727594,23.9760573 16.037218,26.1367645 18.5901713,27.7562055 C21.324408,29.526326 24.4453422,30.6346298 27.694385,30.9870529 C28.5580506,31.0651366 29.3966456,30.7820227 30.0222558,30.2090632 C30.6478661,29.6361036 31.0025114,28.8263989 30.9990653,27.9788711 L30.9990736,24.9729632 C31.0367409,23.4699735 29.9216763,22.156219 28.4056869,21.9427207 C27.5069245,21.8243473 26.6332739,21.6070892 25.7924201,21.2938669 L25.5970043,21.2280557 C24.5480833,20.9142977 23.4014207,21.1943016 22.6136449,21.9719603 L21.8891301,22.6934047 L21.7696985,22.6187361 C20.0070565,21.4736813 18.503736,19.9729663 17.356693,18.2133793 L17.2808898,18.0931514 L18.0006263,17.3748765 C18.8322887,16.5353345 19.0972046,15.2953261 18.6830133,14.1953664 C18.3700964,13.3582334 18.1524611,12.4860971 18.0351078,11.597857 C17.8220343,10.0926646 16.5321336,8.98522838 15.0187375,8.99980459 Z M12.0144468,11.0064596 L15.0383237,11.0064596 C15.5428665,11.0016001 15.9728842,11.3707892 16.0434909,11.8694667 C16.179405,12.8985227 16.4338031,13.9179793 16.8005702,14.8991657 C16.9394832,15.2680825 16.8511779,15.6814186 16.5752789,15.959939 L15.3028071,17.2301832 C14.9828806,17.5495551 14.9161565,18.0429556 15.1397973,18.4355813 C16.6599916,21.1044481 18.8736102,23.31423 21.5471107,24.8317896 C21.9404181,25.0550427 22.4346752,24.9884343 22.7546017,24.6690623 L24.031039,23.3948373 C24.3060552,23.1233751 24.720109,23.0352229 25.0873988,23.1730474 C26.0725562,23.5400266 27.0937829,23.7939837 28.1338662,23.9309224 C28.6302159,24.000865 29.0019041,24.4387832 28.9892453,24.9480756 L28.988936,27.9829435 C28.990093,28.2695253 28.8718779,28.5394269 28.6633411,28.7304134 C28.4548044,28.9213999 28.1752727,29.0157712 27.8934193,28.9903428 C24.9750402,28.6736213 22.1543401,27.6719365 19.6760704,26.067573 C17.3643666,24.6011155 15.4110746,22.6512089 13.9470905,20.3513174 C12.3295749,17.8587023 11.325923,15.0291973 11.0126866,12.084629 C10.9888359,11.8197861 11.0827087,11.5415536 11.2729148,11.3335482 C11.4631307,11.1255322 11.7322129,11.0068696 12.0144468,11.0064596 Z" id="Path"></path>
        </g>
    </g>
</svg>