<?xml version="1.0" encoding="UTF-8"?>
<svg width="37px" height="50px" viewBox="0 0 37 50" version="1.1" xmlns="http://www.w3.org/2000/svg" xmlns:xlink="http://www.w3.org/1999/xlink">
    <!-- Generator: Sketch 62 (91390) - https://sketch.com -->
    <title>pictograms / assortment</title>
    <desc>Created with Sketch.</desc>
    <g id="__delivery" stroke="none" stroke-width="1" fill="none" fill-rule="evenodd">
        <g id="01.14.1-Mobile-product-delivery" transform="translate(-143.000000, -2759.000000)" fill="#000000">
            <g id="Group-Copy-3" transform="translate(16.000000, 2692.000000)">
                <g id="pictograms-/-self-delivery" transform="translate(107.000000, 55.000000)">
                    <g id="Group-12" transform="translate(20.000000, 12.000000)">
                        <path d="M9.1138,38.0166 C12.4214166,38.0166 15.1138,40.7078025 15.1138,44.0166 C15.1138,47.3242166 12.4214166,50.0154191 9.1138,50.0154191 C5.80500252,50.0154191 3.1138,47.3242166 3.1138,44.0166 C3.1138,40.7078025 5.80500252,38.0166 9.1138,38.0166 Z M9.1138,40.0166 C6.90785584,40.0166 5.1138,41.8109252 5.1138,44.0172005 C5.1138,46.2222748 6.90785584,48.0166 9.1138,48.0166 C11.3185433,48.0166 13.1138,46.2222748 13.1138,44.0172005 C13.1138,41.8109252 11.3185433,40.0166 9.1138,40.0166 Z M9,36.1214196 C9,36.606396 8.56779241,37 8.03525091,37 C7.50270941,37 7.07050182,36.606396 7.07050182,36.1214196 L7.06936222,21.2750247 C7.02470855,21.1465132 7,21.0140912 7,20.8898442 C7,20.7657181 7.02455872,20.6476066 7.068956,20.54037 L7.07050182,6.87809618 L0.506900297,2.54630152 C0.0383078817,2.31536038 -0.13700081,1.78319168 0.115487809,1.35544853 C0.367976428,0.929713567 0.954543875,0.769058864 1.42313629,1 L8.49392019,5.58080945 C8.80594761,5.73443551 9,6.03164672 9,6.35396021 L9,19.9993526 L30.1358025,20 C30.6128395,20 31,20.3976332 31,20.8898442 L30.9998,43 L36.1414354,43 C36.6153631,43 37,43.448 37,44 C37,44.552 36.6153631,45 36.1414354,45 L16.8585646,45 C16.3846369,45 16,44.552 16,44 C16,43.448 16.3846369,43 16.8585646,43 L29,43 L29,22 L21.9998,22 L22,30.4768201 C22,30.6733584 21.8856115,30.8542155 21.7043165,30.9430759 C21.6276978,30.9807109 21.5435252,30.9995284 21.4604317,30.9995284 C21.3471223,30.9995284 21.2359712,30.9650297 21.1410072,30.898123 L19,29.3780872 L16.8589928,30.898123 C16.694964,31.0152097 16.4780576,31.0329818 16.2956835,30.9430759 C16.1143885,30.8542155 16,30.6733584 16,30.4768201 L15.9998,22 L9,21.9993526 L9,36.1214196 Z M21,22 L17,22 L17,29 L18.6685393,27.9469609 C18.7662921,27.8840496 18.8831461,27.8530778 19,27.8530778 C19.1168539,27.8530778 19.2337079,27.8840496 19.3314607,27.9469609 L21,29 L21,22 Z" id="Combined-Shape"></path>
                    </g>
                </g>
            </g>
        </g>
    </g>
</svg>