<?xml version="1.0" encoding="UTF-8"?>
<svg width="28px" height="28px" viewBox="0 0 28 28" version="1.1" xmlns="http://www.w3.org/2000/svg" xmlns:xlink="http://www.w3.org/1999/xlink">
    <title>Shape</title>
    <g id="Page-1" stroke="none" stroke-width="1" fill="none" fill-rule="evenodd">
        <g id="icon-metro" transform="translate(-11.000000, -11.000000)" fill="#83C150">
            <path d="M23.08,19.88 C23.08,20.057 23.201,20.2 23.351,20.2 L26.649,20.2 C26.799,20.2 26.92,20.057 26.92,19.88 C26.92,19.703 26.798,19.56 26.649,19.56 L23.35,19.56 C23.2,19.56 23.079,19.703 23.079,19.88 L23.08,19.88 Z M20.2,30.76 C20.2,30.23 20.63,29.8 21.16,29.8 C21.69,29.8 22.12,30.23 22.12,30.76 C22.12,31.29 21.69,31.72 21.16,31.72 C20.63,31.72 20.2,31.29 20.2,30.76 Z M27.88,30.76 C27.88,30.23 28.31,29.8 28.84,29.8 C29.37,29.8 29.8,30.23 29.8,30.76 C29.8,31.29 29.37,31.72 28.84,31.72 C28.31,31.72 27.88,31.29 27.88,30.76 Z M18.92,20.2 C18.92,19.575 19.557,18.92 20.2,18.92 L29.8,18.92 C30.443,18.92 31.08,19.575 31.08,20.2 L31.08,31.72 C31.08,32.346 30.443,33 29.8,33 L20.2,33 C19.557,33 18.92,32.346 18.92,31.72 L18.92,20.2 Z M29.158,34.28 L21.08,34.28 L20.18,36.138 L29.956,36.138 L29.159,34.28 L29.158,34.28 Z M20.207,34.28 L20.2,34.28 C18.811,34.28 17.64,33.084 17.64,31.72 L17.64,20.2 C17.64,18.837 18.811,17.64 20.2,17.64 L29.8,17.64 C31.189,17.64 32.36,18.837 32.36,20.2 L32.36,31.72 C32.36,33.015 31.303,34.16 30.007,34.271 L31.685,38.182 C31.774,38.388 31.687,38.63 31.491,38.724 C31.44,38.748 31.385,38.76 31.331,38.76 C31.184,38.76 31.042,38.67 30.978,38.52 L30.282,36.898 C30.224,36.934 30.158,36.956 30.087,36.956 L19.78,36.956 L19.014,38.536 C18.944,38.678 18.808,38.76 18.667,38.76 C18.607,38.76 18.547,38.746 18.491,38.715 C18.3,38.612 18.224,38.365 18.321,38.165 L20.206,34.28 L20.207,34.28 Z M20.2,22.76 C20.2,22.444 20.52,22.12 20.84,22.12 L29.16,22.12 C29.48,22.12 29.8,22.444 29.8,22.76 L29.8,26.6 C29.8,26.916 29.48,27.24 29.16,27.24 L20.84,27.24 C20.52,27.24 20.2,26.916 20.2,26.6 L20.2,22.76 Z M19.56,26.6 C19.56,27.237 20.211,27.88 20.76,27.88 L29.24,27.88 C29.789,27.88 30.44,27.237 30.44,26.6 L30.44,22.76 C30.44,22.123 29.789,21.48 29.24,21.48 L20.76,21.48 C20.211,21.48 19.56,22.123 19.56,22.76 L19.56,26.6 Z M33.701,36.055 C33.789,36.151 33.908,36.2 34.028,36.2 C34.136,36.2 34.244,36.16 34.329,36.08 C37.145,33.447 38.76,29.71 38.76,25.828 C38.76,18.138 32.587,11.88 25,11.88 C17.413,11.88 11.24,18.137 11.24,25.828 C11.24,29.651 12.736,33.218 15.451,35.871 C15.628,36.044 15.909,36.038 16.08,35.859 C16.25,35.68 16.245,35.395 16.068,35.222 C13.528,32.74 12.128,29.404 12.128,25.828 C12.128,18.634 17.902,12.781 25,12.781 C32.097,12.781 37.871,18.634 37.871,25.828 C37.871,29.459 36.361,32.955 33.727,35.418 C33.547,35.588 33.535,35.872 33.701,36.055 L33.701,36.055 Z" id="Shape"></path>
        </g>
    </g>
</svg>