<?xml version="1.0" encoding="UTF-8"?>
<svg width="26px" height="23px" viewBox="0 0 26 23" version="1.1" xmlns="http://www.w3.org/2000/svg" xmlns:xlink="http://www.w3.org/1999/xlink">
    <title>Shape</title>
    <g id="Page-1" stroke="none" stroke-width="1" fill="none" fill-rule="evenodd">
        <g id="icon-showroom" transform="translate(-12.000000, -14.000000)" fill="#83C150">
            <path d="M15.31,22.163 C14.49,22.142 13.92,21.827 13.53,21.313 L13.53,15.135 L17.564,15.135 L17.564,21.154 C17.511,21.184 17.464,21.224 17.428,21.274 C17.017,21.846 16.217,22.188 15.31,22.164 L15.31,22.163 Z M18.097,21.188 L18.097,15.135 L22.407,15.135 L22.407,21.128 C22.34,21.161 22.28,21.211 22.235,21.274 C21.841,21.822 21.065,22.163 20.209,22.163 C19.352,22.163 18.576,21.823 18.181,21.274 C18.157,21.241 18.128,21.212 18.097,21.188 L18.097,21.188 Z M22.941,21.218 C22.958,21.236 22.973,21.254 22.988,21.274 C23.382,21.822 24.158,22.163 25.014,22.163 C25.87,22.163 26.647,21.823 27.042,21.274 C27.093,21.202 27.165,21.151 27.246,21.122 L27.246,15.135 L22.941,15.135 L22.941,21.218 Z M27.794,21.274 L27.779,21.255 L27.779,15.135 L32.024,15.135 L32.024,21.146 C31.951,21.176 31.885,21.223 31.837,21.289 C31.439,21.829 30.667,22.162 29.821,22.162 L29.802,22.162 C28.942,22.157 28.192,21.825 27.794,21.274 L27.794,21.274 Z M32.557,21.258 L32.583,21.289 C33.001,21.856 33.812,22.202 34.708,22.163 C35.519,22.137 36.097,21.822 36.484,21.313 L36.484,15.135 L32.557,15.135 L32.557,21.258 L32.557,21.258 Z M12.541,21.714 C12.889,22.254 13.441,22.661 14.107,22.889 C14.081,22.945 14.067,23.005 14.067,23.069 L14.067,34.333 L13,34.333 C12.676,34.333 12.467,34.553 12.467,34.867 L12.467,36.467 C12.467,36.78 12.676,37 13,37 L37,37 C37.324,37 37.533,36.78 37.533,36.467 L37.533,34.867 C37.533,34.553 37.324,34.333 37,34.333 L35.933,34.333 L35.933,23.07 C35.933,23.006 35.919,22.945 35.893,22.89 C36.559,22.66 37.111,22.254 37.458,21.715 C37.507,21.639 37.533,21.551 37.533,21.461 L37.533,14.534 C37.533,14.277 37.325,14.068 37.069,14.068 L12.93,14.068 C12.673,14.068 12.465,14.277 12.465,14.534 L12.465,21.461 C12.465,21.551 12.491,21.639 12.54,21.715 L12.541,21.714 Z M35.398,35.4 L36.467,35.4 L36.467,35.933 L13.533,35.933 L13.533,35.4 L35.398,35.4 L35.398,35.4 Z M34.867,34.333 L34.867,23.09 C34.824,23.093 34.781,23.095 34.737,23.096 C33.75,23.126 32.838,22.82 32.209,22.255 C31.606,22.794 30.717,23.093 29.797,23.096 C28.864,23.092 28.011,22.779 27.418,22.242 C26.819,22.784 25.958,23.097 25.014,23.097 C24.07,23.097 23.21,22.784 22.611,22.242 C22.013,22.784 21.152,23.097 20.209,23.097 C19.264,23.097 18.404,22.784 17.805,22.242 C17.205,22.788 16.347,23.099 15.4,23.099 C15.362,23.099 15.325,23.099 15.286,23.097 C15.235,23.097 15.184,23.094 15.133,23.091 L15.133,34.334 L17.267,34.334 L17.267,28.204 C17.267,28.055 17.387,27.934 17.538,27.934 L21.795,27.934 C21.945,27.934 22.067,28.055 22.067,28.204 L22.067,34.334 L34.867,34.334 L34.867,34.333 Z M21.533,34.333 L21.523,28.474 L17.81,28.474 L17.8,34.334 L21.533,34.334 L21.533,34.333 Z M23.667,30.6 L32.2,30.6 L32.2,25.267 L23.667,25.267 L23.667,30.6 L23.667,30.6 Z M23.667,31.133 C23.483,31.133 23.357,31.11 23.274,31.096 C23.17,31.076 23.134,31.07 23.134,31.133 L23.134,24.733 C23.134,24.797 23.171,24.79 23.274,24.771 C23.357,24.756 23.483,24.733 23.667,24.733 L32.2,24.733 C32.384,24.733 32.51,24.756 32.593,24.771 C32.696,24.79 32.733,24.797 32.733,24.733 L32.733,31.133 C32.733,31.07 32.696,31.077 32.593,31.096 C32.51,31.11 32.383,31.133 32.2,31.133 L23.667,31.133 L23.667,31.133 Z" id="Shape"></path>
        </g>
    </g>
</svg>