<svg xmlns="http://www.w3.org/2000/svg" width="40" height="40" viewBox="0 0 40 40">
    <g fill="none" fill-rule="evenodd">
        <g fill="#7F7F7F" fill-rule="nonzero">
            <g>
                <path d="M20 22c7.9 0 10 4.12 10 7.273V31c0 .552-.448 1-1 1H11c-.552 0-1-.448-1-1v-1.727c0-3.101 2.05-7.136 9.612-7.27L20 22zm0 2c-5.86 0-7.85 2.576-7.996 5.005l-.004.138V30h16v-.857c0-2.447-1.825-5.045-7.667-5.14L20 24zm0-15c3.308 0 6 2.692 6 6 0 3.184-2.492 5.796-5.789 5.99L20 21c-3.308 0-6-2.691-6-6 0-3.183 2.492-5.796 5.789-5.99L20 9zm.029 2l-.17.009C17.655 11.158 16 12.88 16 15c0 2.204 1.796 4 3.956 4C22.252 18.938 24 17.18 24 15c0-2.146-1.703-3.905-3.827-3.996L20.03 11z" transform="translate(-232 -8) translate(232 8)"/>
            </g>
        </g>
    </g>
</svg>
