<?xml version="1.0" encoding="UTF-8"?>
<svg width="32px" height="22px" viewBox="0 0 32 22" version="1.1" xmlns="http://www.w3.org/2000/svg" xmlns:xlink="http://www.w3.org/1999/xlink">
    <title>Shape</title>
    <g id="Page-1" stroke="none" stroke-width="1" fill="none" fill-rule="evenodd">
        <g id="group-5" transform="translate(-13.000000, -18.000000)" fill="#83C150" fill-rule="nonzero">
            <path d="M43,18 C44.122,18 45,18.878 45,20 L45,38 C45,39.122 44.122,40 43,40 L15,40 C13.878,40 13,39.122 13,38 L13,33 C13,32.448 13.448,32 14,32 C15.654,32 17,30.654 17,29 C17,27.346 15.654,26 14,26 C13.448,26 13,25.552 13,25 L13,20 C13,18.898 13.898,18 15,18 L43,18 Z M43,20 L15,20 L15,24.1 C17.28,24.566 19,26.584 19,29 C19,31.414 17.28,33.436 15,33.9 L15,38 L43,38 L43,20 Z M36,30 C37.654,30 39,31.346 39,33 C39,34.654 37.654,36 36,36 C34.346,36 33,34.654 33,33 C33,31.346 34.346,30 36,30 Z M38.64,22.232 C39.064,22.586 39.12,23.216 38.766,23.642 L28.766,35.642 C28.57,35.876 28.286,36 28,36 C27.774,36 27.548,35.924 27.36,35.768 C26.936,35.414 26.878,34.784 27.232,34.36 L37.232,22.36 C37.588,21.936 38.218,21.884 38.64,22.232 L38.64,22.232 Z M23,34 L23,36 L21,36 L21,34 L23,34 Z M36,32 C35.45,32 35,32.45 35,33 C35,33.55 35.45,34 36,34 C36.55,34 37,33.55 37,33 C37,32.45 36.55,32 36,32 Z M23,30 L23,32 L21,32 L21,30 L23,30 Z M30,22 C31.654,22 33,23.346 33,25 C33,26.654 31.654,28 30,28 C28.346,28 27,26.654 27,25 C27,23.346 28.346,22 30,22 Z M23,26 L23,28 L21,28 L21,26 L23,26 Z M30,24 C29.45,24 29,24.448 29,25 C29,25.552 29.45,26 30,26 C30.55,26 31,25.552 31,25 C31,24.448 30.55,24 30,24 Z M23,22 L23,24 L21,24 L21,22 L23,22 Z" id="Shape"></path>
        </g>
    </g>
</svg>