<?xml version="1.0" encoding="UTF-8"?>
<svg width="16px" height="16px" viewBox="0 0 16 16" version="1.1" xmlns="http://www.w3.org/2000/svg" xmlns:xlink="http://www.w3.org/1999/xlink">
    <!-- Generator: Sketch 62 (91390) - https://sketch.com -->
    <title>Rectangle</title>
    <desc>Created with Sketch.</desc>
    <g id="Symbols" stroke="none" stroke-width="1" fill="none" fill-rule="evenodd">
        <g id="badges/feedback" transform="translate(-12.000000, -13.000000)" fill="#83C150">
            <g id="fav">
                <path d="M25,13 C26.6568542,13 28,14.3431458 28,16 L28,23 C28,24.6568542 26.6568542,26 25,26 L20,26 L16,29 L16,26 L15,26 C13.3431458,26 12,24.6568542 12,23 L12,16 C12,14.3431458 13.3431458,13 15,13 L25,13 Z M25,15 L15,15 C14.4871642,15 14.0644928,15.3860402 14.0067277,15.8833789 L14,16 L14,23 C14,23.5128358 14.3860402,23.9355072 14.8833789,23.9932723 L15,24 L18,24 L18,25 L19.3333333,24 L25,24 C25.5128358,24 25.9355072,23.6139598 25.9932723,23.1166211 L26,23 L26,16 C26,15.4871642 25.6139598,15.0644928 25.1166211,15.0067277 L25,15 Z" id="Rectangle" transform="translate(20.000000, 21.000000) scale(-1, 1) translate(-20.000000, -21.000000) "></path>
            </g>
        </g>
    </g>
</svg>