<?xml version="1.0" encoding="UTF-8"?>
<svg width="40px" height="40px" viewBox="0 0 40 40" version="1.1" xmlns="http://www.w3.org/2000/svg" xmlns:xlink="http://www.w3.org/1999/xlink">
    <!-- Generator: Sketch 63.1 (92452) - https://sketch.com -->
    <title>Combined Shape</title>
    <desc>Created with Sketch.</desc>
    <g id="Symbols" stroke="none" stroke-width="1" fill="none" fill-rule="evenodd">
        <g id="icons-/-mebel-/-sale" transform="translate(-20.000000, -20.000000)" fill="#000000">
            <path d="M42.0926065,20.4984462 L42.2869763,20.6034041 L42.323178,20.6246047 C42.9720171,21.0139082 43.5136068,21.5266606 43.9335475,22.1484623 L44.0852948,22.3867216 L44.1343216,22.4733122 C45.0933214,24.2714368 47.158802,25.1601848 49.1070882,24.6546586 L49.4252533,24.5642495 L49.7804368,24.4750408 L49.8848356,24.4448875 C52.169478,23.8426674 54.5379167,25.0357388 55.4272691,27.1683714 L55.5062649,27.3710322 L55.5743785,27.5728487 C55.8615461,28.4343516 55.8876522,29.3229998 55.6526969,30.1894382 L55.5743785,30.4486541 L55.5300579,30.5816156 L55.4561785,30.7286117 L55.4360401,30.8016559 C54.9681159,32.6048262 55.6900359,34.5299299 57.1715195,35.5550736 L57.3458063,35.6693073 L57.5266878,35.7752044 C59.7154053,36.9425204 60.58135,39.6240776 59.5962247,41.811381 L59.4871779,42.0347366 L59.4745782,42.0692281 C59.1612396,42.8562071 58.6309355,43.4673838 57.9407576,43.9070571 L57.7289651,44.0338183 L57.5266878,44.1409984 C55.7251106,45.1018396 54.8606339,47.149391 55.4133323,49.0645142 L55.4779947,49.2691437 L55.5262245,49.4319301 L55.6090173,49.7644343 L55.6455865,49.8915124 C56.2478066,52.1761548 55.0547351,54.5445935 52.9221026,55.4339459 L52.7194418,55.5129418 L52.5176252,55.5810553 C51.6561223,55.8682229 50.7674742,55.894329 49.9010358,55.6593737 L49.7469108,55.6117499 L49.4252533,55.5329013 L49.3153289,55.502013 C47.3162484,54.8773003 45.1165757,55.7534411 44.1343216,57.5333646 C42.8962592,59.8547317 39.9548492,60.6881312 37.6701452,59.3820721 C37.0213061,58.9927686 36.4797164,58.4800162 36.0597757,57.8582145 L35.9080284,57.6199552 L35.8506558,57.5175439 C35.1162442,56.1099216 33.6322655,55.2298878 31.9897155,55.2298878 C31.6162011,55.2298878 31.2406776,55.2746408 30.8236112,55.3752617 L30.2151018,55.5308932 L30.1084876,55.5617893 C27.8238452,56.1640094 25.4554065,54.970938 24.5660541,52.8383054 L24.4870582,52.6356446 L24.4189447,52.4338281 C24.1317771,51.5723252 24.105671,50.683677 24.3406263,49.8172386 L24.4189447,49.5580228 L24.497987,49.3220058 C25.1011579,47.391859 24.3051978,45.2747156 22.6475169,44.2468955 L22.4666354,44.1409984 C20.1452683,42.902936 19.3118688,39.961526 20.6179279,37.676822 C21.0558943,36.946878 21.6501008,36.3526716 22.4420054,35.87904 C24.1843329,34.9177559 25.0611722,32.8340215 24.5572821,30.8921304 L24.4670987,30.5747467 L24.3766248,30.2128508 L24.3477367,30.1151644 C23.7084314,27.6898317 25.0923369,25.1700644 27.475698,24.4256215 C28.3372009,24.1384539 29.225849,24.1123478 30.0922874,24.3473031 L30.2338369,24.3892538 L30.5680699,24.4737755 L30.8854531,24.5639599 C32.7579761,25.0498812 34.7619923,24.2526717 35.7531045,22.6541937 L35.8590016,22.4733122 C37.0616908,20.2182699 39.8717839,19.3673831 42.0926065,20.4984462 Z M40.0530174,21.9737134 C39.1391922,21.9570352 38.2224353,22.4006357 37.6985277,23.2303058 L37.5991015,23.4013654 C36.5134139,25.3691742 34.4607857,26.5736089 32.2809286,26.6711512 L32.0382413,26.6774166 C31.4979624,26.6811398 30.9518229,26.6166042 30.4124633,26.4786387 L30.0897622,26.3870064 L29.7278663,26.2965324 C29.5242999,26.2286769 29.3207335,26.1862672 29.1171671,26.1693034 L28.9136006,26.1608214 C28.6421787,26.1608214 28.3707568,26.2060584 28.0993349,26.2965324 C26.7053656,26.7321478 25.8986705,28.1745188 26.2447726,29.573388 L26.2898556,29.7345431 L26.3803295,30.096439 C27.2850692,32.991606 26.0184337,36.1581948 23.3946886,37.6057783 C22.9423188,37.8772002 22.5804229,38.239096 22.309001,38.6914659 C21.6130474,39.9093847 22.0045213,41.5455448 23.2421296,42.3130498 L23.3946886,42.4008985 C25.9455519,43.8082714 27.2136534,46.8404756 26.4507156,49.6683883 L26.3803295,49.9102378 L26.2898556,50.1816597 C26.1089076,50.7245035 26.1089076,51.2673473 26.2898556,51.8101911 C26.6584532,52.9897036 27.747864,53.7487417 28.9218147,53.7446967 L29.0823631,53.7393831 C29.2254324,53.7303984 29.3693188,53.7099733 29.5128893,53.6774978 L29.7278663,53.6196705 L30.0897622,53.5291965 C30.72308,53.3482486 31.3563977,53.2577746 31.9897155,53.2577746 C34.3420387,53.2577746 36.5134139,54.5244101 37.5991015,56.6053114 C37.8705234,57.0576812 38.2324192,57.4195771 38.6847891,57.690999 C39.0745231,57.9137041 39.507085,58.0250567 39.9403058,58.0329634 L40.1027122,58.0310948 C40.9609533,57.9957295 41.8010518,57.5573361 42.294019,56.7775999 L42.3942217,56.6053114 C43.4799093,54.6375026 45.5325375,53.4330679 47.7123946,53.3355257 L47.9550819,53.3292602 C48.4953608,53.325537 49.0415003,53.3900726 49.5808599,53.5280382 L49.903561,53.6196705 L50.2654569,53.7101444 C50.5368788,53.8006184 50.8083007,53.8458554 51.0797226,53.8458554 L51.283289,53.8373734 C51.4868554,53.8204096 51.6904218,53.7779999 51.8939883,53.7101444 C53.2879575,53.274529 54.0946527,51.832158 53.7485506,50.4332888 L53.7034676,50.2721337 L53.6129936,49.9102378 C52.61778,47.0150709 53.8844155,43.848482 56.5986346,42.4008985 C57.1414784,42.1294766 57.5033742,41.7675808 57.6843222,41.224737 C58.3802758,40.0068182 57.9888019,38.370658 56.7511936,37.603153 L56.5986346,37.5153043 C54.0477713,36.1079315 52.7796698,33.0757272 53.5426076,30.2478146 L53.6129936,30.005965 L53.7034676,29.8250171 C53.8844155,29.2821733 53.8844155,28.7393295 53.7034676,28.1964857 C53.3516244,27.0705874 52.3430072,26.3278073 51.2310089,26.2661262 L51.0715085,26.2619801 C50.8714033,26.2626696 50.6688418,26.2855302 50.4669752,26.3322589 L50.2654569,26.3870064 L49.903561,26.4774803 C49.3406119,26.6534019 48.7674006,26.7472268 48.1985603,26.764276 L47.9550819,26.7668977 C45.6859104,26.7477853 43.52012,25.5124247 42.3942217,23.4013654 C42.1227998,22.9489956 41.760904,22.5870997 41.3085341,22.3156778 C40.9675169,22.1208108 40.5937095,22.0111981 40.2153619,21.9815429 L40.0530174,21.9737134 Z M44.3886793,40.944158 C46.2947234,40.944158 47.8398774,42.489312 47.8398774,44.3953561 C47.8398774,46.3014002 46.2947234,47.8465542 44.3886793,47.8465542 C42.4826352,47.8465542 40.9374812,46.3014002 40.9374812,44.3953561 C40.9374812,42.489312 42.4826352,40.944158 44.3886793,40.944158 Z M47.5510681,32.3584579 C47.9065257,32.7139155 47.9338686,33.2732375 47.6330968,33.6600588 L47.5510681,33.7529526 L33.7462758,47.5577449 C33.3611967,47.9428239 32.7368602,47.9428239 32.3517811,47.5577449 C31.9963236,47.2022873 31.9689807,46.6429654 32.2697525,46.256144 L32.3517811,46.1632503 L46.1565735,32.3584579 C46.5416525,31.9733789 47.165989,31.9733789 47.5510681,32.3584579 Z M44.3886793,42.9162712 C43.5718033,42.9162712 42.9095944,43.5784801 42.9095944,44.3953561 C42.9095944,45.2122321 43.5718033,45.874441 44.3886793,45.874441 C45.2055553,45.874441 45.8677642,45.2122321 45.8677642,44.3953561 C45.8677642,43.5784801 45.2055553,42.9162712 44.3886793,42.9162712 Z M35.5141699,32.0696487 C37.420214,32.0696487 38.965368,33.6148027 38.965368,35.5208467 C38.965368,37.4268908 37.420214,38.9720448 35.5141699,38.9720448 C33.6081259,38.9720448 32.0629718,37.4268908 32.0629718,35.5208467 C32.0629718,33.6148027 33.6081259,32.0696487 35.5141699,32.0696487 Z M35.5141699,34.0417618 C34.6972939,34.0417618 34.035085,34.7039707 34.035085,35.5208467 C34.035085,36.3377228 34.6972939,36.9999316 35.5141699,36.9999316 C36.331046,36.9999316 36.9932548,36.3377228 36.9932548,35.5208467 C36.9932548,34.7039707 36.331046,34.0417618 35.5141699,34.0417618 Z" id="Combined-Shape"></path>
        </g>
    </g>
</svg>