<?xml version="1.0" encoding="UTF-8"?>
<svg width="24px" height="24px" viewBox="0 0 24 24" version="1.1" xmlns="http://www.w3.org/2000/svg" xmlns:xlink="http://www.w3.org/1999/xlink">
    <!-- Generator: Sketch 62 (91390) - https://sketch.com -->
    <title>Shape</title>
    <desc>Created with Sketch.</desc>
    <g id="Page-1" stroke="none" stroke-width="1" fill="none" fill-rule="evenodd">
        <g id="sale-green" fill="#83C150" fill-rule="nonzero">
            <path d="M22.16,8.897 C21.509,8.547 21.209,7.796 21.459,7.095 L21.509,6.895 C22.109,5.043 21.109,3.092 19.257,2.491 C18.557,2.241 17.805,2.241 17.105,2.491 L16.905,2.541 C16.204,2.791 15.453,2.441 15.103,1.841 C14.152,0.139 12,-0.512 10.298,0.439 C9.698,0.739 9.248,1.239 8.898,1.84 C8.547,2.491 7.796,2.791 7.095,2.541 L6.895,2.491 C5.043,1.891 3.092,2.891 2.491,4.743 C2.241,5.443 2.241,6.195 2.491,6.895 L2.541,7.095 C2.791,7.796 2.441,8.547 1.841,8.897 C0.139,9.848 -0.512,12 0.439,13.702 C0.739,14.302 1.239,14.752 1.84,15.102 C2.491,15.453 2.791,16.204 2.541,16.905 L2.491,17.105 C1.891,18.957 2.891,20.908 4.743,21.509 C5.443,21.759 6.195,21.759 6.895,21.509 L7.095,21.459 C7.796,21.209 8.547,21.559 8.897,22.159 C9.848,23.861 12,24.512 13.702,23.561 C14.302,23.261 14.752,22.761 15.102,22.16 C15.453,21.509 16.204,21.209 16.905,21.459 L17.105,21.509 C18.957,22.109 20.908,21.109 21.509,19.257 C21.759,18.557 21.759,17.805 21.509,17.105 L21.459,16.905 C21.209,16.204 21.559,15.453 22.159,15.103 C23.861,14.152 24.512,12 23.561,10.298 C23.261,9.698 22.761,9.248 22.16,8.898 L22.16,8.897 Z M12.75,2.241 C13,2.391 13.201,2.591 13.351,2.841 C14.152,4.343 15.904,5.043 17.505,4.543 L17.705,4.493 C18.506,4.243 19.357,4.693 19.607,5.493 C19.707,5.794 19.707,6.094 19.607,6.395 L19.557,6.495 C19.057,8.096 19.757,9.848 21.209,10.649 C21.959,11.049 22.209,12 21.809,12.701 C21.709,13.001 21.509,13.201 21.209,13.351 C19.707,14.152 19.007,15.904 19.557,17.505 L19.607,17.705 C19.857,18.506 19.407,19.357 18.607,19.607 C18.306,19.707 18.006,19.707 17.705,19.607 L17.505,19.557 C15.904,19.057 14.152,19.757 13.351,21.209 C12.951,21.959 12,22.209 11.299,21.809 C11.049,21.659 10.849,21.459 10.699,21.209 C10.099,20.058 8.897,19.357 7.596,19.357 C7.246,19.357 6.896,19.407 6.545,19.507 L6.345,19.557 C5.544,19.807 4.693,19.357 4.443,18.557 C4.343,18.256 4.343,17.956 4.443,17.655 L4.493,17.505 C4.993,15.904 4.293,14.152 2.841,13.351 C2.091,12.951 1.841,12 2.241,11.299 C2.391,11.049 2.591,10.849 2.841,10.699 C4.293,9.898 4.993,8.146 4.493,6.545 L4.443,6.345 C4.193,5.544 4.643,4.693 5.443,4.443 C5.744,4.343 6.044,4.343 6.345,4.443 L6.545,4.493 C8.146,4.993 9.898,4.293 10.699,2.841 C11.099,2.091 12.05,1.841 12.751,2.241 L12.75,2.241 Z M14.302,8.297 L8.297,14.302 C7.897,14.652 7.847,15.303 8.197,15.703 C8.547,16.103 9.197,16.153 9.597,15.803 C9.647,15.753 9.697,15.753 9.697,15.703 L15.703,9.698 C16.103,9.298 16.103,8.697 15.703,8.297 C15.303,7.897 14.703,7.897 14.303,8.297 L14.302,8.297 Z M15.503,13 C14.653,13 14.002,13.65 14.002,14.501 C14.002,15.352 14.652,16.003 15.503,16.003 C16.304,16.003 16.927,15.426 16.998,14.649 L17.005,14.501 C17.005,13.651 16.355,13 15.503,13 L15.503,13 Z M8.497,7.995 C7.646,7.995 6.995,8.645 6.995,9.497 C6.995,10.347 7.645,10.998 8.497,10.998 C9.347,10.998 9.998,10.348 9.998,9.497 C9.998,8.646 9.348,7.995 8.497,7.995 L8.497,7.995 Z" id="Shape"></path>
        </g>
    </g>
</svg>