<?xml version="1.0" encoding="UTF-8"?>
<svg width="20px" height="20px" viewBox="0 0 20 20" version="1.1" xmlns="http://www.w3.org/2000/svg" xmlns:xlink="http://www.w3.org/1999/xlink">
    <!-- Generator: Sketch 63.1 (92452) - https://sketch.com -->
    <title>Combined Shape</title>
    <desc>Created with Sketch.</desc>
    <g id="Symbols" stroke="none" stroke-width="1" fill="none" fill-rule="evenodd">
        <g id="icons-/-zoom" transform="translate(-10.000000, -10.000000)" fill="#7F7F7F" fill-rule="nonzero">
            <path d="M19,10 C23.9705627,10 28,14.0294373 28,19 C28,21.124779 27.2636898,23.0775836 26.0323074,24.6171757 L29.7071068,28.2928932 C30.0976311,28.6834175 30.0976311,29.3165825 29.7071068,29.7071068 C29.3466228,30.0675907 28.7793918,30.0953203 28.3871006,29.7902954 L28.2928932,29.7071068 L24.6171757,26.0323074 C23.0775836,27.2636898 21.124779,28 19,28 C14.0294373,28 10,23.9705627 10,19 C10,14.0294373 14.0294373,10 19,10 Z M19,12 C15.1340068,12 12,15.1340068 12,19 C12,22.8659932 15.1340068,26 19,26 C20.8904747,26 22.6059153,25.25059 23.8654514,24.0326404 C23.8886352,24.0004394 23.9147502,23.9710363 23.9428932,23.9428932 L24.0326404,23.8654514 C25.25059,22.6059153 26,20.8904747 26,19 C26,15.1340068 22.8659932,12 19,12 Z" id="Combined-Shape"></path>
        </g>
    </g>
</svg>