<svg xmlns="http://www.w3.org/2000/svg" width="75" height="75" viewBox="0 0 75 75">
    <path fill-rule="evenodd" d="M42.686 38.113c7.497.553 11.002 5.69 12.153 7.377l.154.226c4.843 1.138 5.514 6.28 5.18 8.89-.056.436-.428 1.384-.868 1.384l-6.53.001c-.77 1.08-2.034 1.784-3.46 1.784-1.426 0-2.69-.706-3.462-1.786l-.023.001H28.996l-.023-.001c-.772 1.08-2.036 1.786-3.462 1.786-1.427 0-2.692-.706-3.464-1.787l-.023.002h-6.64c-.336 0-.642-.192-.788-.494-1.365-2.824-.126-6.49 1.142-7.66.53-.49 3.822-2.558 9.278-3.15l4.01-4.067c1.57-1.593 3.796-2.507 6.106-2.507 2.758-.256 7.36-.01 7.554.001zM25.51 51.02c-1.38 0-2.503 1.123-2.503 2.503 0 1.38 1.123 2.502 2.503 2.502 1.38 0 2.503-1.122 2.503-2.502 0-1.38-1.123-2.503-2.503-2.503zm23.804 0c-1.38 0-2.503 1.123-2.503 2.503 0 1.38 1.123 2.502 2.503 2.502 1.38 0 2.502-1.122 2.502-2.502 0-1.38-1.122-2.503-2.502-2.503zm-23.804 1.576c.51 0 .926.415.926.927 0 .51-.415.926-.926.926-.511 0-.926-.416-.926-.926 0-.512.415-.927.926-.927zm23.804 0c.51 0 .926.415.926.927 0 .51-.416.926-.926.926s-.927-.416-.927-.926c0-.512.416-.927.927-.927zm9.139.387h-4.92c.022.176.033.357.033.54 0 .155-.008.308-.024.459h4.94c.006-.274 0-.616-.03-1zm-13.357 0H29.73c.022.176.034.357.034.54 0 .155-.009.308-.025.459h15.348c-.016-.151-.025-.304-.025-.46 0-.182.012-.363.035-.54zm-23.805 0h-5.523c.029.337.093.674.202.999h5.311c-.016-.151-.024-.304-.024-.46 0-.182.011-.363.034-.54zm13.92-13.125c-1.925.004-3.696.728-4.94 1.99L26.04 46.14c-.143.146-.335.237-.54.256-2.396.231-4.365.784-5.81 1.334.393.019.477.099.56.177.108.104.173.272.161.422-.067.308-.586 2.354-1.93 2.565l-2.274.108h-.023c-.07 0-.14-.014-.205-.043-.09.32-.16.667-.197 1.023h5.763c.618-1.586 2.162-2.712 3.965-2.712 1.802 0 3.346 1.126 3.964 2.713h15.876c.618-1.587 2.162-2.713 3.964-2.713 1.803 0 3.346 1.126 3.964 2.713h5.05c-.33-1.86-1.298-4.094-3.968-4.613-.413-.08-.598-.353-.967-.894-1.034-1.515-4.182-6.127-10.82-6.616-.03-.002-4.651-.252-7.362-.002zm-15.964 8.874c-.516.029-1.326.11-2.026.199l-.035.002c-.135.086-.223.15-.262.187-.19.176-.399.482-.587.874l2.042-.094c.344-.056.667-.648.868-1.168zM39 41c-.027.288.016.436 0 1v5H28c-.038-.502.002-.72 0-1l3-3c1.476-1.4 2.842-2 4-2h4zm2 0c3.765.016 5.77 1.147 8 3 .734 1.317 1.17 1.905 1 2-.26.893-.79.992-1.823 1H41c-.63-.005-.766-.064-1 0 .041-.271-.009-.409 0-1v-5c.373.207.597 0 1 0zm0 1v4h7c.314 0 .73.005 1 0-.122-.186-.359-.467-1-1-1.616-1.87-3.267-2.898-7-3zm-3 0h-3c-.715 0-1.795.5-3 1l-2 3h8v-4zm8-25c1.105 0 2 .895 2 2v13c0 1.105-.895 2-2 2H33c-1.105 0-2-.895-2-2V19c0-1.105.895-2 2-2h13zm0 2H33v13h13V19zm-6.23 3c1.58 0 2.62.84 2.62 2.24 0 1.45-1.161 2.226-2.572 2.286l-.178.004h-1.7V29h-.79v-7h2.62zm-.06.73h-1.77v3.08h1.73c1.16 0 1.92-.62 1.92-1.56 0-1-.75-1.52-1.88-1.52z"/>
</svg>
