<svg xmlns="http://www.w3.org/2000/svg" width="75" height="75" viewBox="0 0 75 75">
    <path fill-rule="evenodd" d="M54.071 15c.513 0 .929.396.929.884V35h2.933l.012-.005c.199-.08.429-.034.578.116.284.153.477.45.477.793v24.192c0 .5-.41.904-.916.904H16.916c-.507 0-.916-.405-.916-.904V35.904c0-.396.257-.732.615-.854.149-.103.345-.124.516-.05H20V15.884c0-.488.416-.884.929-.884H54.07zM18.383 37H18v21.128l13.262-8.184c.245-.147.57-.078.723.16.154.238.082.553-.162.704L18.55 59H57v-.265l-14.07-7.916c-.25-.14-.336-.454-.19-.697.144-.245.465-.33.715-.187L57 57.554V37h-.32L37.92 48.852c-.085.053-.184.082-.285.082h-.206c-.1 0-.2-.03-.285-.082L18.383 37zM53 17H22v21c-.187-.126-.37-.22-.55-.282l16.082 10.16 15.722-9.93L53 38V17zm-7 15v1H29v-1h17zm0-4v1H29v-1h17zm0-4v1H29v-1h17z"/>
</svg>
