<svg xmlns="http://www.w3.org/2000/svg" width="75" height="75" viewBox="0 0 75 75">
    <path fill-rule="evenodd" d="M26.104 19.167c1.576.39 2.858 1.638 3.812 3.71 1.977 4.296 2.456 6.367 1.832 7.91-.51 1.262-1.708 1.907-3.145 2.49 2.201 4.742 5.344 8.709 9.356 11.816 2.216-3.727 4.046-3.664 10.613.01 2.297 1.284 3.533 2.806 3.677 4.522.168 1.997-1.149 4.092-4.024 6.402-2.24 1.8-4.077 2.655-6.076 2.655-1.29 0-2.648-.356-4.222-1.046-18.651-7.274-21.745-27.21-21.775-27.41-.004-.028-.007-.057-.008-.086l-.033-.665c-.475-3.04.587-5.948 2.85-7.685 2.014-1.545 4.644-3.238 7.143-2.623zm-6.05 4.044c-1.763 1.353-2.55 3.57-2.161 6.084l.039.708c.15.924 3.348 19.217 20.68 25.978 3.059 1.338 4.997 1.456 8.49-1.35 2.342-1.883 3.473-3.517 3.361-4.857-.091-1.086-1.022-2.132-2.766-3.107-6.518-3.646-6.843-3.069-8.406-.296l-.261.477c-.122.227-.337.391-.59.448-.251.058-.516.004-.725-.148-4.84-3.51-8.692-8.354-11.14-14.01-.097-.226-.097-.481 0-.706.096-.227.28-.403.51-.489l.41-.153c1.473-.574 2.323-1.01 2.591-1.674.39-.964-.149-2.905-1.799-6.49-.714-1.552-1.594-2.466-2.613-2.718-1.754-.436-3.927 1.003-5.62 2.303zM38.64 16c10.403.437 18.552 8.924 18.552 19.322 0 .495-.401.896-.896.896s-.897-.401-.897-.896c0-9.434-7.394-17.135-16.833-17.532-.495-.02-.88-.438-.859-.932.022-.495.44-.872.933-.858zm.022 6.7c6.632.439 11.827 5.983 11.827 12.622 0 .495-.402.896-.896.896-.495 0-.897-.401-.897-.896 0-5.698-4.46-10.458-10.152-10.835-.494-.031-.868-.458-.835-.952.032-.493.463-.867.953-.835zm.077 6.628c2.993.456 5.167 2.978 5.167 5.994 0 .495-.402.896-.896.896-.495 0-.897-.401-.897-.896 0-2.124-1.533-3.9-3.645-4.223-.49-.075-.826-.532-.751-1.022.074-.488.531-.825 1.022-.75z"/>
</svg>
