<svg xmlns="http://www.w3.org/2000/svg" width="75" height="75" viewBox="0 0 75 75">
    <path fill-rule="evenodd" d="M42.413 21.436c5.508 5.399 6.137 13.925 1.835 20.037l13.575 11.67c1.49 1.456 1.512 3.786.094 5.232-.719.733-1.67 1.101-2.624 1.101-.929 0-1.858-.35-2.572-1.049L40.75 45.05c-2.727 2.01-5.972 3.018-9.217 3.018-3.928 0-7.858-1.475-10.878-4.435-6.12-6-6.217-15.86-.218-21.978 5.999-6.12 15.859-6.217 21.977-.218zm4.508 24.64l-1.52 1.55 8.584 9.593c.718.7 1.94.69 2.682-.068s.73-1.979-.027-2.72l-9.72-8.355zm-4.29-2.663c-.174.178-.353.352-.534.52l2.636 2.947 1.428-1.457-3-2.577c-.17.192-.347.381-.53.567zM31.536 18.749c-3.578 0-7.153 1.38-9.85 4.13-5.322 5.43-5.236 14.18.194 19.503s14.18 5.236 19.503-.194 5.236-14.18-.194-19.502c-2.68-2.627-6.167-3.937-9.653-3.937zm-.117 2.071c3.104-.027 6.082 1.158 8.316 3.35 2.235 2.19 3.482 5.12 3.513 8.248.03 3.128-1.158 6.082-3.35 8.315-2.19 2.234-5.118 3.483-8.247 3.514h-.12c-3.083.001-5.99-1.187-8.196-3.349-2.235-2.19-3.482-5.12-3.513-8.249-.031-3.128 1.158-6.082 3.348-8.315 2.19-2.236 5.12-3.483 8.249-3.514zm.119 1h-.11c-2.861.028-5.54 1.17-7.544 3.213-2.003 2.044-3.091 4.745-3.062 7.606.028 2.863 1.169 5.541 3.213 7.544 2.044 2.004 4.75 3.047 7.607 3.064 2.86-.029 5.54-1.17 7.543-3.213 2.004-2.044 3.09-4.745 3.063-7.607-.028-2.862-1.17-5.54-3.213-7.544-2.018-1.978-4.676-3.063-7.497-3.063zm5.229 4.14l.178.175c3.63 3.56 3.688 9.407.129 13.037l-.175.18-.357-.35.175-.179c3.366-3.434 3.31-8.965-.122-12.33l-.178-.175.35-.358z"/>
</svg>
