<svg xmlns="http://www.w3.org/2000/svg" width="75" height="75" viewBox="0 0 75 75">
    <path fill-rule="evenodd" d="M37.5 16C49.355 16 59 25.645 59 37.5 59 49.357 49.355 59 37.5 59S16 49.356 16 37.5C16 25.646 25.645 16 37.5 16zm0 1.696c-10.92 0-19.804 8.885-19.804 19.805 0 10.919 8.884 19.803 19.804 19.803 10.92 0 19.804-8.884 19.804-19.803 0-10.92-8.884-19.805-19.804-19.805zm0 2.46c9.563 0 17.343 7.782 17.343 17.344 0 9.562-7.78 17.343-17.343 17.343-9.563 0-17.344-7.78-17.344-17.344 0-9.562 7.781-17.343 17.344-17.343zm0 .97c-9.029 0-16.374 7.346-16.374 16.374 0 9.029 7.345 16.375 16.374 16.375 9.028 0 16.374-7.346 16.374-16.375S46.528 21.124 37.5 21.124zm.486 30.21v2.046h-.97v-2.046h.97zm6.57-21.749l1.207 1.191-6.15 6.24c.024.138.042.278.042.423 0 1.322-1.076 2.398-2.398 2.398-1.323 0-2.399-1.076-2.399-2.398 0-.186.025-.366.066-.54L31.66 34.37l1.04-1.339 3.171 2.46c.392-.28.868-.449 1.386-.449.541 0 1.036.188 1.437.491l5.862-5.945zm-7.3 6.865c-.545 0-.987.443-.987.99 0 .545.442.986.987.986.546 0 .988-.44.988-.987 0-.546-.442-.989-.988-.989zm16.125.563v.97h-2.045v-.97h2.045zm-29.717 0v.97h-2.046v-.97h2.046zm14.322-15.397v2.047h-.97v-2.047h.97z"/>
</svg>
