<svg xmlns="http://www.w3.org/2000/svg" width="75" height="75" viewBox="0 0 75 75">
    <g fill="none" fill-rule="evenodd">
        <g fill="#000">
            <g>
                <g>
                    <path d="M17.528 0c1.123 0 1.977.817 2.73 1.54.456.436.927.89 1.291.985.398.11 1.051-.052 1.685-.207.994-.24 2.12-.516 3.062.03.952.55 1.278 1.672 1.567 2.663.18.62.366 1.258.646 1.537.278.28.918.466 1.537.645.99.29 2.113.615 2.664 1.57.543.937.27 2.064.028 3.058-.154.634-.313 1.29-.207 1.687.097.362.55.834.985 1.29.722.753 1.54 1.605 1.54 2.73 0 1.122-.817 1.976-1.539 2.73-.437.455-.889.926-.986 1.29-.106.395.053 1.051.207 1.685.241.995.515 2.122-.029 3.062-.55.952-1.673 1.278-2.663 1.567l-.472.14 5.213 11.006c.13.275.109.598-.058.853-.161.248-.438.396-.733.396h-.024l-5.467-.15-3.35 4.325c-.166.215-.422.339-.691.339-.031 0-.062-.002-.095-.005-.302-.033-.566-.221-.696-.496l-4.61-9.735c-.455.306-.96.52-1.535.52-.474 0-.9-.146-1.291-.369l-4.54 9.584c-.13.275-.394.463-.696.496-.033.003-.064.005-.095.005-.269 0-.525-.124-.69-.34l-3.35-4.324-5.468.15h-.024c-.295 0-.572-.148-.733-.396-.167-.255-.188-.578-.058-.853l5.17-10.916c-.233-.082-.49-.157-.742-.23-.99-.289-2.114-.616-2.664-1.569-.543-.939-.27-2.066-.029-3.06.155-.634.314-1.29.207-1.685-.096-.364-.549-.835-.986-1.29C.817 19.503 0 18.65 0 17.527c0-1.125.818-1.977 1.54-2.73.436-.456.89-.928.985-1.29.107-.397-.052-1.053-.207-1.687-.24-.994-.514-2.12.03-3.06.55-.953 1.672-1.28 2.664-1.569.618-.179 1.257-.366 1.536-.645.28-.279.466-.918.646-1.537.288-.99.615-2.113 1.568-2.663.94-.544 2.068-.27 3.06-.029.635.155 1.29.316 1.687.207.362-.096.834-.549 1.29-.985C15.552.818 16.404 0 17.53 0zM7.026 29.49l-4.252 8.979 4.486-.123c.311-.004.545.118.716.339l2.75 3.55 4.11-8.683-.037-.035c-.456-.437-.928-.889-1.29-.986-.397-.108-1.054.054-1.688.207-.994.241-2.12.514-3.059-.028-.954-.552-1.28-1.674-1.569-2.664-.054-.187-.109-.376-.167-.556zm20.836.556c-.288.99-.615 2.112-1.567 2.663-.94.546-2.066.27-3.06.03-.635-.154-1.287-.314-1.687-.208-.315.085-.713.438-1.111.816l4.208 8.887 2.749-3.55c.17-.22.395-.337.716-.338l4.486.123-4.432-9.358c-.11.28-.207.61-.302.935zM17.528 1.75c-.42 0-1.004.56-1.518 1.053-.616.59-1.252 1.2-2.049 1.414-.83.221-1.706.008-2.553-.199-.673-.163-1.436-.349-1.77-.157-.344.2-.567.964-.764 1.64-.242.83-.492 1.687-1.088 2.284-.597.596-1.455.846-2.285 1.088-.675.196-1.44.42-1.639.765-.192.332-.007 1.096.156 1.77.206.848.42 1.724.2 2.551-.215.798-.826 1.434-1.415 2.05-.494.514-1.053 1.098-1.053 1.518 0 .42.56 1.004 1.053 1.52.59.615 1.2 1.251 1.414 2.05.22.826.007 1.702-.199 2.55-.163.673-.348 1.438-.157 1.77.167.288.726.49 1.298.664l.341.101c.831.242 1.69.492 2.286 1.087.596.597.846 1.455 1.088 2.287.196.673.42 1.438.764 1.638.334.191 1.097.006 1.77-.158.593-.144 1.2-.29 1.794-.29.255 0 .51.026.757.093.798.213 1.435.823 2.051 1.413.514.494 1.098 1.053 1.518 1.053.421 0 1.004-.56 1.52-1.053.615-.59 1.251-1.199 2.048-1.413.83-.22 1.705-.009 2.551.198.674.162 1.44.346 1.771.157.26-.15.449-.618.61-1.126l.104-.343.05-.17c.243-.83.493-1.689 1.088-2.286.597-.595 1.455-.845 2.286-1.087l.17-.05.343-.104c.508-.161.976-.351 1.126-.61.192-.332.006-1.097-.157-1.772-.206-.847-.419-1.723-.198-2.549.214-.799.824-1.435 1.414-2.05.493-.516 1.052-1.1 1.052-1.52 0-.42-.559-1.004-1.052-1.518-.59-.616-1.2-1.252-1.414-2.049-.22-.828-.008-1.704.198-2.552.163-.674.35-1.438.157-1.77-.2-.345-.964-.568-1.639-.764-.83-.242-1.689-.492-2.286-1.088-.595-.597-.845-1.456-1.088-2.286-.196-.675-.418-1.439-.762-1.638-.335-.193-1.098-.007-1.773.157-.848.205-1.726.417-2.549.198-.799-.214-1.435-.825-2.05-1.414-.516-.494-1.1-1.053-1.52-1.053zm0 4.36c6.297 0 11.42 5.121 11.42 11.417 0 6.297-5.123 11.42-11.42 11.42S6.11 23.823 6.11 17.526c0-6.296 5.122-11.418 11.42-11.418zm0 1c-5.745 0-10.419 4.673-10.419 10.417 0 5.745 4.674 10.42 10.42 10.42 5.744 0 10.418-4.675 10.418-10.42 0-5.744-4.674-10.418-10.419-10.418z" transform="translate(-123 -644) translate(123 644) translate(19 15)"/>
                </g>
            </g>
        </g>
    </g>
</svg>
