<svg xmlns="http://www.w3.org/2000/svg" width="75" height="75" viewBox="0 0 75 75">
    <g fill="none" fill-rule="evenodd">
        <g fill="#000">
            <g>
                <g>
                    <path d="M20.173.376L0 9.543V36c0 .552.448 1 1 1h40c.552 0 1-.448 1-1V9.543L21.827.376c-.525-.239-1.129-.239-1.654 0zM11.993 33v-6H20v6h-8.008zM7 34h28v1H7v-1zm10-9v-6h8v6h-8zm5 8v-6h7.983v6H22zm9.983 0v-8h-4.992v-7.983H14.996V25h-4.949v8H7V15h28v18h-3.017zM21.835 2.383L40 10.725V35h-3.034V14.008c0-.552-.448-1-1-1H6c-.553 0-1 .448-1 1V35H2V10.725l18.165-8.342c.53-.243 1.14-.243 1.67 0zM18 9h6v1h-6V9z" transform="translate(-123 -1002) translate(123 1002) translate(17 19)"/>
                </g>
            </g>
        </g>
    </g>
</svg>
