<svg xmlns="http://www.w3.org/2000/svg" width="75" height="75" viewBox="0 0 75 75">
    <g fill="none" fill-rule="evenodd">
        <g fill="#000">
            <g>
                <path d="M54 22c2.914 0 5 2.085 5 5v22c0 2.916-2.086 5-5 5H22c-2.914 0-5-2.084-5-5V27c0-2.915 2.086-5 5-5h32zM28.2 33h-9.201L19 49c0 1.73 1.278 3 3 3h32c1.722 0 3-1.27 3-3l-.001-16H47.8c.767 1.5 1.2 3.2 1.2 5 0 6.075-4.925 11-11 11s-11-4.925-11-11c0-1.8.433-3.5 1.2-5zm25.3 14c2.001 0 1.998 3 0 3-2.002 0-1.999-3 0-3zM38 29c-4.97 0-9 4.03-9 9s4.03 9 9 9 9-4.03 9-9-4.03-9-9-9zm0 1c4.418 0 8 3.582 8 8s-3.582 8-8 8-8-3.582-8-8 3.582-8 8-8zm0 1c-3.866 0-7 3.134-7 7s3.134 7 7 7 7-3.134 7-7-3.134-7-7-7zm16-7H22c-1.722 0-3 1.271-3 3l-.001 5h9.78c1.963-3.01 5.36-5 9.221-5 3.861 0 7.258 1.99 9.22 5H57L57 27c0-1.729-1.278-3-3-3z" transform="translate(-123 -823) translate(123 823)"/>
            </g>
        </g>
    </g>
</svg>
