<svg xmlns="http://www.w3.org/2000/svg" width="75" height="75" viewBox="0 0 75 75">
    <g fill="none" fill-rule="evenodd">
        <g fill="#000">
            <g>
                <path d="M31.604 16c3.007 0 5.52 2.633 6.561 6.454h5.182c.479 0 .875.376.898.855l.516 10.284 11.196.001c.478 0 .873.377.898.855l1.144 22.788c.012.247-.077.487-.247.665-.17.18-.406.28-.651.28H37.649c-.246 0-.482-.1-.652-.28-.17-.178-.259-.418-.246-.665l.064-1.308H17.9c-.245 0-.48-.1-.65-.28-.171-.178-.26-.419-.248-.665l1.591-31.675c.025-.48.42-.855.898-.855h5.553c1.04-3.821 3.554-6.454 6.56-6.454zm12.229 19.393h-4.185l-1.054 20.99h17.561l-1.053-20.99-11.15.001c-.04.002-.08.002-.12-.001zm-19.156-11.14h-4.332l-1.5 29.877h18.06l.99-19.681c.024-.478.42-.855.898-.855h4.168l-.47-9.341h-3.96c.077.551.125 1.12.142 1.701.708.277 1.212.967 1.212 1.773 0 1.048-.854 1.902-1.903 1.902-1.048 0-1.901-.854-1.901-1.902 0-.637.314-1.202.796-1.548l.004.254c0-.75-.062-1.48-.178-2.18H26.505c-.102.613-.162 1.25-.175 1.903.502.342.832.919.832 1.57 0 1.05-.855 1.903-1.904 1.903-1.048 0-1.901-.854-1.901-1.902 0-.793.487-1.474 1.178-1.76.017-.586.065-1.159.142-1.714zm27.42 12.936c.834 0 1.512.678 1.512 1.511 0 .712-.492 1.31-1.154 1.47-.164 3.363-2.32 6.033-4.947 6.033-2.628 0-4.785-2.673-4.948-6.039-.648-.17-1.129-.761-1.129-1.464 0-.833.678-1.511 1.512-1.511.835 0 1.513.678 1.513 1.511 0 .606-.357 1.128-.87 1.37.117 2.843 1.831 5.105 3.922 5.105 2.094 0 3.81-2.269 3.924-5.118-.502-.245-.847-.761-.847-1.357 0-.833.678-1.511 1.512-1.511zm-9.154 1.027c-.266 0-.484.217-.484.484 0 .268.218.486.484.486.267 0 .485-.218.485-.486 0-.267-.218-.484-.485-.484zm9.154 0c-.267 0-.485.217-.485.484 0 .268.218.486.485.486.268 0 .484-.218.484-.486 0-.267-.216-.484-.484-.484zM24.746 27.02l-.068.054c-.18.16-.294.394-.294.654 0 .482.393.875.874.875.483 0 .876-.393.876-.875 0-.21-.074-.402-.198-.553-.145.1-.32.158-.508.158-.273 0-.518-.121-.682-.313zm13.728-.015l-.021.026c-.165.185-.405.302-.672.302-.18 0-.346-.052-.486-.142-.117.146-.187.334-.187.537 0 .482.393.875.874.875.483 0 .876-.393.876-.875 0-.3-.153-.566-.384-.723zm-6.87-9.205c-1.99 0-3.766 1.914-4.662 4.655h9.324c-.896-2.741-2.672-4.655-4.662-4.655z" transform="translate(-123 -1199) translate(123 1199)"/>
            </g>
        </g>
    </g>
</svg>
