<svg xmlns="http://www.w3.org/2000/svg" width="75" height="75" viewBox="0 0 75 75">
    <g fill="none" fill-rule="evenodd">
        <g fill="#000" fill-rule="nonzero">
            <g>
                <path d="M53.665 19.469c.465 0 .842.377.842.842v16.148h4.151c.465 0 .842.488.842.953v16.237c0 .465-.377.842-.842.842h-3.183v1.738c0 .11-.075.203-.177.231l-.064.009h-3.468c-.111 0-.205-.075-.233-.176l-.008-.064V54.49H23.479v1.738c0 .11-.075.203-.177.231l-.064.009h-3.472c-.111 0-.184 0-.233-.176l-.008-.064V54.49h-3.183c-.465 0-.842-.377-.842-.842V37.412c0-.465.377-.953.842-.953h4.2V20.311c0-.465.377-.842.842-.842h32.281zm-30.172 19h-5.975v13.968h39.979l.012-13.968h-5.998l.014 7.154c0 .466-.377.842-.842.842H24.335c-.465 0-.842-.376-.842-.842v-7.154zm26.036 3.04H25.534l-.036 2.96h23.994l.037-2.96zm2.963-20.072H22.473v15.022h2.22c.464 0 .841.488.841.953l-.061 3.081h23.994l.032-3.081c0-.465.377-.953.841-.953h2.152V21.437z" transform="translate(-123 -465) translate(123 465)"/>
            </g>
        </g>
    </g>
</svg>
