<?xml version="1.0" encoding="UTF-8"?>
<svg width="18px" height="18px" viewBox="0 0 18 18" version="1.1" xmlns="http://www.w3.org/2000/svg" xmlns:xlink="http://www.w3.org/1999/xlink">
    <!-- Generator: Sketch 62 (91390) - https://sketch.com -->
    <title>icons/ic_cal</title>
    <desc>Created with Sketch.</desc>
    <g id="📱-mobile" stroke="none" stroke-width="1" fill="none" fill-rule="evenodd">
        <g id="05.4-cart-checkout" transform="translate(-27.000000, -932.000000)" fill="#A1A1A1">
            <g id="Group-4" transform="translate(16.000000, 894.000000)">
                <g id="input-copy-4">
                    <g id="ddown" transform="translate(0.000000, 27.000000)">
                        <g id="icons-/-time">
                            <path d="M20,11 C24.9705627,11 29,15.0294373 29,20 C29,24.9705627 24.9705627,29 20,29 C15.0294373,29 11,24.9705627 11,20 C11,15.0294373 15.0294373,11 20,11 Z M20,13 C16.1340068,13 13,16.1340068 13,20 C13,23.8659932 16.1340068,27 20,27 C23.8659932,27 27,23.8659932 27,20 C27,16.1340068 23.8659932,13 20,13 Z M21,14.9375 L21,19.585 L23.8006126,22.3863991 L22.3863991,23.8006126 L19,20.4142136 L19,14.9375 L21,14.9375 Z" id="Combined-Shape"></path>
                        </g>
                    </g>
                </g>
            </g>
        </g>
    </g>
</svg>