<?xml version="1.0" encoding="UTF-8"?>
<svg width="24px" height="24px" viewBox="0 0 24 24" version="1.1" xmlns="http://www.w3.org/2000/svg" xmlns:xlink="http://www.w3.org/1999/xlink">
    <!-- Generator: Sketch 62 (91390) - https://sketch.com -->
    <title>Group</title>
    <desc>Created with Sketch.</desc>
    <g id="Page-1" stroke="none" stroke-width="1" fill="none" fill-rule="evenodd">
        <g id="messengers" fill-rule="nonzero">
            <g id="Group">
                <path d="M15.705,5.5 L15.723,5.503 C17.271,5.839 18.958,7.453 19.332,8.958 L19.336,8.977 C19.799,11.078 19.799,13.209 19.336,15.311 L19.332,15.329 C18.958,16.834 17.272,18.449 15.722,18.784 L15.705,18.788 C14.453,19.026 13.192,19.144 11.931,19.144 C11.56,19.144 11.188,19.133 10.818,19.112 L9.108,20.882 C8.684,21.32 7.939,21.022 7.939,20.413 L7.939,18.733 C6.449,18.31 4.888,16.77 4.529,15.329 L4.525,15.311 C4.063,13.209 4.063,11.078 4.525,8.977 L4.529,8.958 C4.904,7.454 6.59,5.839 8.139,5.503 L8.156,5.499 C10.661,5.024 13.2,5.024 15.706,5.499 L15.705,5.5 Z M8.425,6.854 C7.408,7.079 6.128,8.3 5.878,9.282 C5.462,11.181 5.462,13.106 5.878,15.006 C6.116,15.938 7.283,17.086 8.271,17.392 L8.426,17.434 C8.472,17.442 8.505,17.482 8.505,17.527 L8.505,20.31 C8.505,20.45 8.675,20.518 8.772,20.417 L10.1,19.06 L11.35,17.785 C11.368,17.765 11.393,17.755 11.42,17.756 C12.761,17.793 14.104,17.686 15.435,17.434 C16.453,17.208 17.733,15.988 17.983,15.006 C18.4,13.106 18.4,11.181 17.983,9.282 C17.733,8.3 16.453,7.079 15.435,6.854 C13.11,6.414 10.751,6.414 8.425,6.854 L8.425,6.854 Z M9.649,8.828 C10.014,9.25 10.349,9.693 10.621,10.182 C10.788,10.482 10.743,10.85 10.44,11.055 C10.366,11.105 10.3,11.163 10.23,11.219 C10.17,11.269 10.114,11.319 10.073,11.385 C9.998,11.507 9.993,11.651 10.043,11.783 C10.416,12.804 11.045,13.598 12.078,14.026 C12.243,14.094 12.408,14.174 12.599,14.152 C12.919,14.115 13.021,13.767 13.245,13.585 C13.463,13.407 13.742,13.405 13.977,13.553 C14.213,13.701 14.441,13.86 14.667,14.021 C14.89,14.179 15.112,14.333 15.317,14.513 C15.514,14.686 15.582,14.913 15.471,15.148 C15.267,15.578 14.971,15.935 14.544,16.163 C14.424,16.228 14.28,16.249 14.144,16.29 C13.987,16.243 13.838,16.211 13.7,16.154 C12.265,15.562 10.945,14.798 9.9,13.627 C9.305,12.961 8.84,12.209 8.446,11.413 C8.26,11.036 8.102,10.644 7.942,10.254 C7.796,9.899 8.012,9.532 8.238,9.264 C8.451,9.014 8.724,8.821 9.021,8.679 C9.252,8.569 9.481,8.633 9.649,8.828 L9.649,8.828 Z M11.935,8.188 L11.945,8.188 L12.139,8.198 C13.922,8.332 15.364,9.547 15.682,11.325 C15.738,11.639 15.758,11.961 15.783,12.28 C15.793,12.414 15.717,12.542 15.572,12.5440235 C15.422,12.546 15.354,12.42 15.344,12.286 C15.324,12.02 15.311,11.754 15.274,11.49 C15.08,10.1 13.966,8.949 12.574,8.702 C12.365,8.665 12.151,8.655 11.939,8.632 C11.805,8.619 11.629,8.611 11.599,8.445 C11.575,8.305 11.693,8.195 11.826,8.188 C11.862,8.186 11.898,8.188 11.935,8.188 L11.935,8.188 Z M12.166,9.185 C12.596,9.21 13.012,9.302 13.396,9.504 C14.174,9.914 14.618,10.562 14.748,11.426 C14.754,11.466 14.763,11.504 14.766,11.544 C14.774,11.641 14.778,11.738 14.786,11.866 C14.783,11.889 14.781,11.944 14.767,11.996 C14.717,12.183 14.432,12.206 14.367,12.017 C14.347,11.961 14.344,11.897 14.344,11.837 C14.344,11.441 14.257,11.047 14.056,10.702 C13.85,10.349 13.536,10.052 13.166,9.872 C12.943,9.762 12.702,9.695 12.457,9.655 C12.35,9.637 12.242,9.627 12.135,9.612 C12.005,9.594 11.935,9.512 11.941,9.384 C11.947,9.264 12.035,9.178 12.166,9.185 L12.166,9.185 Z M12.467,10.208 C13.195,10.261 13.714,10.635 13.789,11.487 C13.794,11.547 13.8,11.611 13.787,11.668 C13.77,11.738 13.728,11.783 13.68,11.805 L13.63,11.82 L13.619,11.82 C13.529,11.822 13.565,11.82 13.599,11.82 C13.455,11.815 13.377,11.73 13.362,11.594 C13.35,11.494 13.342,11.393 13.318,11.296 C13.27,11.104 13.168,10.927 13.007,10.81 C12.93,10.754 12.844,10.714 12.753,10.688 C12.638,10.655 12.518,10.664 12.403,10.636 C12.279,10.606 12.21,10.506 12.229,10.389 C12.247,10.283 12.351,10.199 12.467,10.209 L12.467,10.208 Z" id="Shape" fill="#FFFFFF"></path>
            </g>
        </g>
    </g>
</svg>