<?xml version="1.0" encoding="UTF-8"?>
<svg width="28px" height="28px" viewBox="0 0 28 28" version="1.1" xmlns="http://www.w3.org/2000/svg" xmlns:xlink="http://www.w3.org/1999/xlink">
    <!-- Generator: Sketch 50.2 (55047) - http://www.bohemiancoding.com/sketch -->
    <title>Group 2</title>
    <desc>Created with Sketch.</desc>
    <defs></defs>
    <g id="Symbols" stroke="none" stroke-width="1" fill="none" fill-rule="evenodd">
        <g id="icons/social" transform="translate(-73.000000, 0.000000)">
            <g id="Group-2" transform="translate(73.000000, 0.000000)">
                <path d="M13.3180978,19.2294997 L14.3339223,19.2294997 C14.3339223,19.2294997 14.6410074,19.1954973 14.7972063,19.0265474 C14.9417169,18.871411 14.9364041,18.5802646 14.9364041,18.5802646 C14.9364041,18.5802646 14.9162151,17.216977 15.5495116,17.0161498 C16.1732448,16.8185103 16.9744286,18.3337465 17.8234285,18.9171018 C18.4652256,19.3580717 18.9529489,19.2613771 18.9529489,19.2613771 L21.223678,19.2294997 C21.223678,19.2294997 22.4116402,19.1561819 21.8484739,18.2221758 C21.8027831,18.1456702 21.5201373,17.5315001 20.1600375,16.2691575 C18.736183,14.9473104 18.927447,15.1619512 20.6424479,12.8763459 C21.6869621,11.4843687 22.1045552,10.6343063 21.9738581,10.2709047 C21.8495365,9.92450425 21.0812926,10.015886 21.0812926,10.015886 L18.5268551,10.030762 C18.5268551,10.030762 18.3377162,10.0052602 18.1963933,10.0892038 C18.0593208,10.1720849 17.9711268,10.363349 17.9711268,10.363349 C17.9711268,10.363349 17.5662846,11.440803 17.026495,12.3567453 C15.8884739,14.2895746 15.432628,14.3915821 15.2466768,14.2715108 C14.8142076,13.9920528 14.9225905,13.1473033 14.9225905,12.5480093 C14.9225905,10.6746843 15.2062989,9.89368949 14.3689874,9.69179967 C14.090592,9.62485725 13.886577,9.58022898 13.1757123,9.57279093 C12.2640204,9.56322773 11.4915262,9.57597866 11.0548066,9.78955684 C10.7636603,9.93194229 10.5394563,10.2496531 10.6765289,10.2677169 C10.8454788,10.2900311 11.2280068,10.370787 11.4309592,10.6470573 C11.693416,11.0030209 11.6838528,11.8042047 11.6838528,11.8042047 C11.6838528,11.8042047 11.8347389,14.0090541 11.3321395,14.2831992 C10.9868016,14.4712755 10.5139544,14.0876848 9.49919245,12.3333686 C8.97959181,11.4354902 8.58643795,10.4419797 8.58643795,10.4419797 C8.58643795,10.4419797 8.51099492,10.2570912 8.37604751,10.1582714 C8.2124105,10.0382001 7.98289365,9.99994728 7.98289365,9.99994728 L5.55384036,10.0148234 C5.55384036,10.0148234 5.1893761,10.0254492 5.05549128,10.1837733 C4.93648254,10.3250962 5.04592808,10.6162425 5.04592808,10.6162425 C5.04592808,10.6162425 6.94794269,15.0652566 9.1007257,17.3083587 C11.0760582,19.3644472 13.3180978,19.2294997 13.3180978,19.2294997" id="Fill-1" fill="#FFFFFF"></path>
            </g>
        </g>
    </g>
</svg>