<?xml version="1.0" encoding="UTF-8"?>
<svg width="38px" height="46px" viewBox="0 0 38 46" version="1.1" xmlns="http://www.w3.org/2000/svg" xmlns:xlink="http://www.w3.org/1999/xlink">
    <!-- Generator: Sketch 62 (91390) - https://sketch.com -->
    <title>pictograms / assortment copy</title>
    <desc>Created with Sketch.</desc>
    <g id="__delivery" stroke="none" stroke-width="1" fill="none" fill-rule="evenodd">
        <g id="01.14.1-Mobile-product-delivery" transform="translate(-142.000000, -984.000000)" fill="#000000">
            <g id="features" transform="translate(0.000000, 914.000000)">
                <g id="pictograms-/-weight" transform="translate(123.000000, 55.000000)">
                    <g id="Group-10" transform="translate(19.000000, 14.000000)">
                        <g id="Group-3" transform="translate(0.000000, 0.040100)">
                            <path d="M18.0767,0.9599 C26.7307,0.9599 31.3057,5.5339 31.3057,14.1889 C31.3057,14.7559 31.2597,15.3399 31.1607,15.9929 C35.2507,18.3679 37.3227,22.1819 37.3227,27.3389 C37.3227,37.6289 28.9517,45.9999 18.6617,45.9999 C8.3717,45.9999 -0.000300000003,37.6289 -0.000300000003,27.3389 C-0.000300000003,22.6529 1.7157,19.0649 5.1007,16.6639 C4.9307,15.8059 4.8477,14.9909 4.8477,14.1889 C4.8477,5.5339 9.4227,0.9599 18.0767,0.9599 Z M18.0767,2.7099 C10.3527,2.7099 6.5977,6.4649 6.5977,14.1889 C6.5977,15.0359 6.7067,15.9069 6.9327,16.8539 C7.0187,17.2149 6.8677,17.5909 6.5557,17.7919 C3.3667,19.8469 1.7497,23.0589 1.7497,27.3389 C1.7497,36.6639 9.3367,44.2499 18.6617,44.2499 C27.9867,44.2499 35.5727,36.6639 35.5727,27.3389 C35.5727,22.6529 33.6257,19.2529 29.7867,17.2329 C29.4477,17.0549 29.2637,16.6759 29.3347,16.2979 C29.4857,15.4899 29.5557,14.8199 29.5557,14.1889 C29.5557,6.4649 25.8007,2.7099 18.0767,2.7099 Z M18.6592,20.7724 C23.0232,20.7724 26.5732,24.3224 26.5732,28.6864 C26.5732,33.0494 23.0232,36.5994 18.6592,36.5994 C14.2952,36.5994 10.7452,33.0494 10.7452,28.6864 C10.7452,24.3224 14.2952,20.7724 18.6592,20.7724 Z M18.6592,21.7724 C14.8472,21.7724 11.7452,24.8744 11.7452,28.6864 C11.7452,32.4984 14.8472,35.5994 18.6592,35.5994 C22.4712,35.5994 25.5732,32.4984 25.5732,28.6864 C25.5732,24.8744 22.4712,21.7724 18.6592,21.7724 Z M20.4124,24.6983 C20.9764,24.6983 21.4544,24.8633 21.8464,25.1923 C22.2384,25.5223 22.4344,25.9203 22.4344,26.3843 L22.4344,30.2303 C22.4344,30.6993 22.2364,31.0963 21.8394,31.4233 C21.4424,31.7493 20.9674,31.9123 20.4124,31.9123 C19.8494,31.9123 19.3704,31.7483 18.9754,31.4203 C18.5814,31.0913 18.3834,30.6953 18.3834,30.2303 L18.3834,26.3843 C18.3834,25.9163 18.5824,25.5183 18.9794,25.1903 C19.3754,24.8623 19.8534,24.6983 20.4124,24.6983 Z M17.2614,24.7878 L17.2614,31.8388 L15.9834,31.8388 L15.9834,26.4128 L14.8944,26.4128 L14.8944,25.6708 C15.2014,25.6408 15.4934,25.5438 15.7704,25.3808 C16.0474,25.2178 16.2474,25.0208 16.3684,24.7878 L17.2614,24.7878 Z M20.3724,25.7493 C20.1694,25.7493 19.9964,25.8093 19.8544,25.9293 C19.7134,26.0503 19.6414,26.1933 19.6414,26.3623 L19.6414,30.2143 C19.6414,30.3833 19.7134,30.5273 19.8544,30.6463 C19.9964,30.7663 20.1694,30.8273 20.3724,30.8273 C20.5744,30.8273 20.7484,30.7663 20.8924,30.6463 C21.0374,30.5273 21.1094,30.3833 21.1094,30.2143 L21.1094,26.3623 C21.1094,26.1933 21.0374,26.0503 20.8924,25.9293 C20.7484,25.8093 20.5744,25.7493 20.3724,25.7493 Z M18.0767,6.4179 C25.2537,6.4179 25.8477,10.0939 25.8477,14.1889 C25.8477,14.3339 25.8357,14.4769 25.8237,14.6189 L25.8107,14.7609 C25.7937,15.0109 25.6697,15.2399 25.4707,15.3929 C25.2727,15.5449 25.0187,15.6049 24.7727,15.5579 C22.9037,15.1959 20.8477,15.0129 18.6617,15.0129 C16.0027,15.0129 13.5727,15.2769 11.4397,15.7989 C11.3707,15.8159 11.3017,15.8239 11.2317,15.8239 C11.0547,15.8239 10.8787,15.7699 10.7307,15.6659 C10.5237,15.5219 10.3897,15.2959 10.3627,15.0449 C10.3307,14.7619 10.3057,14.4779 10.3057,14.1889 L10.3076875,13.800271 C10.3500487,9.86420789 11.1275413,6.4179 18.0767,6.4179 Z M18.0767,8.1679 C12.6227,8.1679 12.0837,10.3139 12.0567,13.8699 C14.0627,13.4669 16.2797,13.2629 18.6617,13.2629 C20.5737,13.2629 22.3957,13.3969 24.0947,13.6629 C24.0467,10.2309 23.4237,8.1679 18.0767,8.1679 Z" id="Combined-Shape"></path>
                        </g>
                    </g>
                </g>
            </g>
        </g>
    </g>
</svg>