<?xml version="1.0" encoding="UTF-8"?>
<svg width="24px" height="24px" viewBox="0 0 24 24" version="1.1" xmlns="http://www.w3.org/2000/svg" xmlns:xlink="http://www.w3.org/1999/xlink">
    <!-- Generator: Sketch 62 (91390) - https://sketch.com -->
    <title>whatsapp</title>
    <desc>Created with Sketch.</desc>
    <g id="Page-1" stroke="none" stroke-width="1" fill="none" fill-rule="evenodd">
        <g id="whatsapp" fill-rule="nonzero">
            <path d="M16.942,7.145 C15.647,5.855 13.924,5.144 12.088,5.143 C8.306,5.143 5.228,8.206 5.226,11.971 C5.226,13.174 5.541,14.349 6.142,15.385 L5.168,18.923 L8.806,17.973 C9.809,18.518 10.937,18.804 12.086,18.805 L12.088,18.805 C15.87,18.805 18.949,15.741 18.9500021,11.976 C18.951,10.152 18.238,8.436 16.942,7.146 L16.942,7.145 Z M12.088,17.651 L12.086,17.651 C11.062,17.651 10.059,17.377 9.183,16.861 L8.975,16.737 L6.815,17.301 L7.392,15.206 L7.256,14.992 C6.686,14.088 6.384,13.044 6.38499506,11.972 C6.38499506,8.842 8.945,6.296 12.091,6.296 C13.614,6.296 15.046,6.888 16.123,7.961 C17.2,9.033 17.793,10.459 17.7920026,11.976 C17.791,15.106 15.232,17.651 12.088,17.651 Z M15.217,13.401 C15.045,13.315 14.202,12.903 14.045,12.846 C13.888,12.789 13.774,12.76 13.659,12.931 C13.545,13.101 13.217,13.486 13.116,13.6 C13.016,13.714 12.916,13.728 12.745,13.643 C12.573,13.557 12.021,13.377 11.366,12.796 C10.856,12.343 10.512,11.785 10.412,11.614 C10.312,11.443 10.412,11.36 10.487,11.266 C10.673,11.036 10.859,10.796 10.916,10.682 C10.973,10.568 10.945,10.469 10.902,10.383 C10.859,10.298 10.516,9.458 10.373,9.116 C10.233,8.784 10.093,8.829 9.987,8.823 C9.887,8.818 9.773,8.817 9.659,8.817 C9.544,8.817 9.359,8.86 9.201,9.031 C9.044,9.201 8.601,9.615 8.601,10.454 C8.601,11.294 9.216,12.105 9.301,12.219 C9.387,12.333 10.511,14.057 12.231,14.796 C12.64,14.972 12.959,15.076 13.208,15.156 C13.618,15.285 13.993,15.266 14.288,15.223 C14.618,15.173 15.302,14.81 15.445,14.411 C15.588,14.013 15.588,13.671 15.545,13.6 C15.503,13.529 15.388,13.486 15.217,13.4 L15.217,13.401 Z" id="Shape" fill="#FFFFFF"></path>
        </g>
    </g>
</svg>