<svg width="75" height="75" fill="none" xmlns="http://www.w3.org/2000/svg">
    <g clip-path="url(#a)" fill="#83C150">
        <path d="M34.875 32.75c-5.17 0-9.375-4.206-9.375-9.375 0-5.17 4.206-9.375 9.375-9.375 5.17 0 9.375 4.206 9.375 9.375 0 5.17-4.206 9.375-9.375 9.375zm0-16.875c-4.136 0-7.5 3.364-7.5 7.5s3.364 7.5 7.5 7.5 7.5-3.364 7.5-7.5-3.364-7.5-7.5-7.5zM33.938 53.375h-15a.938.938 0 0 1-.938-.938v-7.5c0-4.651 3.786-8.437 8.438-8.437h11.25a.938.938 0 0 1 0 1.875h-11.25a6.57 6.57 0 0 0-6.563 6.563V51.5h14.063a.938.938 0 0 1 0 1.875z"/>
        <path d="M49.875 51.25a4.444 4.444 0 0 1-4.438-4.438 4.444 4.444 0 0 1 4.438-4.437 4.444 4.444 0 0 1 4.438 4.438 4.444 4.444 0 0 1-4.438 4.437zm0-7.5a3.066 3.066 0 0 0-3.063 3.063 3.066 3.066 0 0 0 3.063 3.062 3.066 3.066 0 0 0 3.063-3.063 3.066 3.066 0 0 0-3.063-3.062z" stroke="#fff" stroke-width=".5"/>
        <path d="M51.37 59h-2.991c-.968 0-1.77-.725-1.866-1.69l-.238-2.382a8.807 8.807 0 0 1-1.622-.944l-2.19.989a1.865 1.865 0 0 1-2.394-.773l-1.495-2.59a1.87 1.87 0 0 1 .53-2.46l1.928-1.387a7.46 7.46 0 0 1-.063-.95c0-.338.026-.662.063-.951l-1.929-1.388a1.87 1.87 0 0 1-.529-2.46l1.495-2.589a1.868 1.868 0 0 1 2.394-.772l2.19.988a8.801 8.801 0 0 1 1.622-.943l.238-2.383a1.868 1.868 0 0 1 1.866-1.688h2.99c.968 0 1.77.726 1.866 1.69l.238 2.383c.57.253 1.112.57 1.622.943l2.19-.989a1.871 1.871 0 0 1 2.394.773l1.495 2.59a1.87 1.87 0 0 1-.529 2.46l-1.93 1.387c.038.29.064.613.064.95 0 .338-.026.662-.063.951l1.929 1.388a1.87 1.87 0 0 1 .529 2.46L59.68 54.2a1.868 1.868 0 0 1-2.394.773l-2.19-.989a8.808 8.808 0 0 1-1.622.944l-.24 2.385A1.868 1.868 0 0 1 51.369 59zm-6.586-7.04c.216 0 .43.075.602.219.636.532 1.339.94 2.087 1.213.338.124.576.43.611.787l.297 2.946h2.99l.295-2.946a.938.938 0 0 1 .61-.787 7.025 7.025 0 0 0 2.088-1.213.937.937 0 0 1 .986-.135l2.707 1.222 1.495-2.589-2.396-1.721a.943.943 0 0 1-.377-.925c.07-.395.125-.798.125-1.215 0-.416-.056-.819-.125-1.215a.941.941 0 0 1 .377-.924l2.396-1.721-1.495-2.59-2.707 1.221a.94.94 0 0 1-.988-.135 6.915 6.915 0 0 0-2.087-1.213.938.938 0 0 1-.611-.788l-.295-2.95h-2.99l-.295 2.945a.938.938 0 0 1-.61.787 7.023 7.023 0 0 0-2.088 1.213.932.932 0 0 1-.986.135l-2.707-1.222-1.495 2.59 2.396 1.72c.293.21.437.57.377.925-.07.395-.125.799-.125 1.215 0 .416.056.82.125 1.215a.941.941 0 0 1-.377.924l-2.396 1.721 1.495 2.59 2.707-1.22a.98.98 0 0 1 .384-.08z"/>
    </g>
    <defs>
        <clipPath id="a">
            <path fill="#fff" transform="translate(18 14)" d="M0 0h45v45H0z"/>
        </clipPath>
    </defs>
</svg>
