<svg width="75" height="75" fill="none" xmlns="http://www.w3.org/2000/svg">
    <path fill-rule="evenodd" clip-rule="evenodd" d="m56.266 16.765 4.943 4.947c.51.51.791 1.189.791 1.91 0 .721-.281 1.4-.791 1.91L43.152 43.605a.72.72 0 0 1-.267.168l-11.94 4.187a.717.717 0 0 1-.738-.168.712.712 0 0 1-.167-.736l4.184-11.95a.716.716 0 0 1 .168-.267l18.056-18.074c1.02-1.02 2.799-1.02 3.818 0zm-1.416 1.413c-.214-.214-.649-.235-.908-.064l-.079.065-1.841 1.843 5.935 5.935 1.836-1.837a.687.687 0 0 0 .199-.386l.008-.112a.683.683 0 0 0-.132-.411l-.074-.086-4.944-4.947zm2.108 8.78-5.936-5.936L37.03 35.03l5.935 5.935 13.994-14.006zm-20.944 9.086.015-.015 5.935 5.935-.018.018-9.133 3.202 3.201-9.14zM52 56.126a.881.881 0 0 1-.888.874H21.888a.881.881 0 0 1-.888-.874V20.874c0-.483.398-.874.888-.874h21.194v1.747H22.776v33.506h27.448V41.217H52v14.91z" fill="#83C150"/>
</svg>
