<svg width="75" height="75" fill="none" xmlns="http://www.w3.org/2000/svg">
    <path fill-rule="evenodd" clip-rule="evenodd" d="M53.166 19c.464 0 .841.377.841.842V35.99h4.151c.465 0 .842.488.842.953V53.18a.842.842 0 0 1-.842.842h-3.183v1.738a.24.24 0 0 1-.177.232l-.064.008h-3.468a.24.24 0 0 1-.233-.176l-.008-.064v-1.738H22.979v1.738a.24.24 0 0 1-.177.232l-.064.008h-3.472c-.111 0-.184 0-.233-.176l-.008-.064v-1.738h-3.183A.842.842 0 0 1 15 53.18V36.943c0-.465.377-.953.842-.953h4.2V19.842c0-.465.377-.842.842-.842h32.282zM22.993 38h-5.975v13.968h39.979L57.009 38h-5.998l.014 7.154a.841.841 0 0 1-.842.842H23.835a.841.841 0 0 1-.842-.842V38zm26.036 3.04H25.034L24.998 44h23.994l.037-2.96zm2.963-20.072H21.973V35.99h2.22c.464 0 .841.488.841.953l-.061 3.081h23.994l.032-3.08c0-.466.377-.954.841-.954h2.152V20.968z" fill="#83C150"/>
</svg>
