<svg width="75" height="75" fill="none" xmlns="http://www.w3.org/2000/svg">
    <path fill-rule="evenodd" clip-rule="evenodd" d="m17.531 16.265 2.789 2.807 15.632.026a.891.891 0 0 1 .714.26l22.075 22.16a.89.89 0 0 1-.003 1.258L42.666 58.74a.89.89 0 0 1-.511.251l-.12.008a.893.893 0 0 1-.63-.262L19.33 36.576a.89.89 0 0 1-.257-.565V20.359l-2.812-2.831a.896.896 0 1 1 1.27-1.264v.001zm4.826 4.857 3.137 3.158a3.201 3.201 0 0 1 1.734-.446 3.363 3.363 0 0 1 2.377 1.023c.63.648.97 1.502.956 2.405a3.374 3.374 0 0 1-3.38 3.331 3.37 3.37 0 0 1-2.424-1.022 3.387 3.387 0 0 1-.522-4.015l-3.115-3.135v13.05l20.92 21.003L56.471 42.14 35.557 21.145l-13.2-.023zm4.857 3.735h-.034c-.323 0-.637.065-.926.188l.904.91a.899.899 0 0 1-.004 1.268.893.893 0 0 1-1.267-.004l-.889-.893c-.34.84-.178 1.84.493 2.531a2.358 2.358 0 0 0 4.046-1.61 2.333 2.333 0 0 0-.666-1.675 2.345 2.345 0 0 0-1.657-.715z" fill="#83C150"/>
</svg>
