<svg width="75" height="75" fill="none" xmlns="http://www.w3.org/2000/svg">
    <path fill-rule="evenodd" clip-rule="evenodd" d="M32.96 45.84a2.892 2.892 0 0 0-.758-.095c-.594 0-1.2.147-1.794.291-.673.164-1.436.35-1.77.158-.345-.2-.568-.965-.764-1.638-.242-.832-.492-1.69-1.088-2.287-.597-.595-1.455-.845-2.286-1.087l-.019-.005c-.669-.197-1.422-.418-1.62-.76-.19-.332-.006-1.097.157-1.77.206-.848.42-1.724.2-2.55-.214-.795-.82-1.428-1.406-2.041l-.009-.01c-.494-.515-1.053-1.099-1.053-1.519 0-.42.56-1.004 1.053-1.518l.01-.01c.586-.612 1.191-1.246 1.404-2.04.22-.826.008-1.702-.198-2.55l-.001-.002c-.163-.674-.348-1.437-.156-1.769.2-.346.964-.569 1.64-.765.83-.242 1.688-.492 2.284-1.088.596-.596.846-1.454 1.088-2.284v-.003c.198-.674.42-1.438.764-1.637.333-.19 1.09-.007 1.761.155l.01.002c.846.207 1.722.42 2.552.2.793-.214 1.427-.82 2.04-1.406l.01-.009c.513-.494 1.097-1.053 1.517-1.053.42 0 1.004.56 1.52 1.053l.009.01c.613.586 1.246 1.191 2.041 1.404.823.22 1.701.007 2.55-.198h.004c.674-.165 1.434-.35 1.768-.157.344.2.566.963.762 1.638l.003.009c.242.827.492 1.682 1.085 2.277.597.596 1.454.846 2.284 1.087l.002.001c.675.196 1.44.42 1.64.764.19.33.007 1.09-.155 1.761l-.003.01c-.206.848-.419 1.724-.198 2.551.214.796.822 1.431 1.412 2.046l.002.003c.493.514 1.052 1.098 1.052 1.518 0 .42-.559 1.004-1.052 1.52l-.002.002c-.59.615-1.198 1.25-1.412 2.048-.22.826-.008 1.702.198 2.55l.003.009c.162.672.345 1.432.154 1.762-.199.343-.956.565-1.627.761l-.012.003c-.83.242-1.689.492-2.286 1.087-.593.596-.844 1.452-1.086 2.281l-.002.005-.003.011c-.196.672-.418 1.43-.76 1.628-.332.19-1.098.005-1.772-.157-.846-.207-1.722-.419-2.55-.198-.798.214-1.434.823-2.049 1.413l-.011.011c-.513.49-1.09 1.042-1.509 1.042-.42 0-1.004-.559-1.518-1.053-.616-.59-1.253-1.2-2.05-1.413zm2.276 3.846c.39.223.817.37 1.292.37.576 0 1.08-.215 1.536-.521l4.609 9.735a.876.876 0 0 0 1.482.162l3.35-4.325 5.467.15h.024a.874.874 0 0 0 .791-1.25l-5.212-11.005c.154-.047.313-.094.47-.14h.001l.006-.001c.989-.289 2.107-.616 2.657-1.566.544-.939.271-2.064.03-3.058v-.004c-.155-.634-.314-1.29-.208-1.685.097-.363.547-.832.983-1.287l.003-.004c.722-.753 1.54-1.607 1.54-2.73s-.817-1.974-1.538-2.727l-.003-.002-.003-.004c-.435-.454-.885-.925-.982-1.286-.106-.397.053-1.053.207-1.687l.001-.003c.24-.993.514-2.119-.029-3.056-.55-.952-1.669-1.278-2.657-1.567l-.007-.002c-.619-.179-1.259-.366-1.537-.645-.28-.279-.466-.918-.646-1.537l-.001-.005c-.289-.99-.616-2.11-1.566-2.658-.94-.544-2.061-.272-3.053-.032l-.009.002-.012.003c-.63.154-1.277.313-1.673.204-.361-.095-.829-.543-1.282-.977l-.009-.009c-.753-.722-1.607-1.539-2.73-1.539s-1.974.817-2.726 1.538l-.003.002-.009.009c-.453.433-.921.88-1.28.976-.396.108-1.043-.05-1.674-.203l-.015-.004c-.99-.242-2.119-.515-3.059.03-.953.55-1.28 1.671-1.568 2.662-.18.62-.367 1.258-.646 1.537-.279.28-.918.466-1.536.645-.992.29-2.114.616-2.664 1.57-.544.938-.27 2.065-.03 3.06.155.633.314 1.29.207 1.685-.095.36-.543.829-.976 1.282l-.009.01-.002.002c-.721.752-1.538 1.603-1.538 2.726s.817 1.977 1.54 2.73l.008.009c.434.453.882.92.977 1.282.107.395-.052 1.051-.207 1.685-.24.994-.514 2.121.03 3.06.55.953 1.672 1.28 2.663 1.568l.014.004c.248.073.498.146.728.226l-5.17 10.917a.874.874 0 0 0 .791 1.249h.024l5.467-.15 3.35 4.325a.873.873 0 0 0 1.482-.162l4.539-9.584zm-1.4-1.134-.034-.033-.003-.003c-.456-.437-.928-.889-1.29-.986-.39-.106-1.032.049-1.657.2l-.03.007c-.995.241-2.12.514-3.06-.028-.952-.55-1.278-1.67-1.567-2.658l-.002-.006a20.185 20.185 0 0 0-.166-.556l-4.253 8.979 4.486-.123a.843.843 0 0 1 .716.339l2.75 3.55 4.11-8.682zm9.809 8.68-4.208-8.886c.398-.378.796-.731 1.111-.816.395-.104 1.036.05 1.662.201l.024.006.014.003c.991.24 2.11.512 3.047-.032.952-.55 1.28-1.673 1.567-2.663l.003-.01c.094-.321.19-.648.299-.925l4.432 9.358-4.486-.123c-.321 0-.546.118-.716.339l-2.749 3.549zM26.109 32.528c0-5.744 4.674-10.418 10.42-10.418 5.744 0 10.418 4.674 10.418 10.418 0 5.745-4.674 10.42-10.419 10.42S26.11 38.271 26.11 32.526zm-1 0c0 6.297 5.122 11.42 11.42 11.42 6.296 0 11.418-5.123 11.418-11.42 0-6.296-5.122-11.418-11.419-11.418-6.297 0-11.419 5.122-11.419 11.418z" fill="#83C150"/>
</svg>
