<svg width="75" height="75" fill="none" xmlns="http://www.w3.org/2000/svg">
    <path fill-rule="evenodd" clip-rule="evenodd" d="M31.535 18.749a13.75 13.75 0 0 0-9.85 4.13c-5.322 5.43-5.236 14.18.194 19.503s14.18 5.236 19.503-.194 5.236-14.18-.194-19.502a13.748 13.748 0 0 0-9.653-3.937zm-.003 29.318a15.49 15.49 0 0 1-10.878-4.435c-6.12-6-6.217-15.86-.218-21.978 5.999-6.12 15.859-6.217 21.977-.218 5.508 5.399 6.137 13.925 1.835 20.037l13.575 11.67c1.49 1.456 1.512 3.786.094 5.232a3.664 3.664 0 0 1-2.624 1.101c-.929 0-1.858-.35-2.572-1.049L40.75 45.05a15.522 15.522 0 0 1-9.217 3.017zm11.1-4.654c.182-.186.358-.375.53-.568l3 2.578-1.429 1.457-2.636-2.947c.181-.168.36-.341.535-.52zm2.77 4.214 8.583 9.592c.718.7 1.94.69 2.682-.068a1.928 1.928 0 0 0-.027-2.72l-9.719-8.354-1.52 1.55zM31.537 21.82h-.11a10.646 10.646 0 0 0-7.544 3.213 10.643 10.643 0 0 0-3.062 7.606 10.636 10.636 0 0 0 3.213 7.544c2.044 2.004 4.75 3.047 7.607 3.064a10.646 10.646 0 0 0 7.543-3.213 10.644 10.644 0 0 0 3.063-7.607 10.638 10.638 0 0 0-3.213-7.544 10.641 10.641 0 0 0-7.497-3.063zm-.006 22.427a11.634 11.634 0 0 1-8.197-3.349 11.634 11.634 0 0 1-3.513-8.249 11.634 11.634 0 0 1 3.348-8.315 11.633 11.633 0 0 1 8.249-3.514 11.692 11.692 0 0 1 8.316 3.35 11.634 11.634 0 0 1 3.513 8.248 11.63 11.63 0 0 1-3.35 8.315 11.637 11.637 0 0 1-8.247 3.514h-.12zm5.01-5.246.357.35.175-.179c3.559-3.63 3.5-9.478-.13-13.037l-.177-.175-.35.358.178.175c3.433 3.365 3.488 8.896.122 12.33l-.175.178z" fill="#83C150"/>
</svg>
