<svg width="75" height="75" fill="none" xmlns="http://www.w3.org/2000/svg">
    <path d="M45.667 34.5s0 1.75-1.166 2.917c-1.167 1.166-8.167 4.083-9.333 5.25-1.167 1.166-1.75 1.75-1.167 3.5s2.334 1.75 2.917 1.75c.582 0 7.583-1.75 9.915-2.917 2.333-1.167 1.752-1.167 4.085-2.917 2.199-1.65 5.955-.707 6.377-.594.027.008.053.011.081.011h1.125m0 0v3.2a.3.3 0 0 0 .3.3h7.567a.3.3 0 0 0 .3-.3V25.467a.3.3 0 0 0-.3-.3H58.8a.3.3 0 0 0-.3.3V27.5m0 14v-14m0 0s-7.582-3.5-14-3.5-12.251 3.5-12.251 3.5" stroke="#83C150" stroke-width="1.7"/>
    <mask id="a" fill="#fff">
        <path d="M39.9 47.609a17.5 17.5 0 1 1 1.006-7.92l-1.403.146a16.088 16.088 0 1 0-.926 7.281l1.322.493z"/>
    </mask>
    <path d="M39.9 47.609a17.5 17.5 0 1 1 1.006-7.92l-1.403.146a16.088 16.088 0 1 0-.926 7.281l1.322.493z" stroke="#83C150" stroke-width="3.4" mask="url(#a)"/>
    <mask id="b" fill="#fff">
        <path d="M36.328 41.861a12.834 12.834 0 1 0-1.573 5.806l-.783-.43a11.941 11.941 0 1 1 1.464-5.401l.892.025z"/>
    </mask>
    <path d="M36.328 41.861a12.834 12.834 0 1 0-1.573 5.806l-.783-.43a11.941 11.941 0 1 1 1.464-5.401l.892.025z" stroke="#83C150" mask="url(#b)"/>
    <path d="M22.8 42.517v1.162h2.044c.14 0 .257.047.35.14a.43.43 0 0 1 .14.336c0 .15-.047.27-.14.364a.504.504 0 0 1-.35.126H22.8v1.4c0 .234-.065.416-.196.546a.731.731 0 0 1-.518.182.712.712 0 0 1-.504-.182c-.13-.13-.196-.312-.196-.546v-1.4h-.882a.523.523 0 0 1-.364-.14.475.475 0 0 1-.14-.35.43.43 0 0 1 .14-.336.523.523 0 0 1 .364-.14h.882v-1.162h-.882a.557.557 0 0 1-.364-.126.475.475 0 0 1-.14-.35.43.43 0 0 1 .14-.336.523.523 0 0 1 .364-.14h.882v-4.032c0-.214.06-.382.182-.504.13-.13.308-.196.532-.196h2.562c1.045 0 1.857.257 2.436.77.579.504.868 1.19.868 2.058 0 .887-.294 1.587-.882 2.1-.579.504-1.386.756-2.422.756H22.8zm-.014-.952h1.61c1.465 0 2.198-.592 2.198-1.778 0-.625-.177-1.087-.532-1.386-.355-.298-.887-.448-1.596-.448h-1.68v3.612z" fill="#83C150"/>
</svg>
