<svg width="75" height="75" fill="none" xmlns="http://www.w3.org/2000/svg">
    <path fill-rule="evenodd" clip-rule="evenodd" d="M44.13 20c.48 0 .87.387.87.866v3.133l8.003.001c3.512 0 4.653 2.203 5.972 4.753l3.916 8.113c.07.132.109.279.109.428V50.13c0 .48-.38.87-.849.87h-5.179c-.25 2.246-2.16 4-4.471 4a4.508 4.508 0 0 1-4.473-4H27.972c-.25 2.247-2.16 4-4.472 4a4.507 4.507 0 0 1-4.472-4H12.87a.868.868 0 0 1-.87-.865v-29.27c0-.478.39-.865.87-.865h31.26zm8.37 28a2.504 2.504 0 0 0-2.5 2.5c0 1.379 1.123 2.5 2.5 2.5s2.5-1.121 2.5-2.5c0-1.378-1.123-2.5-2.5-2.5zM21 50.5c0-1.378 1.121-2.5 2.5-2.5s2.5 1.122 2.5 2.5c0 1.379-1.121 2.5-2.5 2.5a2.502 2.502 0 0 1-2.5-2.5zm22.259-2.369H27.325c.218.35.389.733.504 1.138h15.43v-1.138zm-29.519 0h5.935l-.125.214c-.159.29-.287.6-.379.924h-5.43l-.001-1.138zM49 25.74h-4V49.26h3.174a4.51 4.51 0 0 1 4.115-3.255l.212-.005c2.05 0 3.786 1.38 4.325 3.26h4.476V37.522l-.734-1.525-.06.004H49.493a.496.496 0 0 1-.492-.5v-9.76zm-35.26-4.008h29.52l-.001 25.4H26.48A4.482 4.482 0 0 0 23.5 46l-.212.005a4.482 4.482 0 0 0-2.768 1.126h-6.78v-25.4zM51.55 37c.248 0 .45.224.45.5s-.202.5-.45.5h-1.1c-.248 0-.45-.224-.45-.5s.202-.5.45-.5h1.1zM50 26h4.392c.087 0 .17.004.25.012.92.375 1.517 1.147 2.203 2.373L60 35H50v-9z" fill="#83C150"/>
</svg>
