<svg width="75" height="75" fill="none" xmlns="http://www.w3.org/2000/svg">
    <path fill-rule="evenodd" clip-rule="evenodd" d="M37.562 17C48.832 17 58 26.169 58 37.438c0 11.27-9.17 20.438-20.438 20.438a20.385 20.385 0 0 1-10.538-2.929l-8.89 2.887a.866.866 0 0 1-1.036-1.225l3.813-7.32a20.242 20.242 0 0 1-3.786-11.85C17.125 26.168 26.293 17 37.562 17zm0 1.981c-10.175 0-18.456 8.282-18.456 18.457 0 3.73 1.088 7.278 3.164 10.335l.253.364.707.989-3.117 5.981 7.16-2.324.774.467a18.4 18.4 0 0 0 9.515 2.645c10.175 0 18.457-8.281 18.457-18.457 0-10.175-8.282-18.457-18.457-18.457z" fill="#83C150"/>
    <path d="m37.5 46.375-1.269-1.133c-4.506-4.008-7.481-6.652-7.481-9.896 0-2.644 2.117-4.721 4.813-4.721 1.522 0 2.983.695 3.937 1.794a5.282 5.282 0 0 1 3.938-1.794c2.694 0 4.812 2.077 4.812 4.72 0 3.245-2.975 5.889-7.481 9.906L37.5 46.375z" stroke="#83C150"/>
</svg>
