<svg width="75" height="75" fill="none" xmlns="http://www.w3.org/2000/svg">
    <circle cx="37.5" cy="37.5" r="20.6" stroke="#83C150" stroke-width="1.8"/>
    <path d="m50.147 22.323-4.216 6.324s-.843 1.265.843 1.686c1.687.422 2.53 0 3.373 1.265.843 1.265 1.265 2.53 0 4.216-1.265 1.686-3.794 2.95-4.637 4.215-.843 1.265-.422 2.53 0 2.951.421.422 2.108.422 2.108 2.108 0 1.687 0 1.687.843 2.108.843.422 2.108.422 3.372 0 1.265-.421 1.265-1.686 2.108-2.53.843-.842 3.373-1.686 3.373-1.686M28.647 19.373c.984.702 2.53 1.686 3.373 2.529.843.843 3.372 2.951 3.372 4.216 0 1.264-.421 2.108-1.686 2.95-1.265.844-1.265-.42-2.53 0-1.264.422-1.686 2.108-2.95 2.53-1.265.422-2.53-.421-3.795 0-1.264.422-1.686.843-1.686 2.108 0 1.265 0 3.794 2.53 4.216 2.529.421 2.529-1.265 4.215-1.265s2.108 1.686 3.373 2.108c1.264.421 2.53-.422 2.95.843.422 1.265 3.373 3.372 2.952 4.637-.422 1.265-2.951 2.108-3.373 2.951-.421.843 0 3.373-1.265 3.794-1.264.422-1.686 3.373-2.529 3.794-.843.422-1.265-4.215-1.686-5.48-.422-1.265-2.53-2.951-2.951-4.216-.422-1.264-1.686-4.215-2.108-4.637-.422-.422-.422-.422-2.108-1.265-1.686-.843-2.53-2.95-2.53-2.95l-2.95-.844" stroke="#83C150"/>
</svg>
