<svg xmlns="http://www.w3.org/2000/svg" width="75" height="75" viewBox="0 0 75 75">
    <g fill="none" fill-rule="evenodd">
        <g fill="#000">
            <g>
                <g>
                    <path d="M21.5 0C33.355 0 43 9.645 43 21.5 43 33.357 33.355 43 21.5 43S0 33.356 0 21.5C0 9.646 9.645 0 21.5 0zm0 1.696C10.58 1.696 1.696 10.58 1.696 21.5c0 10.919 8.884 19.803 19.804 19.803 10.92 0 19.804-8.884 19.804-19.803 0-10.92-8.884-19.805-19.804-19.805zm0 2.46c9.563 0 17.343 7.782 17.343 17.343 0 9.564-7.78 17.345-17.343 17.345-9.563 0-17.344-7.782-17.344-17.345 0-9.561 7.781-17.342 17.344-17.342zm0 .97c-9.029 0-16.374 7.346-16.374 16.373 0 9.03 7.345 16.375 16.374 16.375 9.028 0 16.374-7.346 16.374-16.375 0-9.027-7.346-16.373-16.374-16.373zm.486 30.21v2.046h-.97v-2.046h.97zm6.57-21.749l1.207 1.191-6.15 6.24c.024.138.042.278.042.423 0 1.322-1.076 2.398-2.398 2.398-1.323 0-2.399-1.076-2.399-2.398 0-.186.025-.366.066-.54L15.66 18.37l1.04-1.339 3.171 2.46c.392-.28.868-.449 1.386-.449.541 0 1.036.188 1.437.491l5.862-5.945zm-7.3 6.865c-.545 0-.987.443-.987.99 0 .545.442.986.987.986.546 0 .988-.44.988-.987 0-.546-.442-.989-.988-.989zm16.125.563v.97h-2.045v-.97h2.045zm-29.717 0v.97H5.618v-.97h2.046zM21.986 5.618v2.047h-.97V5.618h.97z" transform="translate(-123 -765) translate(123 765) translate(16 16)"/>
                </g>
            </g>
        </g>
    </g>
</svg>
