<?xml version="1.0" encoding="UTF-8"?>
<svg width="28px" height="28px" viewBox="0 0 28 28" version="1.1" xmlns="http://www.w3.org/2000/svg" xmlns:xlink="http://www.w3.org/1999/xlink">
    <!-- Generator: Sketch 50.2 (55047) - http://www.bohemiancoding.com/sketch -->
    <title>Group</title>
    <desc>Created with Sketch.</desc>
    <defs></defs>
    <g id="Symbols" stroke="none" stroke-width="1" fill="none" fill-rule="evenodd">
        <g id="icons/social" transform="translate(-37.000000, 0.000000)">
            <g id="Group" transform="translate(37.000000, 0.000000)">
                <path d="M21.990822,12.4236046 C21.9849316,12.0983925 21.9598634,11.6877222 21.9149322,11.1910397 C21.8704121,10.6949112 21.806303,10.2507225 21.72329,9.85958155 C21.6280854,9.42024052 21.4209639,9.05015249 21.1026104,8.74931746 C20.784257,8.44848243 20.4139862,8.27382636 19.9907021,8.22562627 C18.6694806,8.07520876 16.6725114,8 13.9996575,8 C11.3274886,8 9.33038245,8.07520876 8.00874993,8.22562627 C7.58601382,8.27382636 7.21738684,8.44848243 6.90163612,8.74931746 C6.58643334,9.05015249 6.38095564,9.42024052 6.28575098,9.85958155 C6.19643667,10.2507225 6.12945095,10.6949112 6.08506776,11.1910397 C6.04013664,11.6877222 6.01493138,12.0983925 6.00904102,12.4236046 C6.00315066,12.7486782 6,13.1999307 6,13.7777778 C6,14.3556248 6.00315066,14.8068774 6.00904102,15.1319509 C6.01493138,15.457163 6.04013664,15.8678333 6.08506776,16.3639618 C6.12945095,16.8606443 6.19314903,17.3048331 6.27670996,17.695974 C6.37191462,18.135315 6.57903614,18.5054031 6.89738958,18.8062381 C7.21574302,19.1070731 7.58656176,19.2817292 8.00874993,19.3299293 C9.33038245,19.4803468 11.3274886,19.5555556 13.9996575,19.5555556 C16.6725114,19.5555556 18.6694806,19.4803468 19.9907021,19.3299293 C20.4134382,19.2817292 20.7826132,19.1070731 21.0983639,18.8062381 C21.4135667,18.5054031 21.6190444,18.134761 21.714249,17.695974 C21.8035633,17.3048331 21.8704121,16.8606443 21.9149322,16.3639618 C21.9598634,15.8678333 21.9849316,15.456609 21.990822,15.1319509 C21.9967124,14.8068774 22,14.3556248 22,13.7777778 C22,13.1999307 21.9967124,12.7486782 21.990822,12.4236046 Z M17.1605894,14.2653189 L12.5892587,17.1538615 C12.5056977,17.2139731 12.4046027,17.2441674 12.2858366,17.2441674 C12.1963853,17.2441674 12.1043313,17.2199289 12.0091266,17.1722828 C11.8128269,17.0635556 11.7143346,16.8952708 11.7143346,16.6664589 L11.7143346,10.8892352 C11.7143346,10.6602847 11.8128269,10.4919999 12.0091266,10.3832727 C12.2114537,10.2750996 12.4046027,10.2810553 12.5892587,10.401694 L17.1605894,13.2903752 C17.339218,13.3925926 17.4286693,13.5549216 17.4286693,13.7777778 C17.4286693,14.0006339 17.339218,14.162963 17.1605894,14.2653189 Z" id="Fill-1" fill="#FFFFFF"></path>
            </g>
        </g>
    </g>
</svg>